<?xml version="1.0" encoding="UTF-8"?><svg id="a" xmlns="http://www.w3.org/2000/svg" viewBox="0 0 415 209"><defs><style>.b{letter-spacing:-.01em;}.c{letter-spacing:0em;}.d{fill:#fff;}.e,.f{fill:none;stroke:#000;stroke-miterlimit:10;}.g{letter-spacing:-.05em;}.f{stroke-width:2px;}.h{fill:#016669;opacity:.64;}.i{letter-spacing:0em;}.j{letter-spacing:0em;}.k{font-family:Lato-Bold, Lato;font-size:15.54px;}</style></defs><g><rect class="d" x="4.31" y="3.39" width="401.44" height="197.11"/><path d="M405.25,3.89V200H4.81V3.89H405.25m1-1H3.81V201H406.25V2.89h0Z"/></g><rect class="h" x="324.67" y="2.89" width="81.58" height="198.11"/><line class="f" x1="4.2" y1="37.46" x2="406.25" y2="37.46"/><line class="e" x1="4.68" y1="65.04" x2="406.25" y2="65.04"/><line class="e" x1="4.68" y1="99.61" x2="406.25" y2="99.61"/><line class="e" x1="4.68" y1="134.57" x2="406.25" y2="134.57"/><line class="e" x1="4.68" y1="169.54" x2="406.25" y2="169.54"/><line class="e" x1="84.22" y1="2.5" x2="84.22" y2="200.61"/><line class="e" x1="166.57" y1="2.89" x2="166.57" y2="201"/><line class="e" x1="245.82" y1="2.89" x2="245.82" y2="201"/><line class="e" x1="325.06" y1="2.89" x2="325.06" y2="201"/><text class="k" transform="translate(10.16 23.64)"><tspan class="i" x="0" y="0">I</tspan><tspan x="4.49" y="0">nstan</tspan><tspan class="j" x="42.51" y="0">c</tspan><tspan x="49.86" y="0">es</tspan></text><text class="k" transform="translate(35.02 55.49)"><tspan x="0" y="0">1</tspan></text><text class="k" transform="translate(35.02 88.12)"><tspan x="0" y="0">2</tspan></text><text class="k" transform="translate(35.02 122.31)"><tspan x="0" y="0">3</tspan></text><text class="k" transform="translate(35.02 158.82)"><tspan x="0" y="0">4</tspan></text><text class="k" transform="translate(35.02 187.57)"><tspan x="0" y="0">5</tspan></text><text class="k" transform="translate(87.85 23.64)"><tspan class="g" x="0" y="0">F</tspan><tspan x="8.1" y="0">e</tspan><tspan class="c" x="16.39" y="0">a</tspan><tspan x="24.17" y="0">tu</tspan><tspan class="b" x="38.71" y="0">r</tspan><tspan x="44.28" y="0">e 1</tspan></text><text class="k" transform="translate(170.98 23.64)"><tspan class="g" x="0" y="0">F</tspan><tspan x="8.1" y="0">e</tspan><tspan class="c" x="16.39" y="0">a</tspan><tspan x="24.17" y="0">tu</tspan><tspan class="b" x="38.71" y="0">r</tspan><tspan x="44.28" y="0">e 2</tspan></text><text class="k" transform="translate(250.22 23.64)"><tspan class="g" x="0" y="0">F</tspan><tspan x="8.1" y="0">e</tspan><tspan class="c" x="16.39" y="0">a</tspan><tspan x="24.17" y="0">tu</tspan><tspan class="b" x="38.71" y="0">r</tspan><tspan x="44.28" y="0">e 3</tspan></text><text class="k" transform="translate(333.35 23.64)"><tspan x="0" y="0">Label</tspan></text></svg>