<?xml version="1.0" encoding="UTF-8"?><svg id="a" xmlns="http://www.w3.org/2000/svg" viewBox="0 0 335 215"><defs><style>.b{letter-spacing:-.01em;}.c{letter-spacing:0em;}.d{fill:#fff;}.e,.f{fill:none;stroke:#000;stroke-miterlimit:10;}.g{letter-spacing:-.05em;}.f{stroke-width:2px;}.h{letter-spacing:0em;}.i{letter-spacing:0em;}.j{font-family:Lato-Bold, Lato;font-size:15.54px;}</style></defs><g><rect class="d" x="5.5" y="7.39" width="323.75" height="197.11"/><path d="M328.75,7.89V204H6V7.89H328.75m1-1H5V205H329.75V6.89h0Z"/></g><line class="f" x1="5.39" y1="41.46" x2="329.75" y2="41.46"/><line class="e" x1="5.78" y1="69.04" x2="329.75" y2="69.04"/><line class="e" x1="5.78" y1="103.61" x2="329.75" y2="103.61"/><line class="e" x1="5.78" y1="138.57" x2="329.75" y2="138.57"/><line class="e" x1="5.78" y1="173.54" x2="329.75" y2="173.54"/><line class="e" x1="85.41" y1="6.5" x2="85.41" y2="204.61"/><line class="e" x1="167.76" y1="6.89" x2="167.76" y2="205"/><line class="e" x1="247.01" y1="6.89" x2="247.01" y2="205"/><text class="j" transform="translate(11.35 27.64)"><tspan class="h" x="0" y="0">I</tspan><tspan x="4.49" y="0">nstan</tspan><tspan class="i" x="42.51" y="0">c</tspan><tspan x="49.86" y="0">es</tspan></text><text class="j" transform="translate(36.21 59.49)"><tspan x="0" y="0">1</tspan></text><text class="j" transform="translate(36.21 92.12)"><tspan x="0" y="0">2</tspan></text><text class="j" transform="translate(36.21 126.31)"><tspan x="0" y="0">3</tspan></text><text class="j" transform="translate(36.21 162.82)"><tspan x="0" y="0">4</tspan></text><text class="j" transform="translate(36.21 191.57)"><tspan x="0" y="0">5</tspan></text><text class="j" transform="translate(89.04 27.64)"><tspan class="g" x="0" y="0">F</tspan><tspan x="8.1" y="0">e</tspan><tspan class="c" x="16.39" y="0">a</tspan><tspan x="24.17" y="0">tu</tspan><tspan class="b" x="38.71" y="0">r</tspan><tspan x="44.28" y="0">e 1</tspan></text><text class="j" transform="translate(172.17 27.64)"><tspan class="g" x="0" y="0">F</tspan><tspan x="8.1" y="0">e</tspan><tspan class="c" x="16.39" y="0">a</tspan><tspan x="24.17" y="0">tu</tspan><tspan class="b" x="38.71" y="0">r</tspan><tspan x="44.28" y="0">e 2</tspan></text><text class="j" transform="translate(251.41 27.64)"><tspan class="g" x="0" y="0">F</tspan><tspan x="8.1" y="0">e</tspan><tspan class="c" x="16.39" y="0">a</tspan><tspan x="24.17" y="0">tu</tspan><tspan class="b" x="38.71" y="0">r</tspan><tspan x="44.28" y="0">e 3</tspan></text></svg>