<?xml version="1.0" encoding="UTF-8"?><svg id="a" xmlns="http://www.w3.org/2000/svg" viewBox="0 0 288 134"><defs><style>.b{fill:#4d4d4d;}</style></defs><path class="b" d="M272.03,57.24c-.08,2.53-.18,5.06-.18,7.59-.04-1.77-.06-3.54-.1-5.32-.1,3.19-.12,6.38-.21,9.56-.02,1.16-.26,2.24-.42,3.34-.04-1.07-.07-2.14-.1-3.21-.05,.82-.1,1.64-.13,2.46-.08-.94-.15-1.88-.2-2.82-.11,.93-.21,1.87-.32,2.8-.03-1.44-.04-2.88-.05-4.31-.12,.74-.24,1.49-.37,2.23-.03-.82-.06-1.64-.09-2.45-.04,.82-.09,1.64-.11,2.46-.05-1.7-.09-3.4-.19-5.09-.04,1.06-.07,2.13-.11,3.19-.04-.76-.07-1.51-.1-2.27-.07,.84-.14,1.67-.18,2.51-.17-1.58-.2-3.2-.25-4.81-.33,1.77-.51,3.63-.52,5.5-.03-.52-.08-1.55-.11-2.07-.04,1.2-.08,2.4-.11,3.6-.07-3.6,.09-7.23-.21-10.8-.03,2.78-.02,5.55-.08,8.33-.03-1.63-.06-3.27-.08-4.9-.09,.49-.17,.98-.25,1.47-.04-1.39-.07-2.78-.1-4.16-.13,2.27-.17,4.55-.22,6.83-.15-2.14-.15-4.3-.18-6.45-.03,1.65-.08,3.3-.12,4.94-.3-1.98-.36-4.05-.42-6.09-.03,1.45-.06,2.9-.09,4.35-.05-2.28-.06-4.56-.1-6.84-.11,1.51-.18,3.03-.21,4.55-.06-.9-.14-1.8-.18-2.7-.09,1.6-.1,3.21-.16,4.82-.17-2.65-.12-5.33-.19-8-.1,1.67-.1,3.4-.37,5.01-.04-.58-.13-1.75-.17-2.34-.02,2.53-.02,5.06-.07,7.59-.06-1.89-.09-3.79-.21-5.67-.03,.56-.08,1.68-.11,2.24-.02-.56-.15-1.14-.13-1.69-.02,1.7-.04,3.41-.06,5.11-.21-1.17-.36-2.36-.48-3.57,0,3.09,.08,6.21-.16,9.28-.09-3.8-.09-7.6-.21-11.4-.06,3.29-.07,6.59-.22,9.88-.15-2.65-.16-5.32-.2-7.98-.07,2.79-.14,5.57-.22,8.36-.05-2.41-.04-4.82-.21-7.22-.04,1.91-.07,3.81-.12,5.72-.21-3.48-.09-6.99-.18-10.47-.05,1.91-.08,3.83-.16,5.74-.14-2.19-.1-4.4-.11-6.59h-.09c0,2.55,0,5.12-.04,7.68-.41-6.24,.01-12.55-.23-18.82-.12,6.97,.06,13.95-.09,20.92-.34-8.86-.02-17.76-.22-26.63-.08,4.59-.03,9.19-.04,13.79,0,3.33,.09,6.68-.15,9.99-.19-10.08,.06-20.17-.12-30.24-.18,9.95,.16,19.91-.22,29.85-.12-5.45,.05-10.9-.11-16.34-.11,5.13,.08,10.28-.22,15.4-.1-6.33,.06-12.67-.09-19.01-.15,5.84,.09,11.7-.15,17.53-.3-5.45,.09-10.95-.24-16.4-.21,5.18,.09,10.4-.25,15.57-.11-6.45,.07-12.91-.1-19.37-.02,7.26-.15,14.51-.14,22.57h-.11c-.04-7.48,.09-14.17-.06-20.85-.11,5.39,.05,10.78-.09,16.17-.21-4.02-.15-11.35-.15-11.35h-.11s.08,11.39-.06,17.44c-.3-4.67-.04-9.39-.2-14.07-.07,3.64-.16,7.29-.16,10.93,0,3.51,.08,7.03-.17,10.52-.12-7.15,.06-14.31-.1-21.46-.08,6.52,.02,13.07-.31,19.58-.05-3.23-.03-6.46-.1-9.68-.06,2.98-.04,5.96-.1,8.93-.05-1.46-.08-2.91-.12-4.37-.03,2.09-.06,4.18-.11,6.27-.04-2.85-.03-5.7-.09-8.55-.05,2.66-.05,5.32-.08,7.99-.05-.5-.1-1-.14-1.5-.04,.75-.08,1.5-.11,2.25-.03-1.51-.06-3.03-.08-4.54-.04,.88-.09,1.76-.12,2.64-.03-1.38-.05-2.77-.06-4.15-.08,1.13-.14,2.27-.22,3.4-.23-2.06-.31-4.17-.34-6.27-.03,1.71-.05,3.41-.07,5.12-.06-.5-.1-1-.15-1.5-.03,1.45-.05,2.9-.08,4.35-.12-1.76-.23-3.52-.3-5.29-.07,1.07-.13,2.13-.21,3.2-.17-1.88-.18-3.79-.23-5.69-.05,2.28-.09,4.58-.33,6.83-.02-2.72-.02-5.45-.09-8.17-.05,1.9-.06,3.8-.1,5.7-.04-1.2-.08-2.4-.12-3.6-.04,1.58-.06,3.16-.1,4.74-.13-3.41-.18-6.81-.27-10.22-.04,.24-.08,.49-.11,.73-.07-.08-.13-.16-.19-.24-.02,1.97,0,3.95-.17,5.9-.05-4.37-.16-8.73-.31-13.09-.03,1.84-.06,3.67-.09,5.51-.18-2.51-.18-5.06-.33-7.57-.05,3.61,.02,7.22-.11,10.83-.11-1.84-.15-3.69-.2-5.53-.04,3.48,0,6.97-.08,10.45-.14-5.51,.05-11.03-.12-16.54-.08,3.8,.01,7.61-.1,11.4-.28-4.54-.05-9.13-.2-13.68-.12,4.88,.04,9.76-.11,14.64-.07-3.74,0-7.48-.09-11.22-.07,4.37-.1,8.75-.22,13.12-.08-4.31,.02-8.62-.09-12.93-.05,1.52-.07,3.04-.11,4.56-.18-4.68-.1-9.38-.22-14.07-.08,3.72,.07,7.49-.32,11.18-.04-1.44-.07-2.89-.11-4.33-.05,3.42,0,6.85-.08,10.27-.28-4.39-.12-8.82-.15-13.22h-.11c0,2.57,0,5.14-.07,7.7-.06-3.49-.03-6.98-.22-10.45-.04,2.79-.03,5.57-.09,8.36-.05-1.26-.08-2.52-.11-3.79-.05,3.23-.02,6.46-.1,9.69-.06-3.49-.04-6.98-.2-10.46-.04,1.39-.08,2.78-.11,4.17-.13-3.29-.14-6.59-.21-9.88-.12,7.1,.06,14.2-.21,21.29-.1-4.18,.02-8.36-.11-12.54-.11,4.75,.04,9.51-.1,14.26-.05-2.98,.02-5.98-.19-8.93-.07,1.9-.08,3.8-.13,5.7-.04-2.85-.03-5.7-.1-8.55-.05,2.53-.04,5.07-.09,7.6-.04-1.2-.08-2.4-.11-3.6-.04,.88-.08,1.76-.11,2.64-.08-.87-.16-1.74-.22-2.6-.03,1.69-.05,3.39-.09,5.08-.06-3.14-.03-9.11-.03-9.11h-.11c0,5.35,0,10.69,0,16.04h-.11c-.03-6.3,.08-12.6-.06-18.9-.12,5.47,.05,10.96-.11,16.43-.13-6.13,.06-12.27-.11-18.4-.09,4.58-.02,9.17-.03,13.75h-.11s.04-7.56-.05-11.39c-.05,2.34-.06,4.69-.11,7.03-.13-5.83,.05-11.66-.1-17.49-.06,3.29-.03,6.59-.1,9.88-.14-7.73,.06-15.47-.11-23.2-.11,9.6-.04,29.82-.04,29.82h-.11c-.03-10.58,.08-21.16-.05-31.73-.15,9.07,.07,18.16-.11,27.23-.14-9.84,.07-19.69-.11-29.53-.13,10.48,.06,20.97-.1,31.45-.15-9.71,.07-19.43-.11-29.14-.13,10.22,.08,20.46-.1,30.68-.05-3.07-.03-6.14-.1-9.2-.14-7.16,.05-14.32-.11-21.48-.15,8.43,.07,16.88-.11,25.31-.09-7.95-.01-15.91-.03-23.87h-.11s.08,12.61-.06,19.3c-.13-6.84,.06-13.7-.1-20.54-.14,8.11,.07,16.23-.11,24.34-.13-7.61,.06-15.22-.09-22.82-.14,6.15,.06,12.3-.11,18.44-.09-7.57-.03-22.29-.03-22.29h-.31c-.03,7.45,.08,14.91-.06,22.36-.12-7.72,.07-15.45-.1-23.16-.12,9.2,.06,18.41-.09,27.62-.14-10.51,.06-21.03-.1-31.54-.14,9.32,.07,18.65-.1,27.98-.12-6.18,.05-12.36-.09-18.53-.14,7.84,.06,15.68-.11,23.52-.12-6.53,.06-13.07-.09-19.6-.13,12.35,.06,24.71-.09,37.07-.14-8.73,.06-17.46-.1-26.19-.13,9.32,.04,18.65-.09,27.97-.04-1.3-.08-2.61-.11-3.91-.08,.93-.15,1.87-.22,2.81-.02-.87-.05-1.75-.06-2.62-.07,.69-.13,1.39-.21,2.08-.08-.38-.15-.77-.23-1.15-.04,.75-.08,1.51-.11,2.27-.12-1.95-.12-3.91-.16-5.87-.05,1.78-.07,3.57-.18,5.34-.07-2.79-.06-5.57-.09-8.36-.08,1.17-.16,2.35-.23,3.52-.03-.48-.08-1.45-.1-1.93-.03,1.89-.05,3.79-.1,5.69-.2-3.49-.21-7-.29-10.5-.05,3.2-.01,6.41-.08,9.62-.04-2.2-.06-4.39-.09-6.59-.08,2.43-.15,4.86-.21,7.3-.07-3.68,.03-7.37-.1-11.04-.31,4.07,0,8.21-.18,12.3-.05-3.12-.03-6.24-.14-9.36-.13-3.59-.07-7.19-.26-10.77-.08,4.21,.03,8.43-.09,12.64-.1-4.69,.03-9.38-.08-14.06-.04,1.24-.08,2.48-.12,3.72-.04-1.06-.07-2.13-.1-3.19-.05,3.92-.12,7.83-.2,11.75-.11-5.52,.05-11.05-.1-16.57-.12,7.36,.07,14.73-.1,22.09-.12-6.23,.06-12.48-.09-18.71-.07,5.76,0,11.53-.2,17.28-.12-6.95,.06-13.9-.09-20.85-.12,5.52,.05,11.05-.1,16.57-.12-6.47,.06-12.95-.09-19.42-.11,4.63,.03,9.27-.09,13.9-.25-5.93-.05-11.88-.19-17.82-.13,6.35,.06,12.71-.1,19.06-.09-7.33-.01-14.67-.03-22.01h-.31c0,11.29,0,22.57,0,33.86h-.11c0-12.48,0-24.95,0-37.43h-.13c.03,8.47-.02,16.93-.15,25.39-.13-8.49,.06-16.99-.1-25.48-.13,8.49,.06,16.99-.1,25.48-.09-6.68-.01-13.36-.03-20.05h-.14c-.03,7.46,.08,14.92-.06,22.37-.25-8.97-.05-17.95-.21-26.92-.13,7.36,.07,14.73-.1,22.09-.12-7.67,.06-15.35-.09-23.02-.14,12.19,.06,24.38-.1,36.57-.14-10.64,.05-21.29-.1-31.93-.19,6.31-.1,12.62-.22,18.93-.12-6.43,.06-12.88-.1-19.31-.09,6.34-.01,12.69-.04,19.03h-.11c-.03-6.17,.08-12.34-.06-18.5-.19,5.31-.12,10.63-.23,15.94-.1-4.63,.02-9.27-.11-13.9-.12,9.64-.02,19.29-.05,28.93h-.05c-.02-5.83,.06-11.67-.05-17.5-.29,7.08-.06,14.19-.23,21.27-.07-3.74-.01-7.47-.08-11.21-.06,2.33-.08,4.66-.16,6.98-.32-6.82,.05-13.69-.18-20.53-.16,7.28,.16,14.59-.22,21.85-.04-2.77-.03-5.54-.08-8.31-.12,3.15-.17,6.31-.21,9.47-.01-.56-.12-1.15-.09-1.7-.04,.27-.12,.82-.16,1.1-.02-.77-.05-2.3-.07-3.06-.03,.64-.11,1.27-.12,1.92-.09-.88-.17-1.76-.24-2.65,0,2.37-.02,4.74-.08,7.11-.05-2.58-.04-5.16-.09-7.73-.04,1.48-.08,2.96-.11,4.44-.04-.9-.08-1.8-.11-2.69,0,.57-.12,1.13-.09,1.71-.03-.29-.06-.58-.08-.86-.06,.21-.12,.41-.17,.61-.06-.8-.12-1.61-.18-2.41-.04,1.54-.07,3.07-.1,4.61-.04-.63-.12-1.28-.14-1.91-.02,1.86-.04,3.72-.07,5.58-.03-1.67-.07-3.34-.1-5.01-.07,.76-.14,1.51-.21,2.27-.04-.32-.11-.95-.15-1.27-.02,.57-.07,1.7-.1,2.27-.05-2.18-.06-4.37-.2-6.55-.04,1.99-.07,3.98-.11,5.97-.04-2.7-.05-5.41-.11-8.11-.23,2.63-.12,5.31-.25,7.96-.11-1.35-.13-2.73-.18-4.09-.03,1.73-.04,3.47-.07,5.2-.06-1.54-.11-3.09-.2-4.62-.05,.89-.1,1.79-.14,2.69-.05-1.17-.1-2.35-.15-3.52-.15,1.02-.22,2.07-.3,3.12-.06-2.76-.12-5.53-.19-8.29-.03,2.07-.02,4.13,0,6.2-.12-.12-.23-.24-.35-.35,0-8.3,0-16.6,0-24.9h-.06s.08,13.77-.06,20.45c-.07-8.62-.01-17.25-.21-25.87-.13,7.8,.07,15.6-.11,23.39-.09-6.88-.03-21.54-.03-21.54h.27c-.03,7.57,.08,15.15-.05,22.72-.25-8.01-.09-16.04-.24-24.05-.1,8.5,.03,17-.23,25.49-.15-9.39,.08-18.78-.12-28.16-.2,7.95,.19,15.94-.2,23.87-.2-7.54,.06-15.09-.13-22.63-.15,7.33,.06,14.67-.12,22-.05-2.4-.06-4.79-.11-7.19-.23,5.88-.11,11.78-.21,17.67-.29-5.33-.09-10.69-.23-16.03-.1,5-.33,9.99-.36,15-.13-8.49,.07-17-.1-25.49-.05,2.84-.05,5.68-.1,8.51-.17,7.16,.06,14.34-.13,21.5-.1-8.01-.15-16.02-.19-24.04-.3,4.6-.12,9.24-.21,13.86-.1,3.73-.05,7.47-.15,11.2-.12-5.34,.05-10.69-.12-16.03-.1,4.79,.03,9.6-.1,14.39-.04-2.61-.05-5.21-.13-7.81-.17,2.87-.14,5.76-.23,8.65-.14-1.5-.16-3.02-.21-4.53-.06,1.77-.09,3.55-.22,5.3-.04-2.25-.07-4.5-.1-6.75-.05,2.06-.08,4.12-.22,6.17-.08-2.05-.09-4.11-.13-6.17-.09,1.29-.17,2.58-.23,3.87-.04-.83-.13-2.51-.18-3.34-.1,2.21-.14,4.44-.17,6.66-.04-2.33-.06-4.66-.1-6.98-.07,2.32-.14,4.65-.23,6.97-.04-2.46-.06-4.92-.12-7.38-.06,2.67-.11,5.33-.23,7.99-.03-1.77-.06-3.53-.08-5.3-.08,1.01-.14,2.02-.23,3.03l-.07-1.14c-.08,.23-.16,.46-.24,.69-.02-1.42-.03-2.84-.05-4.26-.09,.8-.18,1.6-.25,2.41-.03-.28-.09-.83-.12-1.11-.06,1.69-.12,3.38-.24,5.06-.08-.32-.15-.64-.22-.95-.03,.28-.09,.85-.12,1.12-.01-2.17-.03-4.34-.04-6.51-.1,1.79-.14,3.62-.5,5.31-.04-1.29-.06-2.59-.09-3.88-.07,1.5-.12,3-.22,4.49-.09-1.43-.15-2.85-.24-4.27-.03,.81-.09,2.45-.12,3.26-.05-.88-.1-1.77-.13-2.65-.04,1.29-.07,2.59-.1,3.88-.1-3.35-.16-6.71-.24-10.06-.05,3.36-.02,6.71-.1,10.07-.08-4.52-.11-9.04-.23-13.56-.11,4.93,.03,9.87-.12,14.8-.09-4.38,0-8.77-.1-13.15-.07,1.91-.09,3.83-.21,5.74-.07-2.94-.07-5.89-.14-8.83-.09,4.06,.04,8.12-.15,12.17-.28-5.17-.03-10.38-.11-15.57h.26c-.01,4.47,.05,8.94-.05,13.41-.24-3.85-.11-7.74-.22-11.6-.04,2.29-.04,4.58-.17,6.85-.09-2.98-.07-5.97-.15-8.95-.11,4.76,.05,9.52-.1,14.28-.13-6.98,.07-13.97-.1-20.94-.06,5.9-.03,11.81-.21,17.71-.12-6.22,.06-12.44-.1-18.66-.12,6.34,.05,12.69-.09,19.03-.4-6.38,.02-12.83-.23-19.23-.13,7.55,.07,15.11-.1,22.66-.23-8.63-.07-17.26-.2-25.89-.14,7.42,.06,14.85-.1,22.28-.08-9.33-.03-18.66-.21-27.99-.13,7.17,.06,14.35-.1,21.52-.14-7.11,.06-14.22-.11-21.33-.09,8.47-.01,16.95-.04,25.43h-.1c0-1.91,0-3.81-.03-5.71-.2-10,.04-20-.13-29.99-.14,11.87,.06,23.74-.1,35.61-.08-2.57-.17-5.13-.16-7.71,0-8.57,0-17.14,0-25.71h-.15c-.04,11.4,.09,22.8-.06,34.19-.13-10.14,.07-20.28-.1-30.41-.13,10.38,.07,20.78-.1,31.16-.07-1.13-.11-2.27-.13-3.41-.08-9.86,.08-19.73-.08-29.59-.13,10.38,.07,20.77-.1,31.15-.05-2.67-.03-5.35-.05-8.02-.22-9.18,.04-18.37-.15-27.56-.13,11.98,.07,23.97-.1,35.94-.13-9.77,.07-19.54-.1-29.31-.13,11.55,.07,23.11-.1,34.66-.05-2.61-.03-5.22-.05-7.84-.22-10.1,.04-20.22-.15-30.32-.13,9.77,.06,19.54-.09,29.31-.11-4.39,.02-8.78-.09-13.16-.15-5.5,.04-11.01-.12-16.51-.13,9.46,.07,18.93-.1,28.39-.13-10.38,.07-20.77-.1-31.15-.13,10.07,.06,20.16-.09,30.23-.14-6.61,.06-13.23-.12-19.85-.07-4.2,.03-8.4-.09-12.59-.14,10.26,.06,20.52-.11,30.78-.11-5.06,.03-10.13-.08-15.19-.15-5.75,.04-11.5-.12-17.25-.13,10.32,.07,20.65-.1,30.97-.09-9.98-.01-19.97-.04-29.95h-.15c-.04,14.24,.09,28.48-.06,42.71-.1-5.27,.01-10.55-.05-15.82-.23-9.43,.04-18.88-.16-28.31-.13,12.94,.07,25.89-.1,38.82-.31-11.61-.01-23.24-.21-34.85-.09,12.22-.01,24.43-.03,36.65h-.1c-.04-9.88,.1-19.76-.07-29.63-.07,9.64,0,19.28-.22,28.91-.06-3.66-.01-7.33-.1-10.99-.12,6.28-.21,12.55-.16,18.83h-.08c0-3.01,.02-6.01-.07-9.01-.06,3.56-.01,7.13-.1,10.69-.13-3.16-.16-6.33-.22-9.5-.08,4.55-.12,9.11-.23,13.66-.09-4.92-.01-9.83-.03-14.75h-.01c0,2.92,.01,5.84-.03,8.76-.07-1.98-.14-3.96-.25-5.93-.05,3.01,0,6.04-.21,9.03-.04-2.77-.04-5.53-.09-8.29-.04,2.44-.05,4.89-.19,7.33-.06-2.06-.09-4.11-.12-6.17-.04,2.19-.06,4.38-.17,6.56-.07-1.99-.11-3.99-.14-5.98-.04,1.73-.08,3.46-.13,5.2-.12-1.78-.14-3.58-.19-5.38-.03,1.67-.07,3.33-.11,4.99-.08-1.73-.15-3.46-.21-5.2-.01,.57-.11,1.12-.09,1.7-.03-.28-.1-.83-.13-1.1-.08,1.39-.15,2.78-.22,4.18-.02-1.07-.03-2.14-.04-3.21-.08,.3-.15,.6-.22,.91-.09-1.53-.11-3.06-.15-4.59-.04,1.09-.07,2.17-.1,3.26-.02-.57-.13-1.16-.11-1.72-.03,.57-.14,1.12-.13,1.7-.19-1.51-.24-3.05-.32-4.59-.02,2.31-.03,4.61-.08,6.92-.04-1.8-.06-3.59-.1-5.39-.05,.89-.1,1.79-.14,2.69-.19-2.29-.25-4.61-.28-6.92-.04,1.34-.09,2.68-.13,4.03-.05-4.05,.01-8.1-.2-12.14-.1,5.27,.05,10.54-.1,15.8-.06-8.35-.09-16.71-.21-25.06-.11,5.14,.04,10.28-.09,15.41-.13-4.36-.14-8.73-.23-13.1-.18,7.51,.19,15.06-.19,22.56-.18-9.31,.06-18.64-.12-27.96-.2,7.97,.18,15.97-.2,23.92-.18-5.78,.05-11.58-.13-17.36-.07,7.46-.02,14.91-.22,22.36-.12-7.97,.07-15.94-.1-23.91-.13,6.3,.05,12.6-.1,18.9-.34-4.86-.01-9.78-.22-14.66-.06,4.37-.02,8.74-.21,13.1-.03-2.18-.05-4.37-.1-6.55-.07,3.73,0,7.45-.1,11.18-.15-5.55-.17-11.12-.14-16.67h-.1c.02,4.47-.11,8.93-.16,13.4-.05-.83-.1-1.66-.14-2.49-.02,2.56-.02,5.13-.08,7.69-.06-6.29-.08-12.59-.2-18.88-.19,5.58-.33,11.17-.56,16.75-.02-1.59-.03-3.19-.04-4.78-.05,.27-.14,.82-.18,1.09l-.11-2.1c-.32,2.66-.21,5.4-.37,8.1-.05-1.34-.09-2.68-.13-4.02-.04,1.63-.08,3.26-.15,4.89-.1-1.76-.12-3.52-.16-5.28-.03,1.98-.06,3.97-.09,5.95-.07-1.79-.14-3.57-.24-5.35-.03,1.78-.06,3.57-.08,5.36-.06-1.5-.1-3.01-.17-4.51-.08,1.43-.11,2.87-.16,4.31-.06-.96-.12-1.91-.19-2.87-.06,.57-.11,1.14-.15,1.71-.03-1.21-.07-2.43-.1-3.65-.02,1.14-.04,2.29-.05,3.43-.09-.35-.18-.71-.26-1.06-.11,.87-.21,1.74-.32,2.61-.03-1.47-.06-2.94-.08-4.4-.06,.77-.12,1.54-.17,2.31-.07-1.15-.12-2.31-.17-3.46-.03,2.12-.05,4.24-.14,6.36-.1-1.54-.19-3.08-.28-4.61-.04,1.66-.07,3.32-.11,4.99-.12-5.07-.11-10.15-.22-15.22-.05,3.22,0,6.44-.11,9.65-.15-2.38-.13-4.78-.28-7.15-.06,1.86-.09,3.72-.12,5.58-.04-1.67-.08-3.33-.12-5-.23,3.03-.13,6.11-.14,9.16h-.09c0-2.41,0-4.81-.05-7.22-.08,2.79-.14,5.59-.21,8.38-.12-2.91-.14-5.83-.2-8.74-.04,2.85-.03,5.71-.1,8.56-.05-2.79,.02-5.6-.17-8.38-.07,2.31-.07,4.62-.1,6.94-.17-3.32-.14-6.65-.21-9.97-.05,2.85-.03,5.7-.08,8.55-.11-3.38-.14-6.77-.22-10.15-.06,3.45,0,6.9-.08,10.35-.28-4.26-.06-8.57-.19-12.85-.05,1.45-.1,2.9-.17,4.35-.11-2.03-.1-4.08-.12-6.12-.27,4.83-.12,9.68-.15,14.52h-.15c-.03-5.52,.08-11.05-.06-16.56-.34,4.82-.02,9.69-.21,14.53-.11-5.04,.08-10.09-.22-15.11-.1,4.78,.05,9.56-.1,14.33-.12-5.74,.05-11.49-.1-17.24-.14,5.94,.05,11.88-.11,17.82-.06-3.15-.04-6.29-.11-9.44-.11-5.18,.04-10.37-.11-15.55-.13,9.23,.06,18.47-.1,27.71-.27-3.04-.13-6.14-.16-9.21-.03-6.17,.08-12.34-.06-18.5-.14,9.94,.08,19.89-.11,29.83-.06-3.48-.02-6.96-.1-10.43-.12-5.56,.04-11.13-.11-16.69-.15,8.2,.06,16.4-.11,24.6-.14-11.17,.06-22.34-.1-33.51-.15,9.17,.07,18.34-.12,27.5-.08-1.12-.13-2.25-.14-3.38-.07-9.07,.09-18.15-.07-27.22-.13,8.01,.07,16.02-.11,24.02-.13-8.65,.07-17.31-.11-25.96-.12,8.2,.09,16.41-.22,24.6-.08-7.26-.01-14.53-.03-21.79h-.09c-.03,7.41,.08,14.81-.06,22.22-.13-9.71,.07-19.42-.1-29.13-.09,11.21-.02,22.43-.04,33.65h-.09c-.03-6.08,.08-12.16-.08-18.23-.06-4.12,.02-8.24-.09-12.36-.15,11.02,.06,22.04-.11,33.06-.15-11.35,.06-22.7-.11-34.05-.15,7.72,.06,15.44-.11,23.16-.34-9.89-.02-19.8-.22-29.69-.14,11.08,.07,22.18-.1,33.26-.16-11.02,.07-22.04-.11-33.06-.14,10.42,.07,20.86-.1,31.28-.16-10.36,.07-20.72-.12-31.08-.09,13.76-.02,27.52-.04,41.28h-.09s.08-12.95-.07-19.8c-.1-6.05,.07-12.11-.09-18.16-.09,11.38-.03,34.39-.03,34.39h-.11c-.03-10.06,.08-20.13-.06-30.19-.13,8.02,.06,16.06-.1,24.08-.1-9.25-.01-18.5-.04-27.75h-.11c-.04,14.55,.1,29.11-.07,43.66-.14-9.47,.09-18.95-.12-28.41-.06-6.27,0-12.54-.02-18.81h-.11c0,10.1,0,20.2,0,30.3h-.11c0-9.51,0-19.01,0-28.52h-.11c-.04,10.83,.09,21.66-.06,32.49-.13-11.69,.08-23.38-.1-35.06-.11,6.89,.03,13.79-.07,20.68-.08,3.05-.08,6.09-.08,9.14h-.11c-.03-10.19,.08-20.39-.06-30.58-.11,11.21-.02,22.42-.04,33.63h-.12c-.03-11.02,.08-22.05-.06-33.07-.14,12.7,.07,25.41-.1,38.11-.09-8.21,0-16.43-.03-24.64h-.12c0,3.13,.01,6.26-.06,9.38-.11,5.11,.05,10.22-.11,15.33-.08-3.73,.01-7.46-.1-11.18-.1,6.18-.31,12.36-.25,18.55h-.1s-.04-4.4-.08-6.33c-.16,2.46-.15,4.94-.21,7.42-.03-2.06-.04-6.43-.04-6.43h-.09s-.02,4.75-.06,7c-.04-1.46-.08-2.92-.12-4.37-.21,3.47-.1,6.98-.2,10.46-.04-2.72-.04-5.45-.11-8.17-.05,2.85-.03,5.7-.09,8.55-.06-3.29-.03-6.59-.1-9.88-.16,3.6-.13,7.22-.22,10.84-.07-3.64-.03-10.86-.03-10.86h-.05c0,3.34,.02,6.67-.05,10.01-.08-2.77-.15-5.54-.24-8.31-.03,2.64-.03,5.28-.1,7.92-.05-2.84-.05-5.68-.11-8.52-.04,2.18-.06,4.36-.11,6.54-.12-2.97-.17-5.94-.23-8.91-.04,2.64-.04,5.28-.1,7.92-.05-1.65-.07-3.3-.11-4.94-.03,1.25-.06,2.5-.09,3.75-.05-1.58-.12-3.16-.2-4.74-.05,1.25-.09,2.5-.13,3.75-.03-.79-.1-2.36-.14-3.15-.02,2.97-.01,5.94-.09,8.91-.05-2.98-.02-5.97-.13-8.94-.17,2.87-.14,5.76-.12,8.64h-.12c.01-3.33,.03-6.67-.07-10-.07,3.6-.03,7.2-.03,10.8h-.11c0-5.26-.11-10.51-.18-15.76-.05,2.31-.05,4.62-.1,6.93-.06-3.43-.02-6.87-.11-10.3-.08,3.9,0,7.8-.1,11.7-.19-2.26-.16-4.56-.16-6.84,0-4.99,.07-9.98-.05-14.96-.11,7.36-.02,14.73-.04,22.1h-.05c-.03-8.64,.08-17.27-.06-25.9-.13,7.86,.06,15.74-.1,23.6-.1-8.14-.01-16.29-.04-24.43h-.12s.03,19.16-.16,29.27c-.11-11.82-.04-36.4-.04-36.4h.18c-.03,10.49,.08,20.99-.06,31.48-.15-8.63,.07-17.26-.11-25.89-.12,5.1,.04,10.2-.11,15.3-.11-5.06,.03-10.13-.09-15.18-.1-3.89-.01-7.8-.12-11.69-.15,9.67,.08,19.36-.11,29.03-.13-7.19,.06-14.38-.1-21.57-.15,9.28,.07,18.57-.11,27.85-.14-10.33,.07-20.67-.11-30.99-.13,11.31,.05,22.62-.09,33.92-.33-7.83-.05-15.69-.23-23.52-.15,7.65,.07,15.3-.12,22.95-.13-9.35,.1-18.71-.22-28.05-.03,6.67-.31,13.33-.32,20.01-.05-3.14-.04-6.27-.1-9.41-.27,6.33-.07,12.68-.21,19.02-.15-3.72-.16-7.45-.22-11.17-.05,2.09-.07,4.18-.11,6.26-.05-.97-.1-1.95-.14-2.92,.01,6.14-.04,12.29-.47,18.38-.08-.72-.1-1.46-.2-2.17-.52-.53-.72,.93-.96,1.51-.01-.15-.04-.45-.05-.6-.18,.38-.37,.76-.53,1.17-.01-.81-.02-1.62-.03-2.42-.11,.65-.22,1.3-.33,1.95-.03-.84-.06-1.68-.08-2.51-.03,.53-.08,1.59-.11,2.12-.04-.48-.1-.97-.13-1.45-.12,.27-.24,.54-.36,.81,0-.14,0-.41,0-.55-.08,.09-.15,.18-.23,.27-.09-1.06-.18-2.11-.27-3.17-.04,1.3-.08,2.6-.11,3.91-.03-1.3-.06-2.61-.08-3.91-.05,.52-.09,1.03-.12,1.55-.03-.57-.14-1.18-.14-1.74,0,1.19,0,2.38,0,3.56-.09-.1-.17-.2-.25-.29-.01,.3-.04,.89-.05,1.19-.08-.63-.13-1.24-.2-1.87-.08,.69-.14,1.38-.21,2.07-.07-.79-.15-1.59-.22-2.38-.27,.6-.49,1.26-.7,1.92-.04-1.53-.06-3.06-.17-4.58-.07,1.62-.12,3.25-.21,4.87-.22-2.46-.35-4.95-.45-7.44-.03,1.76-.07,3.52-.11,5.28-.14-1.69-.18-3.4-.26-5.09-.05,.54-.14,1.62-.19,2.16-.07-.64-.16-1.3-.2-1.94-.05,1.61-.09,3.23-.15,4.85-.09-1.23-.15-2.47-.26-3.69-.1,1.49-.16,3-.22,4.5-.07-1.56-.13-3.12-.2-4.67-.09,1.17-.19,2.34-.28,3.52-.08-1.3-.14-2.62-.19-3.93-.1,1.42-.13,2.86-.18,4.29-.09-1.92-.22-3.82-.37-5.73-.07,.66-.14,1.32-.18,1.99-.05-1.55-.08-3.11-.2-4.65-.05,2.8-.04,5.61-.1,8.41-.25-3.97-.1-7.98-.22-11.97-.08,3.08,.03,6.2-.26,9.25-.21-2.73-.09-5.51-.17-8.26-.06,2.37,0,4.81-.44,7.07-.05-1.97-.06-3.93-.08-5.9-.09,1.17-.17,2.34-.26,3.51-.23-3.64-.14-7.31-.3-10.96-.04,1.5-.07,3-.1,4.5-.04-2.16-.06-4.31-.18-6.46-.1,2.48-.17,4.96-.26,7.45-.22-3.84-.1-7.71-.22-11.57-.1,4.38,.07,8.78-.22,13.14-.05-4.84-.02-9.68-.21-14.51-.06,4.77,.01,9.54-.2,14.3-.04-2.35-.06-4.7-.11-7.04-.05,1.3-.08,2.6-.11,3.9-.1-1.36-.17-2.73-.23-4.09-.02,2.41-.03,4.83-.15,7.24-.37-4.41-.43-8.87-.48-13.32-.14,4.65-.07,9.32-.39,13.94-.23-10.2,.06-20.42-.15-30.62-.13,11.37,.07,22.76-.1,34.13-.05-3.07-.04-6.15-.11-9.22-.08,1.94-.12,3.88-.15,5.83-.07-.22-.15-.44-.22-.66-.02,1.28-.03,2.57-.05,3.86-.05-.85-.1-1.69-.14-2.53-.04,1.57-.06,3.13-.11,4.7-.22-2.58-.14-5.2-.23-7.8-.08,.22-.16,.44-.23,.67-.03-.83-.05-1.65-.07-2.48-.04,2.81-.07,5.62-.19,8.42-.03-.64-.09-1.3-.1-1.94-.13,.29-.26,.59-.39,.88,0-4.32,.02-8.64,.02-12.96h.15c0,3.78,.04,7.57-.04,11.35-.05-1.37-.08-2.75-.12-4.12-.04,1.43-.06,2.87-.1,4.3-.04-.93-.08-1.87-.11-2.8-.09,1.43-.16,2.86-.22,4.3-.03-2.12-.04-4.25-.09-6.37-.02,.82-.03,1.64-.04,2.46-.06-.08-.13-.16-.19-.24-.04,.24-.07,.48-.11,.72-.03-2.06-.07-4.13-.28-6.15-.27,2.6-.09,5.29-.3,7.91-.06-1.57-.08-3.14-.12-4.7-.07,2-.14,3.99-.2,5.99-.06-1.94-.09-3.88-.22-5.81-.04,1.75-.06,3.49-.09,5.24-.22-3.86-.12-7.75-.21-11.62-.16,3.13-.2,6.27-.5,9.37-.02-.55-.07-1.66-.09-2.21-.1,1.12-.19,2.24-.31,3.35-.05-.49-.11-.98-.15-1.46-.03,.75-.08,2.24-.1,2.98-.24-2.95-.1-5.95-.12-8.92h-.31c0,1.88,0,3.75,0,5.63-.05-.26-.14-.77-.19-1.03-.03,.78-.06,1.57-.08,2.35-.03-2.08-.04-4.16-.13-6.23-.07,.21-.14,.41-.2,.62-.03-2.4-.09-4.79-.17-7.18-.07,3.84,0,7.67-.1,11.51-.11-4.83,.03-9.66-.09-14.48-.26,4.44-.07,8.91-.22,13.37-.09-4.27,.01-8.54-.08-12.81-.32,5.3-.04,10.65-.22,15.96-.11-6.43,.04-12.87-.08-19.31-.29,4.87-.01,9.77-.32,14.63-.04-.6-.11-1.22-.13-1.82-.06,2.65-.14,5.29-.24,7.94-.06-.28-.12-.56-.18-.84-.01,.6-.07,1.19-.07,1.8-.03-.72-.05-1.44-.07-2.17-.09,.41-.17,.82-.25,1.23,0-.81-.01-1.63-.01-2.44-.07,.08-.13,.16-.19,.24-.09-1.45-.25-2.88-.47-4.28-.08,1.05-.14,2.09-.22,3.14-.03-.61-.1-1.22-.12-1.82-.04,1.95-.09,3.9-.12,5.86-.03-.12-.1-.38-.14-.5-.08,.31-.17,.61-.25,.92-.02-.5-.07-1.51-.09-2.01-.09,1.66-.15,3.32-.22,4.99-.02-1.34-.03-2.68-.04-4.02-.1,.27-.2,.54-.29,.82,0-.35-.02-1.06-.03-1.42-.09,.29-.19,.57-.28,.86-.06-.52-.15-1.05-.21-1.56-.01,.91-.03,1.82-.04,2.73-.06-.49-.12-.98-.17-1.48-.08,1.04-.13,2.09-.18,3.13-.02-2.83,0-5.68-.18-8.49-.04,2.03-.05,4.06-.17,6.08-.05-.55-.1-1.1-.15-1.65-.03,.8-.06,1.59-.09,2.4-.04-1.85-.07-3.7-.18-5.54-.05,1.42-.08,2.83-.12,4.25-.02-.55-.11-1.11-.11-1.65-.04,.61-.11,1.22-.14,1.84-.13-2.15-.11-4.32-.23-6.47-.12,2.4-.27,4.8-.35,7.21-.13-2.28-.15-4.57-.19-6.86-.04,1.11-.07,2.22-.11,3.33-.04-1.35-.07-2.71-.1-4.06-.07,2.54,.05,5.14-.26,7.63-.07-1.93-.11-3.86-.15-5.78-.1,2.66-.16,5.32-.21,7.97-.04-1.79-.06-3.58-.1-5.37-.04,1.79-.06,3.58-.09,5.37-.05-1.55-.1-3.11-.19-4.65-.16,1.09-.19,2.22-.25,3.34,0-1.97-.03-3.94-.06-5.91-.04,1.29-.08,2.58-.12,3.87-.04-.92-.08-1.83-.11-2.75-.1,1.18-.19,2.37-.28,3.55-.09-2.43-.08-4.86-.11-7.29-.04,1.67-.08,3.34-.12,5-.11-1.22-.16-2.46-.22-3.69-.01,2.47,0,4.94-.09,7.41-.2-2.39-.12-4.82-.17-7.22-.08,.79-.15,1.58-.23,2.37-.03-.6-.09-1.22-.12-1.82-.02,1.97-.04,3.94-.07,5.92-.16-2.52-.28-5.06-.32-7.59-.04,1.05-.07,2.09-.1,3.14-.04-1.05-.09-2.09-.13-3.14-.03,2.78-.01,5.57-.08,8.35-.2-2.46-.15-4.95-.23-7.43-.05,.27-.16,.82-.21,1.09-.01-1.6-.04-3.2-.06-4.8-.08,3.4-.14,6.8-.21,10.19-.08-3.77,0-7.54-.1-11.31-.05,1.86-.07,3.72-.19,5.58-.07-2.42-.07-4.84-.12-7.26-.23,3.76-.09,7.56-.2,11.33-.12-4.17,.07-8.36-.16-12.53-.17,3.3-.04,6.62-.16,9.93-.09-4.33,.05-8.68-.21-13-.11,5.14,.05,10.28-.1,15.41-.07-6.62,0-13.25-.21-19.87-.08,6.71-.01,13.43-.03,20.14h-.28c.03-5.79-.09-11.57-.17-17.35-.12,6.18,.06,12.38-.09,18.56-.24-9.31-.12-18.62-.14-27.94h-.12c-.04,9.05,.1,18.11-.07,27.16-.34-7.32,.02-14.67-.19-22.01-.14,6.23,.05,12.46-.1,18.69-.09-4.04-.17-8.09-.15-12.13h-.11c-.03,4.85,.12,9.73-.17,14.58-.03-2.5-.03-5-.09-7.5-.04,2.15-.06,4.3-.12,6.46-.2-2.54-.12-5.12-.19-7.67-.06,3.26-.07,6.52-.23,9.77-.04-2.03-.05-4.07-.09-6.1-.06,1.68-.12,3.36-.22,5.03-.05-1.51-.09-3.02-.16-4.52-.09,2.38-.1,4.78-.14,7.16-.09-.97-.17-1.94-.24-2.92-.01,2.19-.04,4.38-.18,6.57-.04-.74-.08-1.48-.12-2.23-.03,.86-.07,1.73-.09,2.6-.08-.91-.15-1.83-.23-2.74-.03,.74-.06,1.48-.09,2.22-.03-.92-.05-1.84-.07-2.76-.08,.38-.15,.76-.23,1.14-.05-.26-.1-.52-.15-.79-.02,.51-.04,1.02-.06,1.53-.03-.3-.1-.9-.14-1.2-.03,.75-.07,1.5-.09,2.25-.11-.86-.2-1.72-.31-2.58-.04,.58-.11,1.14-.14,1.73-.07-.68-.13-1.38-.18-2.07-.11,.43-.23,.86-.33,1.3-.08-1.32-.18-2.64-.3-3.95-.04,1.05-.07,2.1-.11,3.15-.15-.85-.26-1.72-.33-2.6-.02,1.1-.05,2.19-.07,3.29-.07-1.39-.13-2.78-.19-4.17-.09,.33-.18,.66-.27,.99-.12-.91-.21-1.83-.29-2.74-.02,1.62-.04,3.25-.08,4.88-.05-1.97-.08-3.94-.22-5.9-.03,1.38-.05,2.76-.07,4.15-.18-1.56-.36-3.11-.47-4.69-.06,.74-.13,1.48-.2,2.22-.03-.51-.08-1.54-.11-2.05-.03,1.74-.05,3.49-.1,5.23-.08-4.01,.01-8.03-.08-12.04-.24,3.36-.44,6.73-.44,10.12-.1-4.48,.03-8.97-.1-13.44-.06,4.31-.08,8.62-.22,12.92-.12-5.06,.05-10.13-.11-15.19-.07,4.83,.02,9.67-.21,14.49-.11-5.41,.06-10.83-.1-16.24-.13,6.4,.07,12.81-.1,19.21-.14-8.91,.07-17.82-.11-26.73-.11,7.74,.08,15.49-.21,23.23-.03-2.5-.03-5.01-.1-7.51-.1,4.07,.04,8.15-.1,12.23-.2-3.02-.09-6.06-.3-9.07-.04,1.5-.06,3.01-.08,4.52-.04-.3-.12-.89-.16-1.19-.03,1.04-.05,2.08-.07,3.12-.05-.69-.09-1.39-.14-2.08-.03,2.96-.02,5.94-.2,8.89-.11-1.27-.16-2.54-.2-3.82-.06,.99-.11,1.98-.18,2.97-.1-.98-.18-1.98-.27-2.96-.11,1.38-.14,2.78-.2,4.17-.14-1.79-.15-3.6-.2-5.41-.13,1.94-.17,3.89-.27,5.83-.09-2.02-.1-4.06-.2-6.08-.11,1.82-.12,3.65-.27,5.46-.04-1.71-.04-3.42-.04-5.13-.04,0-.13,0-.18,.01-.02,1.55-.06,3.1-.13,4.65-.14-1.8-.12-3.63-.17-5.43-.11,1.62-.16,3.26-.23,4.89-.19-1.96-.25-3.95-.28-5.93-.04,2.38-.05,4.76-.09,7.14-.09-1.57-.17-3.14-.27-4.71-.09,1.28-.16,2.56-.26,3.83-.13-1.91-.18-3.82-.23-5.74-.03,1.93-.05,3.86-.12,5.78-.15-1.44-.21-2.9-.29-4.35-.05,1.28-.12,2.55-.21,3.82-.23-1.96-.14-3.97-.21-5.96-.08,1.86-.17,3.72-.31,5.57-.04-1.8-.07-3.59-.1-5.39-.08,1.58-.16,3.16-.3,4.72-.07-2.16-.09-4.32-.12-6.47-.11,1.91-.19,3.83-.3,5.75-.08-1.15-.16-2.31-.23-3.46-.06,1.55-.13,3.11-.23,4.66-.03-1.98-.05-3.95-.11-5.92-.09,1.59-.15,3.19-.24,4.78-.21-1.56-.21-3.17-.26-4.76-.06,1.44-.12,2.88-.21,4.32-.04-1.1-.09-2.2-.13-3.3-.25,1.48-.25,3.03-.32,4.55-.14-2.85-.11-5.71-.17-8.56-.15,2.49-.16,5-.22,7.51-.12-1.57-.19-3.14-.3-4.71-.08,1.27-.14,2.54-.23,3.81-.03-.97-.05-1.95-.08-2.92-.03,.47-.09,1.41-.13,1.88-.1-1.09-.2-2.18-.31-3.27-.04,1.33-.08,2.65-.11,3.98-.04-1.16-.07-2.32-.11-3.48-.05,1.39-.07,2.79-.11,4.18-.03-1.98-.04-3.95-.09-5.92-.04,1.51-.08,3.02-.1,4.52-.13-2.33-.35-4.63-.45-6.97-.03,2.91-.06,5.81-.19,8.71-.08-3.07,.06-6.17-.21-9.22-.05,1.74-.06,3.48-.11,5.22-.27-3.08,.1-6.28-.39-9.31-.1,2.63-.05,5.27-.11,7.9-.09-2.27-.16-4.54-.22-6.8-.04,2.68,0,5.37-.17,8.03-.08-3.79-.13-7.58-.36-11.35-.06,3.66,.03,7.33-.1,10.99-.08-1.28-.11-2.58-.14-3.87-.07,.08-.14,.16-.21,.25-.18-4.96-.34-9.92-.37-14.89-.1,4.94,.01,9.89-.06,14.84-.04-.3-.12-.89-.16-1.18-.04,1.15-.07,2.31-.11,3.46-.23-2.6-.09-5.24-.18-7.85-.07,2.38-.14,4.77-.22,7.15-.04-1.45-.06-2.9-.1-4.35-.12,2.51-.16,5.03-.13,7.55-.07-.09-.15-.18-.22-.27-.04,1.12-.09,2.25-.15,3.37-.07-1.39-.11-2.79-.21-4.18-.07,2.21-.19,4.41-.43,6.58-.09-1.49-.2-2.98-.32-4.46-.07,1.44-.16,2.88-.28,4.32-.12-.78-.21-1.58-.3-2.37-.06,.18-.11,.36-.16,.54-.1-.85-.18-1.7-.3-2.54-.04,1.11-.08,2.21-.12,3.32-.03-1.39-.06-2.78-.09-4.17-.09,.92-.16,1.84-.22,2.76-.08-.61-.16-1.24-.23-1.85-.02,.8-.05,1.59-.07,2.39-.05-.81-.1-1.63-.15-2.44-.07,.8-.13,1.6-.19,2.41-.03-1.27-.06-2.55-.1-3.82-.09,.88-.15,1.76-.22,2.64-.49-1.56-.31-3.38-.38-5.06-.02,.52-.1,1.02-.1,1.55-.03-.3-.1-.89-.13-1.19-.04,1.04-.07,2.08-.1,3.12-.03-2.11-.02-4.22-.01-6.33-.08,.09-.16,.18-.24,.27l-.07-1.09c-.08,.86-.14,1.72-.2,2.59-.01-2.56-.03-5.13-.31-7.65-.05,3.25,0,6.51-.1,9.76-.07-4.78-.01-9.57-.24-14.34-.21,4.59-.09,9.22-.28,13.82-.08-.95-.15-1.91-.14-2.88-.05-5.56,.09-11.13-.07-16.68-.09,6.17-.02,12.36-.31,18.52-.13-8.62,.08-17.24-.1-25.85-.12,8.32,.08,16.65-.19,24.96-.04-1.51-.09-3.02-.13-4.52-.03,2.33-.03,4.65-.09,6.98-.12-5.41,.05-10.83-.1-16.24-.05,2.75-.03,5.49-.13,8.24-.43-2.8-.15-5.74-.29-8.59-.11,4.31,.04,8.62-.11,12.92-.05-2.62-.03-5.24-.09-7.85-.06,2.73-.13,5.46-.21,8.19-.09-3.83,0-7.67-.09-11.5-.26,5.23-.09,10.47-.23,15.71-.06-2.73-.11-5.46-.21-8.19-.18,2.28-.38,4.58-.36,6.89,.01,2.95-.2,5.87-.34,8.8-.11-.75-.22-1.5-.33-2.25-.03,.58-.08,1.15-.09,1.73-.11-.55-.22-1.09-.32-1.64-.08,.43-.16,.86-.25,1.28-.1-1.33-.16-2.66-.25-3.99-.05,1.54-.1,3.07-.17,4.61-.25-1.5-.23-3.06-.28-4.6-.05,1.75-.11,3.49-.21,5.23-.24-2.9-.04-5.84-.29-8.74-.1,2.91-.04,5.83-.11,8.75-.12-1.68-.18-3.38-.3-5.06-.11,1.21-.19,2.42-.24,3.64-.08-2.32-.15-4.65-.28-6.97-.07,2.38-.08,4.76-.12,7.14-.13-2.23-.07-4.51-.39-6.69-.09,1.99-.09,3.99-.12,5.99-.46-2.9-.2-5.94-.33-8.89-.06,3.04,0,6.08-.13,9.12-.48-3.99,0-8.09-.37-12.1-.15,4.07,.01,8.16-.11,12.23-.28-4-.24-8.03-.33-12.05-.09,4.07,.02,8.15-.08,12.22-.42-3.97-.3-8.03-.43-12.04-.11,3.57,.04,7.15-.16,10.72-.4-3.66-.1-7.39-.27-11.07-.06,3.96-.11,7.91-.2,11.87-.25-4-.25-8.03-.33-12.04-.09,4.36,.01,8.72-.06,13.08-.5-5.08-.18-10.24-.34-15.35-.2,4.88-.13,9.77-.2,14.66-.03-.69-.08-2.07-.1-2.76-.06,.39-.11,.78-.17,1.17-.04-4.41,.06-8.83-.07-13.24-.11,5.47,.04,10.95-.09,16.42-.2-5.18-.27-10.37-.34-15.56-.35,3.81,.07,7.71-.3,11.52-.22-3.59-.08-7.2-.21-10.8-.09,4.01,.02,8.03-.09,12.05-.05-2.74-.07-5.5-.43-8.19-.04,1.97-.05,3.94-.07,5.9-.16-2.67-.31-5.34-.35-8.01-.03,1.69-.04,3.37-.07,5.06-.08-.45-.19-.93-.25-1.37-.02,.57-.07,1.14-.08,1.71-.03-.51-.11-1.04-.13-1.55-.03,1.86-.04,3.71-.09,5.57-.06-3.08-.03-6.16-.05-9.23-.06,.38-.12,.77-.18,1.15-.02-.51-.07-1.53-.09-2.04-.06,2.09-.11,4.19-.21,6.28-.01-1.29-.01-2.59-.02-3.88-.08,.09-.15,.19-.23,.28-.02-.32-.05-.95-.06-1.27-.04,.87-.09,1.74-.13,2.61-.15-1.44-.22-2.91-.3-4.36-.08,1.39-.13,2.77-.19,4.16-.07-1.34-.12-2.68-.24-4.02-.08,1.62-.14,3.25-.18,4.89-.04-2.09-.05-4.18-.09-6.27-.04,.99-.08,1.97-.12,2.96-.02-.51-.07-1.04-.07-1.54-.05,.27-.11,.55-.16,.82-.28-4.05-.21-8.13-.3-12.2-.07,4.13,0,8.27-.2,12.4-.04-1.86-.06-3.72-.11-5.58-.03,2.27-.04,4.54-.11,6.81-.16-2.44-.14-4.89-.2-7.33-.11,4.54,.09,9.1-.22,13.62-.02-1.44-.02-2.88-.02-4.32-.07,.2-.14,.39-.21,.59-.03-.29-.08-.86-.1-1.14,0,1.79,0,3.57-.01,5.35-.05-.24-.16-.72-.21-.96,0,.79,0,1.57,.01,2.36-.07-.2-.14-.41-.21-.61-.01,.26-.03,.51-.04,.77-.03-.18-.06-.35-.09-.53-.2,.4-.39,.81-.6,1.18-.1-.95-.14-1.92-.2-2.88-.18,1.32-.26,2.67-.39,4.01-.04-1.56-.06-3.13-.08-4.69-.09,1.17-.13,2.37-.29,3.52-.15-1.1-.27-2.2-.38-3.31-.05,1.38-.08,2.75-.17,4.13-.03-1.14-.07-2.27-.1-3.41-.1-.17-.21-.35-.31-.52-.06,.84-.1,1.67-.15,2.51-.03-.97-.05-1.95-.08-2.92-.04,.7-.11,2.09-.15,2.78-.13-1.74-.14-3.5-.27-5.24-.05,1.98-.06,3.96-.1,5.93-.64-2.66-.27-5.61-.44-8.39-.05,2.04-.05,4.07-.09,6.11-.04-1.34-.08-2.67-.12-4.01-.03,1.68-.05,3.37-.09,5.05-.03-1.51-.08-3.02-.11-4.53-.09,.86-.16,1.71-.23,2.57-.04-2.08-.1-4.16-.19-6.24-.03,1.87-.06,3.75-.15,5.62-.2-3.2-.04-6.43-.16-9.64-.05,2.62-.03,5.24-.1,7.85-.04-1.45-.06-2.9-.08-4.35-.06,1.01-.12,2.02-.18,3.03-.2-3.92,0-7.85-.14-11.77-.15,1.96-.17,3.94-.19,5.92-.07-.58-.14-1.16-.21-1.73-.04,1.22-.09,2.44-.13,3.67-.09-1.74-.14-3.49-.2-5.23-.04,.98-.09,1.97-.13,2.95-.05-3.17-.02-6.34-.02-9.51h-.11s.08,14.05-.06,20.74c-.08-3.58-.16-7.16-.14-10.74,0-2.75,.04-5.51-.17-8.24-.06,1.88-.1,3.76-.2,5.64-.04-.81-.09-1.62-.13-2.43-.27,6.08,.04,12.19-.27,18.26-.06-1.77-.09-3.55-.12-5.32-.04,.57-.11,1.11-.14,1.69-.03-1.26-.06-2.52-.08-3.78-.03,3.56-.32,7.08-.43,10.63-.01-.55-.03-1.1-.04-1.65-.09,0-.18-.02-.28-.03-.07,.68-.13,1.37-.2,2.05-.05-1.89-.08-3.78-.21-5.66-.05,1.76-.08,3.53-.19,5.29-.11-1.38-.18-2.77-.24-4.16-.03,1.27-.06,2.54-.1,3.81-.13-.73-.24-1.48-.33-2.23-.05,.64-.13,1.26-.18,1.91-.17-1.58-.17-3.21-.23-4.82-.03,1.91-.06,3.82-.19,5.72-.22-1.82-.16-3.7-.24-5.55-.14,1.49-.12,3.01-.15,4.51-.11-.49-.22-.98-.34-1.46-.04,.38-.11,1.13-.14,1.51-.07-1.51-.13-3.03-.2-4.54-.05,1.58-.09,3.16-.17,4.73-.1-1.39-.18-2.77-.27-4.16-.14,1.75-.21,3.52-.31,5.28-.03-1.88-.07-3.76-.18-5.63-.08,1.34-.07,2.72-.32,4-.04-1.09-.08-2.17-.11-3.26-.07,1.14-.13,2.28-.22,3.41-.11-1.32-.16-2.64-.2-3.97-.08,.95-.16,1.9-.26,2.85-.08-.95-.13-1.9-.18-2.85-.03,1.2-.06,2.39-.09,3.59-.16-1.76-.27-3.53-.31-5.31-.05,1.38-.09,2.75-.16,4.13-.09-.67-.17-1.34-.26-2.01-.07,.61-.15,1.22-.21,1.83-.07-1.06-.14-2.11-.21-3.17-.03,.56-.06,1.12-.09,1.68-.13-.63-.25-1.26-.37-1.89-.29,1.31-.2,2.76-.25,4.14-.07-.68-.14-1.36-.22-2.04-.04,.81-.08,1.61-.11,2.43-.14-2.14-.16-4.3-.2-6.45-.06,1.51-.11,3.02-.2,4.52-.02-.56-.07-1.67-.09-2.22-.05,.42-.11,.84-.15,1.26-.03-1.38-.06-2.76-.1-4.13-.12,2.01-.14,4.04-.18,6.07-.06-1.26-.11-2.52-.17-3.77-.09,.61-.18,1.24-.27,1.85-.11-1.15-.14-2.32-.18-3.49-.04,0-.11,0-.15,0-.02,1.36-.05,2.71-.08,4.07-.05-1.96-.06-3.92-.2-5.86-.09,2.46-.15,4.92-.21,7.39-.19-3.16-.13-6.33-.2-9.5-.05,2.04-.05,4.09-.21,6.11-.25-2.71-.16-5.48-.33-8.21-.05,3.36-.01,6.72-.09,10.07-.05-2.72-.09-5.45-.2-8.17-.07,1.58-.13,3.17-.31,4.73-.05-1.2-.09-2.4-.13-3.6-.03,1.77-.06,3.54-.1,5.31-.04-1.58-.07-3.16-.11-4.74-.03,2.09-.05,4.18-.09,6.27-.08-4.72-.18-9.44-.15-14.16h-.11c0,4.15,.06,8.3-.06,12.45-.12-1.76-.15-3.54-.2-5.31-.04,1.08-.09,2.16-.13,3.24-.31-1.98-.24-4.06-.29-6.09-.03,1.64-.07,3.29-.1,4.93-.04-1.07-.09-2.15-.13-3.22-.03,2.66-.04,5.32-.09,7.97-.05-2.03-.06-4.06-.19-6.07-.06,1.83-.08,3.67-.12,5.5-.04-2.99-.04-5.99-.29-8.95-.4,2.28-.26,4.69-.34,7.04-.04-1.95-.06-3.9-.14-5.85-.04,.25-.09,.5-.13,.76-.07-.09-.13-.19-.2-.28-.01,1.35-.02,2.7-.04,4.05-.07-1.2-.12-2.41-.2-3.61-.04,1.33-.08,2.65-.12,3.98-.06-1.15-.11-2.29-.17-3.44-.09,1.58-.11,3.18-.16,4.77-.03-1.2-.06-2.4-.09-3.59-.14,2.41-.04,5-.7,7.19-.11-.77-.21-1.54-.33-2.3-.05,1.34-.09,2.68-.13,4.03-.05-1.7-.08-3.41-.21-5.1-.03,.94-.05,1.87-.07,2.81-.1-.22-.2-.43-.29-.65-.02,1.11-.04,2.21-.06,3.32-.04-1.9-.06-3.8-.1-5.69-.04,1.2-.06,2.4-.09,3.6-.04-.56-.1-1.14-.12-1.69-.03,.75-.06,1.5-.09,2.26-.25-1.73-.28-3.52-.33-5.3-.07,1.77-.12,3.54-.18,5.31-.05-.5-.09-1.01-.13-1.51-.02,.56-.07,1.1-.08,1.67-.08-1.41-.11-2.82-.21-4.22-.08,.45-.16,.9-.24,1.34-.2-2.88-.21-5.78-.38-8.66-.04,1.06-.09,2.13-.13,3.2-.14-2.75-.14-7.27-.14-7.27h-.48c0,2.33,.01,4.68-.14,7-.06-1.44-.08-2.88-.12-4.32-.03,1.95-.03,3.9-.07,5.85-.17-3.38-.11-6.78-.22-10.16-.15,2.17-.12,4.37-.18,6.55-.04-2.7-.03-5.4-.08-8.09-.1,2.52-.16,5.04-.2,7.56-.1-4.08,.01-8.15-.09-12.23-.04,1.03-.08,2.06-.11,3.09-.03-1.38-.05-2.75-.09-4.13-.16,4.25-.1,8.5-.19,12.76-.08-2.7-.13-5.39-.18-8.09-.04,1.77-.07,3.55-.1,5.33-.04-1.55-.06-3.1-.09-4.64-.05,1.49-.08,2.99-.17,4.48-.14-1.01-.18-2.06-.24-3.09-.03,3.96,.02,7.92-.04,11.88-.05-.68-.09-1.37-.13-2.05-.05,1.89-.1,3.77-.16,5.66-.06-.49-.12-.98-.19-1.47-.13,.71-.26,1.41-.39,2.11-.06,.57-.14,1.14-.2,1.71-.06-.37-.13-.74-.19-1.11-.07,1.07-.12,2.14-.19,3.21-.03-1.25-.05-2.5-.08-3.75-.08,1.19-.14,2.39-.2,3.58-.03-.96-.06-1.92-.09-2.88-.08,.79-.15,1.58-.21,2.37-.02-1.2-.03-2.39-.05-3.59-.07,.85-.13,1.71-.2,2.56-.04-.8-.07-1.59-.1-2.39-.06,.8-.12,1.6-.18,2.4-.03-.69-.1-2.07-.13-2.76-.1,1.49-.13,2.99-.19,4.48-.02-2.25-.02-4.49-.1-6.74-.09,1.38-.12,2.76-.17,4.14-.04-1.61-.06-3.22-.15-4.82-.04,1.49-.09,2.98-.12,4.47-.03-2.07-.05-4.15-.13-6.22-.17,2.12-.1,4.27-.16,6.4-.04-1.78-.06-3.57-.19-5.34-.04,1.44-.07,2.87-.1,4.31-.06-1.95-.11-3.9-.19-5.85-.03,1.03-.06,2.05-.1,3.08-.08-1.01-.14-2.03-.2-3.05-.04,.8-.08,1.59-.11,2.38-.08-.91-.12-1.83-.18-2.74-.03,1.43-.05,2.86-.08,4.29-.12-1.94-.14-3.9-.19-5.86-.03,1.96-.04,3.92-.11,5.87-.15-2.26-.12-4.55-.12-6.82h-.96c0,1.82-.03,3.63-.08,5.45-.11-1.27-.12-2.56-.17-3.84h-.05c-.01,1.51-.03,3.03-.06,4.55-.09-1.36-.16-2.73-.21-4.09-.04,1.31-.07,2.62-.11,3.92-.14-2.13-.13-4.28-.18-6.42-.03,1.72-.05,3.44-.09,5.17-.07-1.71-.13-3.43-.18-5.15-.05,1.3-.12,2.6-.2,3.9-.04-.53-.09-1.08-.13-1.59-.05,1.41-.09,2.83-.16,4.25-.05-1.24-.09-2.48-.14-3.72-.02,2.68,.02,5.36-.16,8.02-.08-2.91-.04-5.83-.12-8.74-.07,3.51,.05,7.02-.16,10.52-.14-3.92,0-7.85-.13-11.77-.05,3.68-.03,7.37-.21,11.05-.08-4.16,.04-8.32-.09-12.48-.07,3.86,.03,7.74-.2,11.59-.05-3.15-.01-6.31-.09-9.45-.12,2.97-.14,5.94-.2,8.92-.07-3.74,.01-7.49-.09-11.23-.08,4.1-.1,8.2-.2,12.3-.06-3.51,0-7.02-.09-10.52-.13,2.25-.15,4.51-.21,6.77-.04-3.21,0-6.42-.08-9.62-.16,3.89-.16,7.78-.14,11.67h-.11c-.01-3.83,.09-7.68-.11-11.5-.05,1.25-.1,2.49-.15,3.74-.03-2.08-.03-4.17-.1-6.25-.33,4.61,.02,9.29-.18,13.92-.07-3.74-.1-7.49-.2-11.23-.06,3.39,0,6.77-.09,10.16-.06-2.97,0-5.95-.2-8.9-.05,2.73-.04,5.46-.09,8.19-.28-4.86-.05-9.75-.2-14.62-.11,4.58,.02,9.16-.09,13.73-.27-4.8-.06-9.63-.2-14.44-.13,6.06,.05,12.13-.11,18.19-.05-7.73-.09-15.46-.19-23.19-.18,6.71,.18,13.46-.18,20.15-.11-3.8,0-7.61-.11-11.41-.06,3.14-.02,6.29-.08,9.44-.26-2.95-.12-5.94-.21-8.9-.1,3.98,.06,7.97-.19,11.94-.14-7.48,.06-14.98-.11-22.46-.1,4.72,.04,9.44-.08,14.16-.1,3.78,0,7.56-.11,11.34-.14-7.55,.05-15.1-.1-22.65-.1,7.01-.11,14.03-.2,21.04-.11-5.82,.04-11.65-.09-17.48-.17,4.63-.11,9.27-.2,13.91-.06-3.09-.02-6.18-.1-9.27-.2,3.13-.13,6.29-.14,9.44-.06-.27-.12-.54-.17-.81-.08,1.46-.13,2.93-.17,4.39-.36-1.44-.36-3.05-.39-4.61-.06,.94-.11,1.88-.19,2.81-.04-.58-.09-1.18-.13-1.76-.07,1.36-.13,2.72-.19,4.09-.08-1.29-.13-2.59-.16-3.89-.01,.22-.04,.66-.06,.88-.06-.08-.13-.16-.19-.24-.07,1.02-.15,2.04-.24,3.06-.11-2.38-.28-4.74-.42-7.12-.11,2.02-.13,4.09-.46,6.04-.08-.95-.16-1.9-.24-2.84-.12,1.24-.2,2.48-.3,3.73-.1-2.01-.12-4.02-.16-6.03-.04,.59-.09,1.17-.13,1.76-.03-2.43,.01-4.87-.19-7.27-.03,2-.03,4.01-.05,6.01-.08-.52-.15-1.05-.23-1.57-.03,1-.05,2.01-.08,3.01-.03-.31-.09-.94-.12-1.25-.08,.41-.15,.82-.22,1.24-.02-1.18-.05-2.36-.06-3.54-.04,1.24-.07,2.48-.11,3.73-.03-1.6-.06-3.2-.09-4.8-.04,.83-.08,1.65-.11,2.48-.03-1.3-.05-2.6-.07-3.89-.07,1.35-.12,2.7-.19,4.06-.08-1.11-.15-2.22-.24-3.32-.02,1.77-.04,3.54-.07,5.31-.04-1.9-.06-3.8-.09-5.7-.04,.53-.09,1.05-.12,1.59-.06-1.12-.11-2.25-.18-3.37-.07,1.85-.11,3.7-.33,5.52-.24-1.56-.22-3.19-.26-4.79-.03,.48-.1,1.45-.13,1.93-.06-4.27,.05-8.55-.09-12.83-.09,4.16,.02,8.32-.08,12.48-.05-.83-.09-1.66-.13-2.48-.03,2.88-.02,5.76-.01,8.64h-.6s.04-8.28-.03-12.43c-.08,2.34-.15,4.68-.24,7.02-.09-2.85-.14-5.7-.21-8.55-.05,3.33-.04,6.66-.03,9.99h-.1c0-2.26-.02-4.51-.08-6.75-.06,5.2-.01,10.4-.18,15.59-.03-.33-.11-.98-.14-1.3-.1,1.26-.19,2.51-.28,3.77-.07-1.07-.14-2.14-.21-3.21-.08,.94-.16,1.88-.23,2.82-.1-1.37-.21-2.75-.32-4.12-.04,1.13-.08,2.26-.13,3.39-.1-1.07-.18-2.15-.27-3.22-.05,1.2-.09,2.39-.14,3.59-.08-.95-.15-1.91-.21-2.86-.09,.82-.17,1.64-.27,2.45-.09-1.18-.16-2.36-.23-3.55-.05,1.38-.1,2.76-.17,4.13-.06-1.41-.11-2.82-.18-4.23-.09,1.27-.14,2.55-.23,3.82-.09-.95-.16-1.91-.28-2.85-.05,.58-.15,1.73-.2,2.32-.09-1.38-.15-2.77-.2-4.16-.08,1.83-.15,3.66-.23,5.49-.18-2.38-.12-4.8-.28-7.18-.06,1.95-.1,3.91-.21,5.86-.06-1.16-.11-2.33-.18-3.49-.06,1.15-.1,2.31-.14,3.47-.08-1.01-.14-2.03-.23-3.03-.09,.95-.16,1.9-.25,2.85-.11-1.7-.11-3.42-.18-5.13-.09,1.84-.16,3.68-.26,5.51-.09-1.96-.17-3.92-.23-5.88-.06,1.26-.12,2.53-.19,3.8-.09-.8-.18-1.61-.24-2.43-.09,1-.2,1.99-.3,2.99-.02-.52-.07-1.56-.1-2.08-.06,.76-.12,1.53-.18,2.3-.18-2.14-.21-4.31-.25-6.47-.08,2.01-.15,4.03-.21,6.05-.08-1.64-.16-3.28-.24-4.92-.15,1.75-.19,3.52-.3,5.29-.03-2.84-.14-5.68-.31-8.5-.02,2.28-.04,4.56-.1,6.84-.19-2.07-.14-4.19-.21-6.28-.03,2.21-.04,4.42-.07,6.63-.13-1.89-.21-3.79-.33-5.68-.09,1.38-.15,2.77-.21,4.15-.04-2.27-.11-4.53-.21-6.79-.04,2.96-.03,5.93-.07,8.9-.09-1.84-.18-3.67-.35-5.49-.13,2.01-.16,4.04-.2,6.06-.05-3.42-.11-6.84-.21-10.26-.05,3.29-.03,6.58-.08,9.87-.31-4.21,0-8.51-.46-12.69-.02,2.65-.03,5.3-.09,7.95-.07-3.8-.12-7.6-.21-11.4-.06,3.23-.04,6.46-.1,9.68-.19-3.41-.28-6.83-.33-10.26-.04,2.65-.03,5.33-.32,7.95-.08-4.23,.03-8.47-.1-12.71-.11,4.75,.04,9.51-.1,14.26-.1-2.85-.1-5.71-.3-8.55-.05,2.48-.05,4.97-.15,7.45-.43-4.86-.08-9.8-.28-14.69-.12,4.61,.11,9.25-.2,13.85-.03-1.06-.06-2.13-.09-3.19-.03,.75-.07,1.5-.1,2.26-.03-.51-.09-1.54-.12-2.06-.04,.63-.08,1.24-.11,1.87-.04-1.14-.07-2.27-.11-3.41-.03,2.4-.04,4.81-.08,7.22-.06-2.09-.12-4.18-.23-6.26-.04,2.28-.04,4.55-.07,6.83-.09-.43-.19-.85-.28-1.28,0,.8,0,1.6-.01,2.4-.05-.26-.15-.79-.19-1.05-.02,1.18-.05,2.37-.07,3.55-.03-2.34-.05-4.69-.1-7.03-.07,3.43,.05,6.88-.18,10.3-.07-.28-.2-.84-.27-1.12-.01,.36-.03,1.09-.04,1.46-.07-1.13-.13-2.26-.22-3.39-.05,.94-.08,1.88-.12,2.82-.06-.74-.12-1.49-.17-2.23-.05,.29-.11,.59-.16,.88-.06-1.5-.09-3-.19-4.49-.05,1.14-.1,2.27-.16,3.41-.08-1.27-.12-2.54-.17-3.81-.02,1.77-.04,3.53-.07,5.3-.04-1.32-.08-2.65-.12-3.97-.04,.82-.08,1.64-.11,2.46-.02-.55-.04-1.12-.05-1.66-.12,.62-.24,1.25-.37,1.87-.03-2.1-.05-4.2-.08-6.29-.12,2.08-.18,4.18-.22,6.27-.12-1.88-.15-3.77-.17-5.66-.04,.26-.12,.79-.16,1.06-.04-1.63-.06-3.27-.18-4.89-.06,2.15-.07,4.29-.1,6.44-.09-1.63-.16-3.26-.24-4.89-.03,1.38-.05,2.75-.08,4.13-.03-1.64-.08-3.28-.11-4.92-.04,1.71-.07,3.41-.12,5.12-.04-2.47-.04-4.94-.09-7.41-.02,.84-.02,1.69-.03,2.53-.08-.11-.15-.22-.23-.33-.02,1.1-.04,2.2-.06,3.3-.04-1.9-.06-3.8-.1-5.7-.04,2.09-.06,4.18-.11,6.27-.03-2.09-.05-4.18-.1-6.26-.03,1.61-.05,3.23-.06,4.84h-.08c-.02-1.62-.04-3.24-.08-4.85-.03,1.77-.07,3.54-.1,5.31-.03-1.61-.05-3.23-.06-4.84h-.08c-.02,1.62-.04,3.24-.08,4.85-.04-1.77-.05-3.54-.08-5.31-.09,1.46-.14,2.93-.31,4.36-.06-1.97-.1-3.93-.13-5.9-.04,2.03-.06,4.05-.1,6.08-.04-1.77-.06-3.54-.11-5.32-.04,1.77-.05,3.55-.08,5.32-.04-.49-.07-.99-.1-1.48-.02,.22-.04,.44-.07,.66-.14,.03-.28,.07-.43,.1,0,1.31-.02,2.62-.03,3.94-.09-.99-.17-1.99-.24-2.99-.03,1.06-.06,2.12-.1,3.18-.03-1.83-.04-3.66-.08-5.49-.16,2.77-.18,5.56-.21,8.35-.05-1.4-.1-2.8-.16-4.19-.08,1.2-.13,2.41-.19,3.61-.03-2.66-.04-5.32-.2-7.97-.03,2.73-.03,5.45-.1,8.18-.05-3.04-.03-6.08-.1-9.12-.31,3.52-.06,7.1-.19,10.65-.05-.82-.1-1.65-.15-2.46-.07,1.51-.13,3.02-.18,4.54-.04-2.91-.07-5.83-.2-8.74-.05,1.14-.09,2.27-.13,3.41-.06-4.12,.03-8.24-.09-12.35-.05,4.89-.07,9.79-.22,14.67-.14-.74-.25-1.5-.36-2.25,.01,1,.03,2,.04,3.01-.11-.1-.22-.19-.32-.29-.05,.66-.09,1.31-.14,1.97l-.18-1.11c-.08,.8-.14,1.61-.2,2.42-.06-1.32-.11-2.64-.19-3.95-.03,.76-.09,2.26-.11,3.02-.06-1.83-.11-3.66-.21-5.47-.04,1.51-.06,3.02-.1,4.52-.04-1.46-.07-2.92-.11-4.38-.23,1.36-.43,2.74-.64,4.12-.08-.27-.15-.53-.23-.8-.01,.27-.03,.54-.04,.81-.1-1-.2-1.99-.32-2.98-.05,.64-.1,1.26-.14,1.9-.03-.88-.05-1.76-.07-2.64-.02,.32-.07,.97-.1,1.29-.1-.69-.2-1.38-.3-2.06-.04,.52-.11,1.56-.14,2.08-.03-.52-.09-1.56-.12-2.08-.08,1-.13,2.01-.19,3.02-.06-.81-.13-1.63-.2-2.44-.03,.76-.1,2.27-.13,3.02-.03-1.26-.04-2.51-.07-3.77-.1,1.95-.24,3.9-.34,5.86-.06-1.32-.11-2.64-.19-3.96-.05,1.19-.08,2.39-.12,3.58-.06-1.52-.1-3.04-.19-4.56-.05,1.46-.08,2.91-.13,4.37-.04-1.97-.06-3.93-.15-5.89-.06,1.33-.11,2.66-.16,3.99-.05-1.89-.07-3.79-.21-5.66-.04,2.01-.06,4.02-.09,6.03-.09-2.08-.17-4.16-.23-6.25-.03,2.59-.04,5.19-.09,7.78-.18-3.03-.14-6.08-.22-9.12-.05,2.5-.04,8.01-.04,8.01h-.21s0-5.64-.07-8.2c-.06,3.16,.03,6.34-.21,9.48-.06-3.29-.02-6.57-.11-9.86-.06,3.17-.02,6.34-.09,9.5-.21-4.05-.11-8.11-.21-12.17-.06,4.06-.07,8.12-.23,12.16-.04-3.17,0-6.34-.09-9.5-.05,2.44-.04,8.58-.04,8.58h-.19c0-3.78,.04-7.57-.06-11.35-.06,3.62,0,7.24-.13,10.86-.16-2.1-.15-4.24-.2-6.35-.03,2.26-.06,4.52-.18,6.76-.16-4.13-.09-8.26-.09-12.4h-.13c0,3.1,.02,6.21-.04,9.31-.26-3.61-.1-7.26-.21-10.88-.06,3.01-.03,6.04-.22,9.04-.08-4.24,.03-8.49-.09-12.73-.06,4.24-.08,8.49-.21,12.73-.04-3.01-.02-6.03-.09-9.04-.12,2.52-.15,5.04-.21,7.57-.04-2.64-.04-5.28-.07-7.91-.09,1.96-.17,3.91-.24,5.87-.04-3.1-.04-6.2-.03-9.31h-.11c0,2.91,.08,5.85-.17,8.74-.07-3.68,.01-7.36-.07-11.04-.16,2.82-.16,5.65-.22,8.48-.05-3.26-.02-6.52-.09-9.78-.17,4.76-.16,9.53-.15,14.3h-.15s.16-9.42-.16-13.98c-.11,4.87,.04,9.75-.11,14.61-.04-2.79-.01-5.59-.19-8.37-.12,3.93-.01,7.87-.12,11.8-.13-5.51,.04-11.03-.1-16.54-.33,4.8-.04,9.64-.22,14.45-.05-3.04,0-6.1-.18-9.13-.18,4.88,.02,9.77-.14,14.65-.15-6.94,.12-13.89-.14-20.83-.09,1.39-.11,2.79-.12,4.18,.03,6.34,.02,18.07,.02,18.07h-.11s.11-9.27-.16-14.36c-.05,2.98-.07,5.96-.21,8.93-.04-1.52-.06-3.04-.11-4.55-.14,3.6,.21,7.32-.3,10.84-.04-1.46-.07-2.92-.1-4.38-.02,.75-.04,1.5-.07,2.25-.06-.29-.13-.59-.19-.88,0,.61,0,1.21,0,1.83-.07-.22-.14-.45-.2-.67-.03,.38-.1,1.13-.13,1.51-.06-.56-.11-1.14-.15-1.69-.1,.61-.19,1.22-.29,1.84-.18-.13-.35-.25-.53-.37-.15,.57-.3,1.12-.46,1.67-.11-.73-.21-1.46-.32-2.2-.04-.02-.12-.05-.16-.07-.33,.67-.69,1.3-.93,2.11-.09,.02-.24,.05-.37,.08,0,.07,.03-.1,.03-.1h.41c.03,.53,.08,1.58,.11,2.1,.23-.65,.38-1.37,.53-2.09,.15,.67,.3,1.33,.46,1.99,.07-.28,.21-.83,.28-1.1,.06,.68,.12,1.36,.18,2.05,.06-.29,.12-.59,.18-.88,.02,.33,.05,.98,.07,1.3,.06-.65,.12-1.31,.19-1.96,.15-.37,.29-.79,.42-1.18,.1,.74,.18,1.54,.52,2.03,.03,.26,.08,.78,.1,1.03,.07-.21,.13-.42,.2-.63,.02,1.21,.03,2.41,.05,3.61,.04-1.09,.07-2.19,.11-3.28,.03,.76,.06,1.53,.09,2.3,.04-.52,.11-1.57,.15-2.09,.02,1.9,.02,3.79,.02,5.69h.05c0-2.26,.02-4.52,.06-6.77,.2,4.84,.07,9.71,.26,14.55,.18-3.19,.07-6.4,.16-9.59,.08,3.44-.05,6.89,.19,10.31,.15-4.39-.01-8.79,.13-13.18,.13,4.97-.07,9.95,.14,14.92,.3-4.83-.02-9.7,.18-14.54,.12,7.63-.05,15.27,.09,22.9,.41-7.29-.02-14.64,.22-21.95,.2,6.73-.2,13.5,.22,20.21,.1-6.29-.06-12.58,.09-18.87,.11,4.92-.03,9.86,.09,14.78,.09,3.73,.02,7.46,.12,11.19,.14-8.85-.08-17.7,.11-26.54,.1,4.41-.03,8.84,.08,13.25,.1,4.04,0,8.09,.12,12.14,.15-7.76-.06-15.53,.11-23.29,.21,8.01,.08,16.03,.2,24.05,.13-7.44-.04-14.88,.09-22.32,.39,5.89,0,11.84,.23,17.74,.12-6.68-.05-13.36,.09-20.04,.32,8.58,.04,17.18,.22,25.77,.15-8.09-.07-16.18,.12-24.26,.35,4.62,0,9.31,.2,13.95,.11-4.58-.03-9.18,.11-13.76,.17,1.48,.15,3,.16,4.5,0,3.85-.06,7.7,.05,11.55,.14-4.92-.09-9.86,.15-14.78,.09,.97,.12,1.95,.18,2.93,.03-1.2,.07-2.41,.11-3.61,.18,3.14,.13,6.3,.13,9.45h.1s.07-9.72,.18-14.63c.04,2.53,.04,5.07,.1,7.6,.03-2.28,.03-4.57,.18-6.85,.12,3.68,.02,7.36,.14,11.04,.07-3.48,0-6.97,.09-10.45,.06,2.02,.07,4.04,.23,6.05,.03-2.46,.03-4.93,.08-7.39,.09,2.27,.16,4.55,.2,6.83,.07-1.5,.14-3.01,.23-4.5,.04,1.06,.07,2.12,.1,3.19,.06-1.7,.1-3.4,.21-5.09,.04,1.69,.06,3.39,.11,5.09,.04-1.52,.06-3.04,.1-4.55,.04,1.13,.07,2.27,.11,3.4,.07-1.44,.13-2.88,.19-4.33,.07,1,.15,2,.22,3,.04-1.07,.07-2.15,.1-3.22,.03,.49,.06,.99,.09,1.48,.07-.88,.14-1.75,.21-2.63,.05,1.97,.07,3.93,.13,5.9,.14-1.95,.16-3.92,.21-5.89,.03,1.39,.06,2.78,.09,4.17,.06-1.42,.11-2.84,.18-4.25,.11,2.17,.1,4.35,.12,6.53,.07-1.96,.13-3.91,.22-5.87,.03,1.32,.07,2.64,.1,3.97,.07-1.07,.13-2.14,.21-3.2,.04,1.7,.07,3.4,.1,5.11,.05-1.52,.11-3.04,.19-4.55,.05,1.46,.1,2.91,.15,4.37,.14-1.5,.14-3.03,.19-4.55,.06,1.07,.12,2.14,.2,3.2,.04-1.51,.07-3.03,.1-4.54,.07,1.13,.12,2.27,.22,3.4,.05-1.58,.07-3.16,.1-4.73,.05,1.71,.08,3.42,.21,5.12,.06-1.9,.07-3.8,.11-5.69,.06,2.41,.13,4.81,.22,7.21,.03-1.84,.05-3.67,.09-5.51,.11,2.15,.17,4.3,.21,6.46,.03-2.28,.04-4.56,.17-6.82,.05,1.38,.1,2.77,.14,4.15,.04-1.95,.05-3.92,.21-5.86,.03,1.5,.06,3.01,.08,4.52,.05-1.35,.11-2.7,.18-4.04,.06,.9,.1,1.8,.15,2.71,.07-.55,.14-1.12,.22-1.67,.03,.75,.05,1.5,.08,2.24,.04-.33,.11-.98,.15-1.31,.14,1,.27,2,.41,3,.09-1.5,.15-3.02,.2-4.53,.03,.82,.06,1.63,.09,2.45,.06-1.2,.12-2.39,.19-3.58,.05,1.07,.09,2.14,.14,3.21,.08-1.32,.15-2.63,.22-3.95,.05,2.97,.15,5.94,.28,8.9,.09,2.98,.05,5.96,.14,8.93-.04-4.4,.18-8.77,.5-13.12,.04,.63,.08,1.25,.12,1.88,.03-1,.07-2.01,.11-3.01,.04,2.4,.1,4.81,.2,7.2,.04-2.59,.04-5.19,.09-7.78,.35,3.83,.39,7.72,.43,11.59,.05-2.28,.07-4.57,.28-6.83,.04,1.32,.08,2.64,.11,3.96,.05-1.51,.11-3.02,.21-4.53,.06,2.34,.08,4.67,.12,7.01,.12-2.59,.18-5.19,.23-7.78,.03,2.79,.03,5.57,.09,8.36,.05-1.61,.09-3.22,.16-4.83,.07,1.16,.11,2.32,.16,3.48,.08-1,.15-2,.23-3,.02,2.91,.01,5.82,.09,8.73,.07-3.68,0-7.36,.09-11.04,.16,1.36,.24,2.75,.32,4.14,.03-.31,.1-.93,.13-1.24,.02,.56,.06,1.68,.09,2.24,.04-1.77,.08-3.54,.16-5.31,.06,1,.1,2.01,.15,3.02,.03-.75,.09-2.26,.12-3.02,.03,1.58,.05,3.16,.08,4.74,.07-2.35,.19-4.68,.33-7.02,.11,1.7,.17,3.41,.28,5.11,.19-1.62,.31-3.25,.34-4.9,.07,.8,.14,1.59,.21,2.39,.06-1.31,.1-2.62,.19-3.92,.04,1.13,.08,2.26,.13,3.4,.03-1.46,.06-2.91,.09-4.36,.04,1.14,.07,2.27,.11,3.41,.09-.74,.16-1.49,.23-2.24,.08,2.01,.13,4.02,.2,6.04,.03-2.41,.03-4.82,.15-7.22,.03,.76,.1,2.27,.14,3.03,.16-1.33,.31-2.67,.54-3.97,.11,.81,.21,1.62,.31,2.43,.07-.74,.13-1.48,.21-2.22,.08,.67,.15,1.34,.23,2.01,0-.25,.03-.76,.04-1.02,.1,.19,.2,.37,.3,.57,.07-.58,.13-1.18,.2-1.76,.1,1.51,.14,3.02,.2,4.53,.03-1.52,.06-3.03,.11-4.55,.04,2.53,.03,5.06,.08,7.59,.11-1.58,.19-3.17,.31-4.74,.2,2.96,.15,5.95,.21,8.93,.05-2.53,.04-5.08,.21-7.6,.29,4.6,.08,9.24,.19,13.86,.29-4.1,.1-8.23,.23-12.34,.07,2.94,.11,5.89,.27,8.82,.08-1.54,.09-3.08,.13-4.62,.03,.32,.1,.97,.13,1.3,.04-.55,.07-1.14,.11-1.68,.03,.88,.06,1.75,.09,2.63,.04-1.46,.08-2.92,.14-4.38,.14,2.79,.11,5.59,.16,8.38,.04-2.02,.07-4.05,.1-6.07,.09,1.96,.18,3.91,.33,5.86,.03-3.86,.08-7.73,.32-11.57,.04,3.36,0,6.72,.08,10.07,.07-2.1-.08-4.33,.41-6.3,.04,1.34,.08,2.67,.12,4.01,.15-2.65,.16-5.31,.21-7.97,.04,2.41,.04,4.81,.07,7.22,.04-.5,.09-.99,.13-1.49,.03,.51,.09,1.54,.13,2.05,.05-3.92-.02-7.85,.07-11.77,.07,2.85,.11,5.71,.31,8.55,.07-2.21,.06-4.43,.09-6.64,.06,1.76,.11,3.52,.23,5.27,.11-2.71,.15-5.43,.21-8.14,.14,2.59,.16,5.2,.22,7.8,.09-1.51,.15-3.04,.21-4.55,.13,2.46,.19,4.93,.3,7.39,.06-3.86-.04-7.73,.2-11.57,.06,3.23,.03,6.46,.11,9.68,.03-1.7,.04-3.4,.06-5.09,.05,.26,.14,.78,.18,1.04,.03-.86,.05-1.73,.08-2.59,.08,1.06,.15,2.12,.21,3.18,.04-1.45,.08-2.89,.15-4.33,.05,1.33,.1,2.66,.14,3.99,.14-2.02,.25-4.04,.32-6.07,.03,2.4,.07,4.81,.19,7.2,.09-2.27,.15-4.55,.22-6.82,.05,1.84,.09,3.68,.21,5.51,.07-2.22,.13-4.43,.21-6.65,.05,2.08,.06,4.16,.19,6.23,.06-1.26,.11-2.52,.19-3.77,.11,.87,.19,1.75,.24,2.64,.05-1.07,.1-2.14,.18-3.2,.08,1.26,.15,2.52,.22,3.78,.06-1.19,.13-2.37,.21-3.56,.05,.87,.1,1.74,.15,2.62,.13-1.32,.23-2.65,.31-3.98,.05,1.13,.09,2.27,.14,3.4,.13-.6,.25-1.22,.37-1.82,.04,.62,.06,1.22,.11,1.85,.11-1.4,.21-2.79,.29-4.2,.02,1.85,.04,3.7,.1,5.54,.17-1.26,.23-2.55,.34-3.83,.07,.56,.14,1.11,.22,1.67,.07-1.13,.11-2.26,.16-3.38,.06,1.45,.13,2.9,.2,4.35,.06-1.2,.12-2.4,.19-3.6,.07,.75,.14,1.5,.2,2.26,.08-.5,.16-.99,.24-1.48,.09,.67,.17,1.35,.24,2.03,.1-1.17,.2-2.35,.29-3.52,.05,.88,.09,1.76,.14,2.65,.13-1,.2-2.02,.28-3.04,.04,1.12,.09,2.25,.15,3.37,.09-.68,.17-1.36,.25-2.04,.07,.81,.14,1.62,.23,2.43,.08-.93,.13-1.88,.2-2.82,.11,1.94,.24,3.88,.39,5.81,.11,2.96,.05,5.93,.05,8.9h.1c0-2.26,.02-4.5,.07-6.75,.04,2.15,.06,4.31,.11,6.46,.03-2.66,0-5.33,.17-7.98,.11,2.78,.17,5.56,.21,8.34,.08-1.38,.14-2.75,.25-4.12,.05,2.65,.02,5.32,.21,7.96,.05-3.93,.1-7.86,.2-11.79,.05,2.91,.04,5.82,.09,8.73,.03-1.64,.08-3.28,.11-4.92,.03,.76,.08,2.27,.1,3.03,.04-.5,.08-1,.13-1.5,.05,1.29,.11,2.58,.17,3.87,.13-1.22,.17-2.46,.25-3.68,.04,.63,.06,1.24,.1,1.87,.03-1.13,.05-2.27,.08-3.4,.04,1.32,.09,2.64,.13,3.97,.03-2.21,.04-4.43,.08-6.64,.02,.59,.03,1.17,.05,1.77,.07-.11,.14-.22,.21-.33,.01,1.86,.02,3.73,.14,5.58,.06-2.09,.09-4.19,.16-6.29,.13,1.64,.13,3.3,.19,4.96,.03-2.85,.07-5.7,.2-8.55,.09,.93,.15,1.87,.23,2.81,0-.37,.01-1.1,.02-1.46,.04,.15,.11,.46,.15,.61,.14-.78,.28-1.56,.41-2.34,.24,2.51,.16,5.07,.23,7.61,.09-1.13,.16-2.27,.23-3.4,.03,1.2,.05,2.39,.09,3.59,.16-3.1,.12-6.24,.39-9.32,.15,1.38,.24,2.79,.35,4.19,.21-1.38,.34-2.79,.5-4.18,.06,2.03,.1,4.06,.2,6.09,.21-2.78,.4-5.56,.45-8.36,.15,1.61,.19,3.23,.26,4.85,.06,0,.19-.03,.25-.04,.07-.87,.13-1.74,.23-2.6,.37,2.4,.17,4.92,.36,7.37,.09,1.42,.19,2.84,.25,4.28,.02-2.28,.04-4.55,.1-6.82,.05,3.23,.07,6.46,.21,9.68,.08-3.86-.03-7.73,.11-11.59,.21,2.45,.13,4.94,.2,7.41,.1-1.38,.15-2.77,.23-4.16,.04,3.86-.02,7.72,.09,11.58,.1-4.37-.02-8.74,.08-13.11,.16,4.94,.13,9.88,.23,14.82,.12-6.52-.04-13.05,.09-19.58,.29,6.83,.06,13.69,.23,20.53,.12-6.97-.06-13.95,.09-20.92,.1,4.94,.13,9.89,.22,14.83,.1-3.86-.08-7.75,.19-11.59,.18,6.46-.05,12.93,.13,19.39,.16-5.51-.15-11.05,.18-16.54,.14,4.59,.06,13.06,.06,13.06h.11s.05-11.89,.16-18.2c.09,7.45,.01,14.9,.04,22.35h.1c.06-6.25,.09-12.49,.18-18.74,.11,5.32-.04,10.65,.09,15.97,.4-7.84-.02-15.73,.22-23.58,.13,7.54-.06,15.09,.1,22.63,.29-6.71,.04-13.44,.21-20.16,.14,6.46-.06,12.93,.11,19.39,.18-1.85,.15-3.74,.16-5.61-.01-4.12-.02-8.24-.01-12.36h.11c-.01,2.76-.04,5.52,.14,8.26,.11-3.61,.03-7.22,.13-10.83,.14,5.9-.08,11.81,.13,17.71,.27-5.19,0-10.41,.17-15.62,.06,3.17,.05,6.35,.22,9.5,.05-3.29,.02-6.59,.09-9.88,.07,3.16,.13,6.33,.21,9.49,.07-3.55,.02-7.1,.09-10.64,.08,1.58,.15,3.16,.22,4.74,.03-1.64,.06-3.28,.1-4.92,.09,2.4,.16,4.81,.22,7.21,.03-1.84,.05-3.67,.09-5.5,.06,2.14,.11,4.29,.22,6.43,.03-1.06,.06-2.12,.09-3.18,.04,.76,.12,2.28,.16,3.04,.12-2.21,.11-4.44,.16-6.66,.04,1.96,.06,3.93,.18,5.89,.04-1.19,.07-2.39,.1-3.58,.06,.87,.13,1.75,.2,2.62,.09-.43,.17-.85,.26-1.28,.04,1.31,.08,2.63,.15,3.94,.02-.48,.06-1.43,.07-1.91,.07,.07,.13,.15,.2,.23,.04-.24,.08-.48,.11-.72,.03,1.12,.05,2.24,.08,3.36,.08-1.52,.15-3.04,.22-4.55,.06,.73,.11,1.47,.15,2.21,.07-.21,.14-.42,.22-.63,.06,.92,.09,1.85,.13,2.78,.06-.51,.11-1.02,.17-1.53,.07,.57,.11,1.12,.19,1.7,0-.93,.01-1.87,.02-2.8,.06,.29,.12,.59,.18,.89,.08-1.25,.13-2.5,.19-3.75,.04,.94,.07,1.88,.11,2.82,.1-1.19,.15-2.38,.21-3.57,.03,1.32,.06,2.65,.09,3.97,.07-2.15,.14-4.3,.2-6.45,.07,.94,.13,1.89,.2,2.83,.06-.82,.12-1.65,.18-2.47,.09,1.32,.12,2.66,.17,3.99,.03-1.39,.05-2.77,.08-4.15,.1,1.51,.17,3.02,.24,4.53,.03-1.51,.04-3.02,.07-4.53,.09,1.38,.16,2.76,.24,4.14,.03-1.96,.04-3.91,.08-5.86,.09,1.58,.17,3.15,.23,4.73,.03-1.71,.05-3.41,.08-5.12,.06,1.26,.12,2.52,.2,3.78,.05-1.39,.09-2.78,.13-4.17,.07,1.57,.13,3.14,.22,4.72,.03-1.51,.05-3.02,.08-4.52,.07,1.51,.13,3.02,.22,4.52,.03-1.38,.06-2.76,.09-4.14,.08,1.38,.14,2.77,.21,4.15,.04-1,.08-2.01,.13-3.01,.08,1.12,.12,2.25,.18,3.38,.06-.51,.15-.99,.21-1.49,.01,.52,.04,1.55,.06,2.07,.07-.3,.13-.59,.2-.89,0,.53-.02,1.58-.02,2.11,.08-.11,.16-.21,.24-.31,.01,.52,.03,1.05,.04,1.58,.06-.84,.11-1.69,.17-2.52,.05,.82,.07,1.64,.1,2.47,.07-.22,.13-.43,.2-.64-.03,4.1,.03,8.2,.16,12.3,.05-3.23,.03-6.46,.11-9.68,.08,3.8,0,7.6,.08,11.4,.13-4.3,.14-8.62,.23-12.92,.09,7.19,.01,14.39,.03,21.59h.1c0-5.52,.11-15.47,.11-15.47h.12c.03,5.48-.07,10.97,.05,16.46,.07-5.4,.03-10.79,.2-16.18,.09,5.85,.01,11.7,.03,17.55h.12s-.02-6.67,.04-9.86c.05,.88,.08,1.76,.13,2.64,.05-1.58,.08-3.16,.15-4.73,.08,1.32,.14,2.65,.23,3.97,.05-1,.1-2.01,.14-3.01,.04,2.56,.03,7.43,.03,7.43h.1s.07-8.3,.17-12.57c.04,2.66,.04,5.32,.1,7.98,.31-4.74,.05-9.51,.21-14.26,.1,4.85,.04,13.51,.04,13.51h-.13c-.03-6.15,.07-12.29,.18-18.43,.11,4.95-.04,9.91,.11,14.87,.06-6.38,.05-12.76,.21-19.14,.06,2.77,.06,5.55,.1,8.32,.1-2.43,.18-4.87,.25-7.31,.04,1.56,.08,3.12,.14,4.69,.15-1.82,.11-3.66,.16-5.48,.03,.29,.1,.87,.14,1.16,.06-.46,.11-.91,.17-1.37,.08,1.48,.12,2.96,.18,4.44,.08-1.62,.15-3.25,.23-4.87,.03,1.35,.05,2.7,.08,4.05,.06-1.41,.12-2.83,.21-4.23,.02,.33,.06,.99,.08,1.32,.1-.38,.2-.75,.3-1.13,.03,1.55,.05,3.1,.08,4.66,.21-2.08,.39-4.17,.47-6.29,.06,1.42,.12,2.85,.2,4.27,.12-.54,.2-1.12,.33-1.64,.15,1.27,.18,2.56,.23,3.85,.03-.55,.09-1.65,.12-2.21,.03,.87,.04,1.75,.06,2.62,.04-.32,.09-.64,.13-.95,.08,.58,.17,1.17,.26,1.75,.02-.93,.02-1.86,.04-2.79,.14,.98,.29,1.97,.58,2.85,.12-.65,.19-1.33,.28-2,.06,1.05,.12,2.1,.2,3.15,.04-1.14,.07-2.27,.11-3.4,.04,2.1,.07,4.2,.11,6.29,.08-1.82,.15-3.65,.22-5.48,.04,.81,.12,2.43,.16,3.25,.1-1.35,.14-2.72,.21-4.07,.13,2.64,.14,5.28,.2,7.93,.04-2.65,.04-5.29,.09-7.94,.03,.6,.03,1.17,.07,1.77,.07-.23,.15-.47,.23-.7,.02,6.29-.09,12.59,.06,18.88,.15-7.22-.16-14.48,.28-21.68,.08,1.55,.1,3.11,.11,4.67-.03,7.81-.01,15.62-.02,23.42h-.12c.02-8.38-.06-16.76,.04-25.14,.04,1.6,.08,3.2,.12,4.81,.04-1.73,.06-3.46,.11-5.19,.08,4.26-.04,8.54,.1,12.8,.05-2.47,.03-4.93,.06-7.4,.06,.41,.11,.82,.17,1.24,.01-1.9,.02-3.81,.06-5.71,.03,1.61,.07,3.22,.11,4.83,.23-1.07,.26-2.21,.34-3.33,.02,4.72,0,9.45,0,14.17h.13s0-7.26-.01-11.06c0-2.18,0-4.4,.3-6.53,.04,3.72-.01,7.45,.06,11.18,.08-3.36,.24-6.71,.35-10.06,.15,2.01,.15,4.04,.18,6.07,.04-1.65,.1-3.3,.17-4.95,.08,1.52,.11,3.05,.16,4.57,.06-2.03,.13-4.05,.29-6.06,.06,1.89,.09,3.79,.24,5.66,.06-2.4-.03-4.84,.29-7.18,.06,2.59,.06,5.18,.1,7.77,.06-2.47,.12-4.94,.23-7.4,.03,1.19,.05,2.39,.08,3.59,.03-.51,.08-1.54,.11-2.06,.03,.32,.1,.96,.13,1.28,.04-.94,.06-1.88,.1-2.82,.12,2.53,.14,5.06,.19,7.6,.04-2.48,.06-4.97,.28-7.43,.06,1.97,.1,3.94,.15,5.91,.07-1.91,.09-3.87,.41-5.71,.04,1.08,.07,2.16,.11,3.24,.04-1.14,.08-2.28,.13-3.41,.1,1.7,.13,3.41,.19,5.12,.03-2.02,.04-4.05,.08-6.07,.05,.63,.07,1.25,.12,1.88,.04-.62,.07-1.26,.11-1.87,.03,2.59,.03,5.18,.07,7.77,.08-3.48,.18-6.96,.33-10.43,.06,2.21,.13,4.42,.21,6.64,.1-1.51,.16-3.03,.19-4.54,.03,.33,.09,.97,.12,1.3,.04-.5,.07-.99,.11-1.49,.04,.63,.05,1.24,.09,1.88,.05-.56,.06-1.14,.12-1.69,.02,1.38,.04,2.77,.06,4.15,.09-1.21,.13-2.45,.35-3.62,.17,1.43,.13,2.91,.17,4.36,.08-1.4,.09-2.85,.35-4.18,.06,.28,.18,.85,.24,1.13,0-.86,0-1.73,0-2.58,.11,.81,.22,1.62,.34,2.43,.05-.57,.15-1.72,.2-2.29,.08,1.58,.1,3.17,.14,4.76,.04-1.97,.05-3.95,.29-5.88,.04,1.45,.08,2.91,.12,4.36,.11-1.51,.23-3.01,.33-4.52,.04,1.08,.09,2.16,.14,3.24,.14-.75,.23-1.52,.32-2.29-.01,.45-.02,.9-.03,1.36,.08-.11,.16-.22,.24-.33,.02,.35,.05,1.04,.06,1.39,.03-.94,.05-1.88,.07-2.82,.07,.64,.11,1.28,.18,1.93,.14-.68,.22-1.38,.32-2.08-.01,.97-.03,1.94-.03,2.92,.05-.18,.1-.36,.15-.54,.06,.17,.12,.34,.19,.52,0-.91,.01-1.82,.02-2.73,.02,.29,.05,.86,.06,1.15,.07-.1,.15-.19,.22-.29,.01,.52,.03,1.04,.05,1.56,.03-1,.07-2,.1-3,.05,1.02,.1,2.05,.15,3.07,.13-.61,.23-1.26,.33-1.89-.01,3.03,.04,6.07,.22,9.08,.07-2.28,.09-4.57,.13-6.85,.25,3.4,.28,6.83,.33,10.25,.04-2.31,.05-4.62,.05-6.93h.1c0,4.13-.01,8.27,0,12.42,.05-.26,.16-.79,.21-1.06,0,2.65,0,5.29,.06,7.94,.25-5.18,.08-10.39,.19-15.58,.11,2.78,.18,5.56,.21,8.35,.04-1.07,.09-2.15,.14-3.22,.03,3.1,0,6.21,.09,9.31,.06-3.8,.11-7.6,.19-11.4,.04,.75,.09,1.5,.13,2.25,.03-1.96,.06-3.91,.09-5.87,.22,4.77,.15,13.13,.15,13.13h.12s-.2-8.13,.24-12.75c.05,1.45,.09,2.91,.13,4.36,.06-2.03,.1-4.05,.22-6.07,.04,3.17,0,6.34,.09,9.51,.06-3.36,.02-6.72,.1-10.07,.04,1.58,.06,3.16,.09,4.75,.08-1.38,.15-2.75,.26-4.12,.07,.21,.14,.42,.21,.63,.02-1.87,.05-3.75,.18-5.61,.08,4.42-.05,8.86,.1,13.28,.1-5.07-.03-10.14,.08-15.21,.06,1.46,.11,2.92,.19,4.37,.06-.76,.11-1.52,.17-2.27,.09,1.32,.12,2.65,.18,3.97,.03-1.07,.06-2.14,.09-3.2,.09,1.63,.15,3.27,.23,4.9,.02-2.47,0-4.94,.18-7.39,.05,1.82,.06,3.65,.09,5.48,.36-1.87,.37-3.86,.43-5.82,.02,.22,.04,.43,.06,.65,.15,.04,.29,.07,.44,.11,0,.31,0,.93,0,1.24,.14-.96,.27-1.91,.44-2.85,.09,.69,.17,1.38,.25,2.07,0-.31,.03-.94,.03-1.25,.06,.29,.12,.59,.18,.88,.02-.32,.06-.96,.08-1.28,.02,.49,.05,.99,.07,1.48,.03-.26,.08-.79,.1-1.06,.04,.26,.12,.77,.16,1.03,.02-.8,.04-1.61,.06-2.41,.04,.75,.08,1.51,.12,2.26,.03-.62,.04-1.26,.08-1.88,.23,2.06,.41,4.14,.45,6.25,0-1.64,.06-3.28,.07-4.92,.07,2.59,.19,5.19,.34,7.77,.03-1.71,.06-3.43,.12-5.14,.21,3.22,.09,6.47,.16,9.71,.07-1.71,.13-3.41,.22-5.12,.07,1.31,.14,2.63,.2,3.95,.07-1.39,.12-2.77,.23-4.15,.06,2.94,0,5.9,.26,8.82,.2-2.28,.21-4.6,.23-6.9,.04,.52,.11,1.54,.14,2.06,.04-.88,.07-1.76,.12-2.63,.03,3.01,.02,8.99,.02,8.99h-.19c0-3.99-.03-7.98,.03-11.97,.1,2.44,.26,4.86,.35,7.3,.01-3.5,.21-6.98,.34-10.46,.03,2.42,.05,4.83,.13,7.25,.07-.21,.13-.42,.2-.63,.04,.28,.08,.56,.12,.84,.01-1.57,.04-3.13,.07-4.69,.03,1.71,.09,3.42,.12,5.13,.15-2.82,.16-5.66,.21-8.5,.06,2.11,.08,4.23,.24,6.33,.21-2.95,.12-5.94,.2-8.91,.03,1.58,.07,3.16,.1,4.74,.02-1.71,.08-3.42,.11-5.13,.09,4.02,0,8.05,.11,12.07,.23-3.84,.15-7.72,.16-11.58h.11c0,3.59,0,7.22,.29,10.79,.07-3.1,.05-6.2,.21-9.29,.28,3.3,.07,6.66,.29,9.97,.24-4.57-.01-9.16,.14-13.74,.04,1.71,.09,3.42,.12,5.13,.04-1.25,.08-2.5,.12-3.75,.03,3.16,.01,6.33,.1,9.49,.2-3.01,.11-6.06,.31-9.06,.26,4.33,.09,8.68,.22,13.02,.1-4.42,0-8.84,.1-13.26,.05,.91,.07,1.83,.12,2.75,.04-1.37,.07-2.75,.12-4.12,.12,4.14-.11,8.31,.22,12.43,.08-3.45-.02-6.92,.28-10.34,.13,3.19,.07,6.39,.15,9.58,.05-2.83,.05-5.66,.06-8.48,.06,.43,.12,.87,.18,1.31,.02-1.1,.05-2.21,.08-3.31,.05,4.42,.06,8.83,.21,13.24,.05-4.62,0-9.25,.35-13.84,.06,4.42-.03,8.84,.09,13.25,.07-4.82,.2-9.63,.33-14.44,.13,4.15,.13,8.31,.22,12.47,.09-3.85-.04-7.71,.14-11.56,.43,3.19,.15,6.53,.29,9.78,.22-3.49,.09-7.02,.3-10.51,.15,3.49,.17,6.99,.23,10.49,.1-3.43,.12-6.87,.31-10.29,.1,3.38,.04,6.77,.18,10.15,.25-3.62,.18-7.28,.27-10.92,.07,3.49,.13,6.98,.22,10.47,.06-3.56,.1-7.11,.22-10.66,.03,2.4,.05,4.8,.17,7.2,.14-2.2,.16-4.43,.37-6.61,.05,2.11,.07,4.22,.11,6.33,.09-1.84,.2-3.67,.34-5.49,.05,1.43,.11,2.87,.18,4.3,.08-1.78,.15-3.57,.34-5.32,.07,1.7,.12,3.41,.25,5.1,.03-1.63,.04-3.26,.06-4.89,.12,1.04,.25,2.07,.36,3.11,.06-1.29,.13-2.58,.2-3.87,.07,1.77,.14,3.54,.34,5.28,.03-1.71,.05-3.42,.08-5.12,.07,.91,.13,1.83,.21,2.74,.16-.67,.29-1.38,.42-2.07-.02,2.28-.02,4.56,.02,6.85,.07-.58,.09-1.19,.17-1.76,.01,3.23,0,6.45,.07,9.68,.08-2.77,.22-5.54,.35-8.3,.08,4.14-.1,8.31,.19,12.44,.05-.91,.09-1.82,.14-2.73,.02,1.64,.05,3.28,.07,4.92,.04-1.38,.08-2.76,.13-4.13,.09,3.17,.11,6.35,.31,9.51,.15-5.48-.05-10.96,.13-16.44,.11,5.27-.05,10.56,.1,15.83,.07-3.76,0-7.52,.12-11.28,.09,3.9-.11,7.84,.29,11.69,.06-.86,.1-1.72,.16-2.57,.02,2.5,.02,5,.07,7.49,.37-6.64,.02-13.33,.23-19.98,.06,3.43,.02,6.86,.12,10.29,.06-3.3,.01-6.6,.11-9.89,.1,7.22,0,14.45,.03,21.68h-.33c-.01-3.65-.03-7.3,.07-10.95,.05-3.24-.02-6.5,.18-9.73,.14,3.76-.04,7.55,.22,11.3,.18-5.87-.02-11.75,.12-17.62,.36,3.92,.17,7.91,.46,11.83,.04-3.16,.02-6.31,.1-9.47,.19,2.89,.14,5.81,.22,8.72,.27-3.61,.06-7.28,.32-10.89,.05,1.26,.09,2.52,.14,3.78,.2-1.16,.24-2.37,.32-3.57,.02,.78,.05,1.56,.08,2.34,.09-1.79,.2-3.57,.37-5.33,.09,1.31,.12,2.63,.18,3.95,.07-1.57,.16-3.14,.3-4.7,.03,.38,.09,1.15,.12,1.53,.07-.71,.15-1.41,.23-2.11,.01,.52,.02,1.04,.04,1.55,.1-.07,.2-.14,.3-.21,.04,.25,.09,.5,.14,.75,.11-.62,.19-1.25,.29-1.87,.06,.76,.12,1.53,.19,2.29,.03-1.11,.07-2.22,.11-3.32,.04,1.05,.08,2.09,.13,3.14,.03-.92,.05-1.84,.09-2.75,.07,.6,.08,1.16,.16,1.77,.07-.57,.1-1.17,.18-1.74,.11,.64,.22,1.27,.33,1.9,.07-.57,.07-1.18,.16-1.75,.2,1.49,.3,3.01,.4,4.54,.03-.78,.07-1.56,.11-2.34,0,1.39,0,2.77,0,4.16,.08-.09,.17-.17,.25-.25,.07,1.39,.11,2.78,.17,4.18,.02-2.9,.02-5.8,.09-8.7,.1,4.08-.08,8.19,.19,12.26,.05-1.18,.08-2.36,.13-3.54,.05,.66,.07,1.29,.13,1.96,.03-1.51,.06-3.02,.1-4.53,.04,2.24,.05,4.48,.1,6.72,.04-1.91,.06-3.82,.11-5.73,.04,2.77,.04,5.54,.07,8.31,.06-.52,.11-1.04,.17-1.56,.02,2.86,0,5.72,0,8.59h-.39c.02-5.58-.07-11.17,.05-16.76,.04,.97,.07,1.94,.11,2.92,.04-1.36,.08-2.73,.13-4.09,.05,3.59,0,7.18,.09,10.77,.07-3.46,.13-6.92,.21-10.38,.09,1.36,.15,2.71,.23,4.08,.03-.84,.07-1.67,.1-2.5,.04,1.5,.07,3,.12,4.49,.05-3.59,0-7.19,.1-10.78,.13,5.81-.06,11.63,.11,17.45,.11-4.9-.05-9.8,.1-14.7,.02,.93,.02,1.86,.03,2.8,.08-.11,.15-.22,.23-.33,.01,1.46,.03,2.92,.05,4.38,.03-1.98,.06-3.97,.22-5.93,.19,1.69,.15,3.43,.22,5.15,.08-3.2,.2-6.4,.33-9.59,.04,2.4,.02,4.82,.22,7.21,.04-2.93,.05-5.87,.21-8.79,.07,3.79,0,7.58,.08,11.37,.18-3.58,.29-7.18,.36-10.77,.04,3.2,.02,6.4,.09,9.6,.04-2.23,.06-4.47,.14-6.69,.22,2.07,.24,4.18,.3,6.29,.19-3.52,.17-7.05,.33-10.57,.07,4.12-.02,8.24,.1,12.35,.34-4.41,0-8.89,.34-13.3,.06,3.72-.01,7.44,.1,11.16,.34-3.17,.22-6.42,.31-9.62,.08,3.58-.05,7.19,.22,10.75,.05-3.13-.02-6.28,.2-9.39,.13,3.2,.15,6.41,.23,9.62,.04-3.26-.02-6.54,.17-9.79,.15,2.66,.2,5.34,.24,8.01,.04-2.68,.05-5.36,.12-8.04,.34,2.57,.25,5.23,.32,7.85,.04-2.75,.04-5.51,.31-8.22,.06,1.96,.07,3.91,.11,5.87,.11-2.74,.22-5.48,.33-8.21,.04,2.02,.06,4.04,.11,6.05,.02-.96,.02-1.93,.04-2.89,.07,.23,.13,.46,.2,.69,.04-.63,.04-1.28,.09-1.9,.03,2.28,.03,4.56,.07,6.84,.06-2.94,.17-5.88,.36-8.8,.03,1.96,.05,3.92,.1,5.88,.22-2.2,.22-4.45,.33-6.67,.03,2.81,.03,5.62,.08,8.42,.14-2.8,.28-5.61,.35-8.42,.02,2.81,.02,5.62,.09,8.42,.26-2.32,.26-4.69,.32-7.05,.04,1.44,.09,2.87,.14,4.31,.13-1.3,.23-2.6,.32-3.91,.02,1.5,.05,3.01,.1,4.51,.12-1.19,.21-2.38,.36-3.56,.03,.58,.1,1.75,.13,2.34,.1-1.1,.21-2.2,.32-3.3,.08,.84,.16,1.69,.26,2.53,.09-.96,.14-1.94,.22-2.91,.02,1.29,.04,2.58,.07,3.88,.11-1.09,.21-2.19,.33-3.29,.04,.9,.07,1.8,.11,2.71,.12-1.35,.24-2.7,.35-4.06,.01,2.85,.03,5.71,.2,8.55,.04-2.8,.09-5.59,.21-8.38,.05,4.11,.03,8.22,.21,12.32,.14-2.67,.16-5.34,.21-8.01,.13,2.21,.17,4.42,.23,6.64,.1-2.08,.15-4.17,.22-6.26,.13,6.1-.12,12.22,.14,18.32,.32-4.91,.27-9.86,.38-14.79,.07,2.81,.13,5.61,.21,8.41,.06-1.56,.1-3.12,.2-4.68,.13,2.86,.17,5.74,.24,8.61,.08-5.42,.11-10.85,.22-16.27,.08,3.79-.05,7.6,.21,11.37,.05-2.35,.04-4.7,.22-7.03,.08,3.19,.14,6.37,.2,9.56,.14-5.68,.13-11.37,.23-17.05,.07,3.79,0,7.58,.1,11.36,.19-1.96,.11-3.99,.39-5.92,.13,1.84,.19,3.68,.27,5.53,.03-2.94,.02-5.88,.08-8.81,.04,2.08,.05,4.16,.08,6.23,.05-.56,.16-1.1,.23-1.65,.05,.29,.11,.57,.17,.86,.01-1.48,.02-2.97,.03-4.45,.08,1.04,.16,2.08,.25,3.11,.35-1.7,.65-3.43,.66-5.26,.07,1.11,.14,2.21,.23,3.31,.09-.97,.14-1.95,.22-2.93,.05,.76,.1,1.52,.15,2.28,.09-.82,.2-1.64,.31-2.45,.06,.3,.13,.59,.2,.89,0-.31,0-.94-.01-1.25,.2,.45,.41,.89,.64,1.31,.03-.65,.03-1.31,.08-1.95,.06,.62,.12,1.25,.19,1.87,.11-.64,.23-1.28,.36-1.91,.08,.85,.15,1.69,.22,2.54,.03-.53,.08-1.59,.1-2.13,.02,1.1,.05,2.21,.08,3.31,.04-.33,.12-1,.16-1.33,.07,1.42,.12,2.84,.18,4.26,.03-.53,.1-1.59,.14-2.12,.1,2.08,.14,4.17,.2,6.25,.02-2.15,.04-4.3,.08-6.45,.16,3.52,.15,7.05,.24,10.57,.05-2.94,.02-5.88,.11-8.82,.05,3.27-.02,6.55,.17,9.8,.07-1.37,.14-2.74,.23-4.1,.05,1.42,.09,2.85,.14,4.28,.04-3,.04-6,.11-9,.13,5.75-.06,11.51,.11,17.25,.05-5.82,.06-11.63,.22-17.44,.12,6.2-.07,12.42,.1,18.62,.05-5.42,.1-10.85,.21-16.27,.14,7.32-.06,14.64,.11,21.96,.2-8.36,.08-16.73,.22-25.1,.12,7.51-.04,15.02,.08,22.53,.09-1.85,.19-3.71,.18-5.57,0-5.88,0-11.77,0-17.65h-1.68c.03,9.82-.09,19.64,.06,29.46,.28-8.29,.05-16.6,.23-24.9,.14,8.1-.09,16.21,.12,24.31,.36-8.69-.04-17.43,.21-26.13,.19,7.7-.19,15.43,.21,23.1,.16-6.35-.06-12.7,.13-19.05,.07,6.61,0,13.23,.22,19.84,.13-7.55-.05-15.11,.09-22.66,.06,2.7,.06,5.41,.25,8.09,.04-2.9,.03-5.81,.11-8.71,.03,6.11,.15,12.21,.15,18.32h.11c.03-6.44-.07-12.89,.05-19.33,.08,2.16,.16,4.31,.25,6.47,.03-3.03,.02-6.06,.07-9.09,.17,4.78,.14,9.57,.24,14.36,.06-3.51,.03-7.02,.1-10.52,.04,1.21,.06,2.41,.09,3.62,.06-1.48,.13-2.96,.22-4.43,.11,1.81,.2,3.63,.26,5.46,.04-1.89,.06-3.77,.11-5.65,.04,2.36,.05,4.72,.11,7.08,.06-3.5,0-7.02,.2-10.51,.06,2.21,.08,4.43,.24,6.63,.04-1.54,.07-3.08,.11-4.61,.04,1.82,.07,3.63,.11,5.45,.05-1.82,.09-3.63,.17-5.44,.1,1,.18,2,.27,3.01,.05-.59,.04-1.22,.12-1.79,.04,.87,.06,1.73,.11,2.61,.06-2.22,.12-4.45,.22-6.66,.05,1.69,.08,3.38,.13,5.07,.09-.73,.13-1.48,.21-2.21,.07,.6,.06,1.17,.16,1.79,.06-1.28,.11-2.55,.17-3.83,.03,2.22,.06,4.43,.17,6.64,.05-.8,.11-1.59,.16-2.39,.05,1.94,.08,3.89,.24,5.82,.04-2.69,.03-5.38,.09-8.06,.04,1.92,.08,3.83,.17,5.74,.08-.96,.12-1.93,.19-2.89,.04,.93,.06,1.87,.1,2.8,.09-1.34,.16-2.68,.24-4.02,.13,1.8,.16,3.62,.21,5.44,.04-1.68,.07-3.36,.15-5.04,.77,1.52,.36,3.75,.45,5.61,.12-1.3,.32-2.57,.64-3.75,.03,.86,.06,1.72,.09,2.59,.07-1.68,.13-3.36,.21-5.04,.04,1.74,.07,3.49,.11,5.24,.1-1.81,.18-3.63,.24-5.45,.03,1.95,.06,3.9,.11,5.85,.11-2.08,.16-4.17,.22-6.26,.08,1.68,.14,3.37,.22,5.05,.04-1.21,.08-2.42,.13-3.63,.09,1.2,.14,2.4,.21,3.61,.03-.8,.09-2.42,.12-3.22,.2,2.27,.14,4.59,.21,6.89,.04-2.16,.06-4.32,.18-6.47,.09,1.4,.16,2.81,.26,4.21,.04-.99,.07-1.99,.12-2.98,.09,1.13,.16,2.25,.24,3.38,.01-2.89,.01-5.78,.07-8.66,.18,3.06,.19,6.14,.18,9.21l.2-.02c.02-1.78,.04-3.57,.08-5.35,.04,2.89,.04,5.79,.08,8.68,.16-2.14,.23-4.31,.36-6.46,.1,1.62,.16,3.23,.24,4.85,.02-2.9,.02-5.8,.1-8.7,.07,3.98,0,7.96,.1,11.94,.05-2.57,.07-5.15,.33-7.68,.16,7.69-.07,15.39,.12,23.07,.07-4.55,.11-9.1,.2-13.65,.03-1.66,.22-3.3,.38-4.93,.02,2.54,.02,5.1,.2,7.63,.06-3.77,.01-7.55,.1-11.32,.05,1.62,.08,3.23,.13,4.85,0-1.16,0-2.33,.02-3.49,.08,.11,.16,.21,.25,.32,.05-1.91,.1-3.82,.16-5.73,.05,2.28,.06,4.58,.23,6.84,.04-1.61,.07-3.22,.11-4.82,.01,1.13,.02,2.25,.04,3.38,.07-.23,.15-.47,.23-.7,.02,.85,.05,1.71,.08,2.57,.03-1.95,.05-3.9,.08-5.85,.07,2.29,.12,4.6,.34,6.87,.08-3.03-.03-6.11,.32-9.1,.15,2.55,.12,5.16,.46,7.67,.06-1.94,.1-3.89,.23-5.82,.03,1.81,.07,3.62,.1,5.44,.1-.52,.13-1.08,.25-1.6,.08,1.12,.15,2.25,.23,3.37,.03-2.14,.04-4.28,.2-6.4,.04,1.55,.07,3.11,.13,4.66,.33-1.68,.23-3.52,.3-5.28,.06,1.14,.13,2.28,.2,3.43,.06-2.09,.1-4.19,.16-6.28,.04,2.02,.05,4.04,.1,6.06,.03-1.81,.05-3.62,.07-5.43,.12,.87,.23,1.74,.38,2.59,.04-1.14,.07-2.29,.12-3.43,.15,4.24,.13,8.5,.21,12.75,.06-3.02,.07-6.03,.16-9.05,.07,.22,.15,.45,.23,.68,.02-.51,.04-1.02,.07-1.52,.04,1.44,.1,2.87,.16,4.31,.1-1.84,.12-3.69,.18-5.54,.03,1.69,.08,3.38,.14,5.07,.08-1.56,.14-3.11,.19-4.67,.03,2.5,.04,5,.21,7.49,.04-2.63,.04-5.27,.19-7.9,.09,1.54,.18,3.08,.25,4.63,.03-.8,.09-2.41,.12-3.21,.13,5.8,.11,11.6,.22,17.41,.08-3.99-.04-8,.15-11.98,.26,4.99-.01,10.02,.18,15.02,.11-4.99-.03-9.99,.1-14.98,.05,2.15,.07,4.31,.13,6.47,.04-3.04,.03-6.07,.09-9.1,.12,2.28,.17,4.58,.22,6.87,.04-1.41,.08-2.83,.13-4.23,.06,2.37,.13,4.74,.26,7.1,.13-2.64,.12-5.29,.2-7.93,.25,3.49,.08,7.03,.2,10.54,.08-3.44-.05-6.9,.21-10.32,.04,1.33,.04,2.67,.07,4,.12-.94,.24-1.88,.39-2.81,.05,1.35,.08,2.7,.12,4.06,.03-1.95,.06-3.91,.11-5.86,.04,2.7,.04,5.39,.09,8.09,.04-2.15,.06-4.31,.1-6.47,.06,.67,.07,1.32,.14,2,.01-.8,.03-1.59,.05-2.38,.06,.31,.12,.62,.19,.93,.03-1.95,.06-3.9,.3-5.81,.04,1.85,.05,3.7,.07,5.55h.1c0-3.06-.02-6.13,.11-9.19,.06,.45,.13,.9,.2,1.35,.02-.39,.06-1.16,.08-1.55,.03,.54,.08,1.64,.11,2.19,.08-.8,.15-1.59,.24-2.39,.08,1.13,.16,2.26,.22,3.4,.07-1.54,.15-3.07,.24-4.59,.03,2.28,.03,4.56,.06,6.84,.08-3.11,.43-6.17,.49-9.29,.03,1.34,.05,2.68,.09,4.03,.04-.94,.07-1.88,.11-2.81,.06,1.75,.12,3.5,.23,5.25,.09-2.29,.15-4.57,.21-6.86,.14,2.21,.17,4.44,.23,6.66,.16-2.35,.26-4.71,.34-7.08,.03,2.23,.05,4.47,.14,6.69,.15-2.5,.12-5.02,.29-7.52,.1,1.94,.18,3.9,.2,5.85,.11-1.6,.23-3.2,.36-4.8,.03,.6,.08,1.79,.1,2.39,.12-1.07,.22-2.14,.34-3.2,.05,1,.08,2,.14,3.01,.1-1.13,.14-2.28,.21-3.42,.15,1.2,.28,2.42,.41,3.64,.03-1.75,.08-3.51,.1-5.26,.07,1.8,.12,3.61,.23,5.42,.04-1.13,.08-2.26,.12-3.39,.34,1.46,.43,3.04,.47,4.62,.06-1.61,.12-3.21,.18-4.82,.03,.34,.08,1.01,.1,1.35,.04-.28,.13-.83,.17-1.11,.02,.58,.04,1.17,.07,1.75,.02-.34,.06-1.01,.08-1.35,.05,.3,.11,.59,.17,.89,.08-.9,.18-1.8,.27-2.7,.1,.66,.22,1.33,.34,1.98,.03-.56,.09-1.68,.12-2.24,.14,.72,.27,1.44,.4,2.16,.02-.92,.02-1.85,.05-2.77,.46,1.69,.44,3.61,.48,5.46,.06-1.95,.13-3.89,.22-5.83,.02,.63,0,1.24,.03,1.87,.07-.12,.14-.24,.22-.36,.05,.67,.01,1.31,.09,2,.14-.81,.22-1.65,.35-2.46,.02,.34,.05,1.01,.06,1.34,.06-.54,.13-1.08,.2-1.62,.1,1.01,.19,2.01,.27,3.03,.08-1.34,.18-2.68,.31-4.01,.06,.68,.1,1.35,.14,2.04,.12-.26,.24-.52,.38-.75,.08,.41,.15,.83,.22,1.25,.03-.39,.08-1.17,.1-1.56,.38,3.68,.15,7.45,.27,11.16,.05-1.34,.08-2.69,.13-4.04,.03,4.79,.06,9.58,.21,14.36,.03-2.5,.04-5,.09-7.49,.34,1.44,.38,3.02,.39,4.56-.04,7.7,.19,15.39,.11,23.09h.11c0-3.06,0-6.12,.08-9.18,.08-4.33-.02-8.67,.1-13,.05,2.9,.04,5.8,.1,8.7,.04-2.5,.06-4.99,.11-7.49,.1,1.68,.16,3.37,.25,5.05,.03-3.37,0-6.75,.09-10.12,.06,5.6,.12,11.21,.34,16.8,.1-4.25-.1-8.52,.18-12.76,.08,2.53,.08,5.06,.08,7.59h.11c.01-4.75-.05-9.51,.05-14.26,.05,2.3,.07,4.6,.19,6.89,.07-2.09,.11-4.19,.17-6.28,.04,3.24,.02,6.47,.1,9.71,.06-3.5,.03-7.01,.09-10.51,.03,.8,.1,2.41,.13,3.21,.32-2.45,.5-4.96,.76-7.43,.04,.33,.12,.99,.16,1.33,.02-1.67,.04-3.34,.07-5.01,.03,1.21,.06,2.42,.1,3.64,.05-.54,.1-1.07,.16-1.6,.09,1.06,.13,2.13,.21,3.2,.02-1.41,.05-2.81,.09-4.22,.26,2.12,.28,4.3,.34,6.46,.03-2.56,.04-5.12,.17-7.66,.04,.6,.12,1.81,.17,2.41,.04-1.21,.08-2.42,.13-3.63,.09,1.54,.13,3.09,.18,4.64,.03-.55,.1-1.65,.13-2.2,.04,.87,.07,1.74,.11,2.61,.05-1.94,.11-3.89,.22-5.82,.03,1.54,.06,3.07,.1,4.61,.03-.8,.07-1.61,.11-2.41,.03,.34,.1,1.03,.13,1.37,.08-.93,.16-1.85,.23-2.78,.02,2.08,.04,4.16,.08,6.24,.04-1.75,.08-3.5,.12-5.25,.04,1.82,.06,3.63,.1,5.45,.05-2.09,.07-4.18,.21-6.25,.05,1.54,.09,3.08,.14,4.63,.04-1.68,.06-3.37,.11-5.05,.03,2.22,.06,4.45,.11,6.67,.04-1.61,.06-3.23,.1-4.84,.06,1.41,.12,2.83,.21,4.23,.06-1,.09-2.01,.15-3.02,.02,2.15,.04,4.31,.08,6.46,.05-1.14,.09-2.28,.14-3.42,.07,4.51-.01,9.03,.07,13.54,.04-.8,.12-2.41,.16-3.21,.14,2.21,.15,4.43,.26,6.64,.05-.28,.15-.85,.2-1.14,.01,2.01,.03,4.01,.07,6.02,.04-2.49,.06-4.99,.12-7.48,.14,6.54-.06,13.09,.12,19.64,.05-3.31,.02-6.62,.11-9.92,.05,2.66,.04,5.33,.04,7.99h.12c.03-6.78-.09-13.56,.06-20.34,.11,4.92-.03,9.85,.11,14.78,.04-1.95,.06-3.9,.1-5.85,.04,1.41,.08,2.81,.12,4.22,.05-2.22,.1-4.43,.24-6.64,.02,1.64,.03,3.28,.04,4.93h.09c.01-2.07,.03-4.12,.09-6.17,.09,4.38-.03,8.77,.11,13.16,.12-5.33-.05-10.67,.11-15.99,.1,4.65-.04,9.32,.11,13.97,.05-2.7,.04-5.4,.11-8.09,.04,2.97,.03,5.94,.11,8.9,.13-6.07-.07-12.15,.11-18.22,.05,7.63,.11,15.25,.22,22.88,.1-9.41,.01-18.83,.03-28.24h-1.33s-.08,22.13,.05,33.25c.14-6.46-.06-12.94,.11-19.4,.06,3.48,0,6.97,.1,10.46,.05-6.15,.09-12.3,.21-18.44,.13,7.54-.07,15.09,.1,22.63,.13-7.16-.06-14.33,.1-21.49,.13,6.84-.06,13.69,.1,20.54,.05-7.35,.1-14.71,.21-22.06,.14,7.73-.06,15.47,.11,23.2,.1-7.45,.04-23.34,.04-23.34h.11s-.08,14.37,.06,21.06c.09-7.23,.11-14.46,.21-21.68,.13,8.24-.06,16.49,.1,24.72,.15-7.73-.07-15.47,.11-23.2,.12,5.7-.06,11.41,.1,17.11,.06-8.87,.04-17.75,.2-26.62,.15,9-.07,18.01,.11,27.01,.13-6.59-.07-13.19,.1-19.78,.12,5.64-.06,11.29,.1,16.93,.13-6.22-.06-12.44,.11-18.66,.36,4.02,0,8.14,.2,12.19,.07-3.6,.03-7.21,.07-10.82,.08,1.31,.17,2.63,.27,3.94,.09-2.77,.13-5.55,.19-8.32,.04,1.2,.07,2.4,.11,3.6,.03-1.77,.05-3.54,.1-5.31,.07,2.98,.13,5.95,.2,8.93,.07-2.98,.14-5.95,.22-8.93,.05,3.33,.03,9.63,.03,9.63h.12s-.05-7.96,.05-12.11c.07,2.22,.12,4.44,.21,6.65,.03-1.46,.06-2.91,.09-4.36,.03,1.64,.09,3.29,.12,4.93,.01-1.12,.02-2.23,.03-3.35,.04,.1,.13,.29,.18,.39,.07-.59,.15-1.18,.22-1.77,.03,1.57,.05,3.14,.09,4.72,.04-2.67,.02-5.34,.21-7.99,.04,2.73,.03,5.46,.1,8.18,.06-3.48,0-6.96,.21-10.43,.03,2.02,.05,4.04,.09,6.06,.08-1.65,.15-3.29,.22-4.94,.03,2.21,.03,4.43,.21,6.62,.04-2.08,.06-4.16,.09-6.24,.04,1.72,.08,3.44,.15,5.17,.21-1.76,.24-3.56,.29-5.35,.03,1.45,.06,2.9,.1,4.36,.04-.94,.05-1.89,.09-2.82,.06,1.69,.1,3.4,.23,5.08,.04-2.71,.04-5.43,.1-8.14,.04,1.58,.05,3.15,.09,4.73,.14-2.52,.18-5.05,.23-7.58,.05,3.48,.1,6.97,.2,10.45,.04-1.83,.06-3.67,.1-5.5,.03,1.77,.05,3.54,.09,5.31,.11-2.02,.2-4.05,.41-6.04,.02,.32,.07,.95,.1,1.26,.03-.27,.09-.82,.13-1.09,.11,1.18,.22,2.36,.34,3.55,.01-1.44,.02-2.88,.05-4.31,.04,.51,.11,1.54,.15,2.06,.04-.62,.03-1.26,.08-1.87,.08,.91,.15,1.83,.26,2.74,.06-.09,.18-.27,.24-.36,0,.54,.02,1.63,.03,2.17,.05-1.4,.09-2.8,.16-4.19,.09,1.01,.12,2.03,.19,3.05,.02-1.45,.04-2.9,.07-4.35,.06,1.45,.12,2.91,.2,4.36,.07-1.01,.13-2.02,.21-3.02,.16,2.27,.18,4.55,.21,6.83,.05-.56,.02-1.15,.1-1.69,.07,.68,.13,1.37,.21,2.05,.14-1.83,.24-3.66,.44-5.47,.23,4.93,.09,9.88,.32,14.81,.04-4.04,.04-8.09,.15-12.13,.05,.26,.14,.79,.19,1.05,.02-1.38,.04-2.75,.07-4.12,.13,5.13-.04,10.27,.12,15.4,.08-4.06-.02-8.12,.1-12.17,.05,2.88-.02,5.77,.2,8.63,.23-1.89,.16-3.85,.23-5.77,.03,3.17,.01,6.34,.09,9.5,.05-3.04,.03-6.08,.09-9.12,.16,2.71,.16,5.44,.21,8.16,.24-3.85,.11-7.73,.22-11.59,.04,2.72,.04,5.45,.1,8.18,.13-2.72,.16-5.45,.22-8.17,.06,3.67-.02,7.36,.21,11.02,.07-4.12-.03-8.24,.09-12.35,.08,3.68-.01,7.37,.12,11.05,.34-4.86-.02-9.79,.2-14.66,.14,4.68-.13,9.4,.18,14.06,.1-3.61,.02-7.22,.13-10.83,.08,3.8-.01,7.61,.09,11.41,.07-3.99,.11-7.98,.2-11.97,.16,2.27,.17,4.55,.22,6.83,.04-3.04,.03-6.09,.08-9.13,.07,1,.14,2,.2,3,.06-.55,.14-1.09,.22-1.64,.03,.37,.09,1.12,.13,1.49,.03-1.2,.06-2.4,.1-3.6,.13,1.63,.15,3.28,.2,4.93,.03-1.39,.06-2.78,.09-4.16,.03,1.64,.08,3.29,.11,4.93,.08-1.77,.14-3.54,.21-5.31,.11,2.01,.15,4.03,.21,6.05,.04-2.91,.03-5.83,.1-8.74,.12,2.15,.16,4.3,.21,6.46,.04-1.14,.08-2.28,.13-3.42,.09,1.26,.13,2.52,.2,3.79,.07-2.4,.13-4.8,.19-7.2,.04,2.29,.06,4.57,.15,6.86,.12-1.9,.12-3.82,.16-5.72,.04,.77,.08,1.53,.13,2.3,.08-.44,.14-.88,.24-1.31,.07,1.11,.11,2.22,.17,3.34,.04-2.07,.09-4.14,.2-6.21,.05,1.63,.09,3.27,.17,4.9,.08-.69,.15-1.39,.23-2.08,.02,.76,.08,2.27,.1,3.02,.04-1.01,.08-2.01,.12-3.01,.02,.75,.06,2.25,.08,3.01,.08-1.31,.16-2.62,.24-3.93,.02,2.46,.06,4.91,.19,7.36,.04-2.28,.06-4.55,.12-6.83,.03,1.51,.03,3.02,.05,4.52,.08-.75,.17-1.49,.26-2.24,.05,3.1,.03,6.21,.1,9.31,.04-2.09,.06-4.18,.11-6.27,.13,5.83-.06,11.67,.11,17.5,.11-4.75-.09-9.52,.2-14.25,.12,6.4-.05,12.8,.1,19.19,.14-7.42-.07-14.84,.11-22.25,.08,6.15-.02,12.3,.22,18.44,.11-6.59-.07-13.19,.1-19.78,.12,5.96-.05,11.92,.1,17.88,.22-4.3,.1-8.62,.21-12.93,.14,6.78-.06,13.57,.11,20.35,.11-4.94-.04-9.89,.11-14.83,.13,6.53-.06,13.06,.1,19.59,.07-8.62,.01-17.25,.21-25.87,.13,9.38-.07,18.77,.11,28.15,.09-7.83,.03-22.39,.03-22.39h.12c.07,7.71-.18,15.44,.17,23.14,.11-6.08-.07-12.17,.1-18.25,.12,7-.06,14.02,.1,21.02,.1-5.1-.03-10.2,.09-15.29,.12-5.23-.04-10.46,.11-15.68,.09,10.6,.01,21.2,.04,31.8h.12s-.08-14.9,.06-22.22c.13,5.89-.06,11.79,.11,17.69,.06-3.39,0-6.77,.08-10.16,.15-6.31-.04-12.63,.12-18.94,.15,9.32-.07,18.64,.11,27.96,.09-4.37-.02-8.75,.09-13.12,.13-5.83-.04-11.67,.11-17.5,.11,9.92,.04,29.17,.04,29.17h.11s-.08-15.95,.05-24.22c.14,7.1-.06,14.2,.11,21.3,.11-5.6-.04-11.21,.09-16.82,.11-4.09,0-8.19,.11-12.28,.15,9.95-.06,19.91,.11,29.86,.12-5.16-.03-10.32,.09-15.48,.09-3.65,.02-7.3,.13-10.95,.12,6.34-.07,12.68,.1,19.02,.16-5.14-.15-10.3,.19-15.41,.09,2.85,.05,5.71,.12,8.57,.09-4.31,0-8.62,.08-12.92,.1,1.89,.21,3.77,.34,5.66,.03-.81,.06-1.62,.1-2.42,.04,.94,.07,1.89,.12,2.83,.02-2.72,.02-5.45,.08-8.17,.06,2.98,.11,5.96,.23,8.93,.04-2.85,.02-5.7,.09-8.55,.05,3.04,.03,6.08,.09,9.13,.02-1.07,.04-2.14,.07-3.21,.05,.29,.11,.59,.16,.88,.11-1.94,.15-3.89,.2-5.84,.04,2.21,.08,4.42,.21,6.62,.06-3.15-.05-6.32,.22-9.45,.02,1.56,.02,3.12,.03,4.68,.05-.26,.15-.78,.2-1.04,.01,1.75,.03,3.51,.06,5.27,.04-1.2,.07-2.4,.12-3.6,.03,1.58,.04,3.15,.08,4.73,.28-2.88,.29-5.81,.31-8.73,.07,1.07,.13,2.14,.22,3.2,.04-.88,.06-1.76,.11-2.64,.06,.57,.03,1.11,.12,1.69,.03-1.39,.06-2.78,.1-4.16,.14,1.7,.16,3.41,.21,5.12,.03-1.77,.05-3.55,.1-5.32,.12,1.64,.16,3.29,.21,4.94,.02-2.21,.04-4.43,.17-6.63,.07,1.85,.11,3.7,.25,5.53,.17-1.37,.23-2.79,.29-4.18,.09,1.01,.18,2.02,.32,3,.02-.56,.04-1.12,.07-1.68,.11,.41,.22,.82,.32,1.24,.06-.21,.11-.43,.17-.64,.02,.87,.03,1.73,.06,2.6,.03-.6,.02-1.2,.06-1.8,.1,.1,.2,.21,.31,.31,.04-.7,.09-1.4,.14-2.1,.04,1,.08,2,.12,3,.06-1.33,.1-2.65,.19-3.98,.04,.88,.06,1.76,.11,2.64,.07-.69,.14-1.37,.23-2.05,.04,1.26,.06,2.52,.11,3.78,.03-1.46,.06-2.91,.1-4.36,.09,1.64,.15,3.28,.22,4.92,.03-1.64,.06-3.29,.1-4.93,.11,2.34,.16,4.68,.21,7.03,.04-1.58,.06-3.16,.1-4.74,.04,1.59,.07,3.18,.14,4.77,.12-1.38,.12-2.79,.17-4.18,.06,1.77,.13,3.54,.23,5.3,.03-2.79,.02-5.58,.08-8.36,.04,2.85,.02,5.71,.17,8.55,.11-.66,.19-1.34,.28-2.02,.05,2.2,.19,4.38,.29,6.57,.03-2.28,.08-4.56,.12-6.84,.06,.07,.13,.13,.19,.2,.04-.24,.08-.47,.13-.7,.04,5.05-.06,10.11,.06,15.16,.08-4.3,0-8.62,.21-12.92,.03,1.95,.05,3.91,.09,5.86,.19-3.53,.14-7.1,.45-10.62,.06,5.73,0,11.47,.02,17.2h.11c-.02-5.3,.09-10.59,.18-15.88,.13,9.51-.08,19.02,.1,28.53,.11-6.56-.03-13.13,.07-19.69,.08-3.14,.06-6.28,.14-9.41,.1,7.38,.04,23.18,.04,23.18h.11c0-5.94-.01-11.88,0-17.82h.11s-.08,13.06,.06,19.74c.08-7.51,.14-21.53,.14-21.53h.11s-.09,14.27,.06,21.91c.1-8.56-.06-17.12,.21-25.68,.08,5.61,.03,16.24,.03,16.24h.1c0-3.85-.04-7.71,.05-11.56,.1,1.26,.16,2.52,.24,3.79,.01-2.67,.01-5.33,.13-7.99,.06,.5,.12,1.01,.18,1.51,.01-2.03,.03-4.05,.07-6.08,.03,1.64,.06,3.29,.09,4.94,.03-.52,.09-1.55,.12-2.06,.02,.32,.05,.95,.07,1.27,.06-.29,.11-.58,.18-.87,.02,1.19,.05,2.38,.08,3.58,.03-1.9,.04-3.81,.08-5.71,.05,1.33,.1,2.66,.15,4,.09-1.33,.12-2.66,.18-4,.02,.52,.07,1.54,.09,2.06,.06-.88,.13-1.75,.21-2.63,.04,1.13,.08,2.27,.13,3.41,.03-.62,0-1.25,.04-1.85,.1,.21,.21,.42,.32,.64,0-1.69,.02-3.38,.04-5.08,.04,2.03,.07,4.07,.11,6.1,.04-1.21,.06-2.41,.11-3.61,.03,1.72,.06,3.43,.1,5.15,.06-2.1,.13-4.2,.22-6.3,.04,.95,.05,1.9,.09,2.85,.04-.5,.08-1.01,.13-1.51,.03,.82,.05,1.64,.09,2.47,.14-.68,.25-1.37,.39-2.06,.05,.87,.08,1.73,.14,2.6,.02-.39,.04-.77,.06-1.16,.1-.12,.2-.24,.31-.36,0,1.21,.01,2.43,.03,3.65,.05-1.15,.09-2.29,.14-3.43,.13,2.28,.13,4.58,.19,6.86,.15-2.6,.19-5.21,.31-7.81,.04,2.09,.05,4.19,.17,6.27,.05-1.14,.1-2.28,.15-3.41,.04,3.66,.02,7.31,.02,10.97h.1s-.07-10.23,.05-15.64c.09,3.86,.12,7.73,.23,11.59,.09-4.43-.04-8.87,.09-13.31,.11,7.22-.04,14.46,.22,21.68,.05-4.12,0-8.24,.21-12.35,.06,3.75-.03,7.5,.12,11.24,.12-2.35,.14-4.7,.19-7.05,.11,5.89-.06,11.79,.1,17.69,.13-6.53-.06-13.06,.1-19.59,.13,5.83-.06,11.67,.11,17.49,.11-6.78,.11-13.57,.21-20.35,.13,7.29-.07,14.58,.1,21.87,.12-5.26-.05-10.53,.11-15.79,.08,3.99,0,7.99,.1,11.98,.06-3.03,0-6.08,.21-9.1,.06,3.29,.03,6.57,.11,9.86,.14-6.15-.06-12.3,.11-18.44,.12,6.34-.07,12.68,.1,19.02,.06-3.42,.02-6.84,.06-10.26,.04,.51,.11,1.54,.15,2.06,.05-1.51,.09-3.03,.18-4.54,.03,1.63,.06,3.26,.08,4.9,.04-.26,.13-.79,.18-1.05,.03,.8,.06,1.61,.09,2.41,.04-3.74,0-7.48,.2-11.2,.04,2.88,.03,8.67,.03,8.67h.11s-.01-5.81,.03-8.69c.04,.5,.09,.99,.14,1.5,.09-1.57,.15-3.14,.21-4.72,.03,2.09,.04,4.17,.1,6.26,.04-1.9,.05-3.8,.1-5.7,.04,2.34,.05,4.69,.1,7.03,.13-2.46,.16-4.94,.22-7.41,.08,4.31-.03,8.62,.1,12.93,.09-4.37-.03-8.75,.1-13.12,.04,2.41,.05,4.81,.09,7.22,.04-1.07,.07-2.15,.11-3.22,.06,1.19,.11,2.4,.21,3.59,.04-1.26,.05-2.52,.09-3.77,.04,.51,.11,1.54,.15,2.06,.02-2.34,.03-4.68,.09-7.02,.04,1.83,.06,3.67,.11,5.5,.29-3.46,.24-6.96,.32-10.45,.06,2.83,.03,5.67,.02,8.51,.07-.22,.15-.43,.22-.65,.02,1.12,.04,2.24,.07,3.35,.03-2.53,.03-5.07,.09-7.6,.04,1.26,.06,2.53,.11,3.79,.03-1.71,.06-3.41,.1-5.12,.03,1.26,.06,2.52,.1,3.78,.03-1.32,.06-2.65,.1-3.97,.03,.76,.1,2.27,.13,3.03,.1-1.13,.21-2.27,.31-3.4,.03,1.26,.06,2.51,.1,3.78,.03-2.08,.03-4.15,.03-6.23,.12,.66,.25,1.32,.4,1.96,.14-.36,.29-.73,.42-1.1,.06,.74,.13,1.48,.23,2.2,.05-.14,.15-.43,.2-.58,.12,4.02,.02,8.05,.26,12.06,.1,3.63,.02,7.27,.08,10.91,.05-.5,.11-1,.17-1.5,0,2.78,0,5.57,.08,8.35,.05-2.5,.04-5,.04-7.5h.11c0,3.51-.04,7.03,.06,10.55,.1-4.43-.04-8.88,.1-13.31,.13,5.89-.06,11.79,.11,17.69,.11-5.39-.05-10.78,.1-16.16,.1,4.24-.01,8.49,.1,12.74,.09-4.53,.04-14,.04-14h.14c0,3.6-.05,7.2,.05,10.79,.16-1.38,.13-2.8,.15-4.2,0-4.48-.07-8.97,.05-13.45,.12,6.71-.06,13.42,.1,20.13,.12-7.3-.06-14.61,.09-21.91,.13,6.05-.06,12.11,.11,18.17,.12-7.12-.07-14.25,.1-21.37,.12,8.31-.07,16.63,.1,24.94,.09-4.96,.01-9.92,.03-14.87h1.71c0,3.29-.04,6.58,.05,9.86,.04-2.31,.04-4.62,.1-6.93,.04,2.67,.02,5.33,.09,8,.04-2.61,.03-5.22,.1-7.82,.04,2.9,.02,5.81,.09,8.71,.07-3.35,.04-6.7,.04-10.05h.1c0,2.4,0,4.8,.06,7.2,0-6.23,.25-12.44,.29-18.67,.04,1.42,.06,2.84,.11,4.26,.03-1.95,.05-3.91,.09-5.86,.04,1.48,.05,2.95,.1,4.43,.04-2.96,.09-5.92,.2-8.88,.05,2.13,.09,4.26,.17,6.38,.08-.58,.14-1.17,.23-1.74,0,1.59,.05,3.18,.07,4.77,.03-1.54,.08-3.07,.11-4.61,.03,1.12,.06,2.24,.09,3.37,.03-1.3,.06-2.6,.1-3.9,.06,1.89,.13,3.78,.19,5.67,.17-3.36,.12-6.74,.2-10.12,.12,5.45-.05,10.91,.1,16.36,.08-3.73,0-7.46,.08-11.19,.25,5.32,.22,10.67,.42,15.99,.05-4.15,.1-8.3,.2-12.44,.11,5.93-.06,11.86,.09,17.78,.08-7.82-.02-15.65,.2-23.47,.03,5.75,.07,11.49,.17,17.24,.21-4.97,.1-9.95,.2-14.92,.29,3.83,.06,7.71,.21,11.56,.23-3.3,.1-6.64,.17-9.96,.56,3.28,.29,6.76,.42,10.13,.06-4.57,.02-9.15,.21-13.71,.19,2.24,.1,4.51,.16,6.77,.04-1.07,.07-2.13,.12-3.19,.02,2.24,.03,4.49,.07,6.73,.08-.75,.16-1.51,.24-2.27,0,2.12,.02,4.25,.08,6.37,.07-3.55,0-7.11,.07-10.67,.06,.59,.06,1.16,.13,1.75,.12-2.6,.13-5.2,.18-7.8,.15,3.85,.12,7.7,.19,11.55,.09-4.03,.29-8.05,.3-12.09,.08,3.94,.03,7.88,.04,11.82h.1c0-1.81,.01-3.61,.04-5.42,.04,.7,.08,1.41,.13,2.12,.03-3.02,.09-6.04,.19-9.05,.03,2.78,.03,5.56,.08,8.35,.07-1.62,.06-3.27,.28-4.85,.14-1.02,.16-2.08,.23-3.13,.04,1.83,.12,3.66,.3,5.46,.18-2.41,.11-4.86,.22-7.29,.11,1.27,.13,2.55,.22,3.83,.07-1.62,.09-3.24,.13-4.86,.03,.76,.06,1.53,.11,2.29,.03-1.42,.04-2.84,.08-4.25,.04,1.36,.07,2.72,.11,4.09,.09-1.23,.12-2.48,.19-3.72,.03,1.06,.05,2.12,.09,3.18,.04-.82,.06-1.65,.1-2.47,.04,.89,.07,1.79,.12,2.69,.07-1.13,.16-2.25,.25-3.37,.12,.98,.22,1.96,.32,2.95,.04-.58,.02-1.18,.08-1.76,.07,.41,.14,.83,.21,1.25,.05-.52,0-1.07,.08-1.58,.06,.53,.01,1.03,.11,1.57,.03-1.3,.06-2.59,.1-3.89,.03,2.66,.02,5.33,.08,8,.04-1.95,.06-3.91,.1-5.86,.02,.88,.03,1.75,.06,2.63,.04-.25,.13-.74,.18-.99,0,3.36-.03,6.72,.04,10.08,.14-4.14,.13-8.29,.22-12.44,.05,2.64,0,5.28,.04,7.92,.01,2.4,.2,4.79,.26,7.19,.02-2.55,.02-5.09,.08-7.64,.04,2.02,.04,4.03,.09,6.05,.13-1.89,.15-3.79,.21-5.69,.04,3.2,0,6.4,.08,9.6,.05-3.32,.04-6.64,.2-9.95,.1,3.84-.12,7.71,.2,11.53,.1-5.03-.06-10.06,.09-15.09,.1,4.14-.07,8.3,.2,12.42,.03-2.78,.02-5.55,.08-8.33,.15,3.08,.13,6.16,.21,9.24,.06-3.13-.05-6.28,.19-9.39,.04,2.77,.02,5.54,.08,8.31,.02-1.21,.05-2.42,.07-3.63,.04,0,.12,0,.17,0,0,1.8,.03,3.61,.06,5.41,.06-4.32,.09-8.65,.21-12.97,.03,2.31,.03,4.62,.08,6.93,.17-2.48,.15-4.98,.21-7.47,.04,2.84,.03,5.69,.1,8.53,.04-2.31,.04-4.62,.08-6.92,.12,3.67,.13,7.34,.21,11.01,.05-4.51,.09-9.01,.21-13.51,.05,3.2,0,6.4,.08,9.6,.14-3.08,.14-6.17,.22-9.25,.12,2.07,.13,4.14,.18,6.22,.03-2.25,.04-4.5,.18-6.74,.06,2.25,.07,4.5,.12,6.75,.05-3.14,.1-6.28,.19-9.41,.04,1.84,.07,3.68,.13,5.52,.06-.76,.1-1.52,.17-2.28,0,.44,.15,.91,.2,1.36,.05-.58,.03-1.18,.1-1.76,.01,.7,.04,1.41,.06,2.11,.03-.27,.06-.54,.1-.8,.08,1.59,.45,3.07,.54,4.65,.05,2.16,.02,4.32,.08,6.48,.04-1.78,.05-3.57,.1-5.35,.09,.53,.11,1.04,.22,1.58,.02-1.35,.03-2.7,.06-4.05,.05,1.89,.02,3.83,.26,5.69,.04-.53,.13-1.59,.17-2.12,.14,2.06,.12,4.14,.17,6.2,.04-3.02,.07-6.04,.18-9.05,.15,2.42,.19,4.85,.31,7.28,.03-2.61,.02-5.22,.09-7.82,.03,1.71,.03,3.42,.04,5.12,.04-.25,.13-.74,.17-.99,.01,1.58,.04,3.17,.08,4.75,.06-3.67-.02-7.36,.18-11.02,.16,1.94,.24,3.9,.31,5.86,.02-1.42,.04-2.84,.08-4.26,.26,1.49,.26,3.07,.32,4.62,.01-1.6,.03-3.19,.05-4.78l.12,1.2c.06-1.11,.1-2.22,.18-3.32,.06,.84,.11,1.68,.19,2.52,.08-1.97,.09-3.95,.12-5.92,.03,1.6,.06,3.19,.1,4.79,.03-1.89,.05-3.79,.09-5.68,.16,2.11,.2,4.25,.31,6.37,.02-1.28,.04-2.56,.06-3.84,.02,.22,.07,.67,.09,.9,.13,.1,.27,.19,.4,.3,0-.71,0-1.41,.02-2.12,.08,2.01,.14,4.02,.21,6.04,.2-2.56,.12-5.16,.13-7.74h.09c0,2.11,.01,4.21,.06,6.31,.04-1.67,.06-3.34,.12-5,.07,.07,.14,.15,.21,.22,.04-.59,.1-1.18,.15-1.77,.03,.52,.07,1.04,.1,1.57,.06-.7,.12-1.39,.18-2.09,.03,.29,.1,.88,.13,1.17,.04-.58,.02-1.17,.09-1.74,.04,.52-.04,1.02,.04,1.56,.06-.22,.13-.43,.2-.65,0,.48,.03,1.44,.04,1.92,.07-.59,.08-1.2,.17-1.78,.37,4.24,0,8.57,.35,12.81,.03-1.76,.01-3.52,0-5.28,.04,.24,.13,.73,.17,.97,.05-.45,.09-.9,.13-1.35,0,.73,0,1.79,0,1.79,0,0,.17-.34,.98-.5v-31.43c-.84-.1-.9-.2-.97-.3Z"/></svg>