<?xml version="1.0" encoding="UTF-8"?><svg id="a" xmlns="http://www.w3.org/2000/svg" xmlns:xlink="http://www.w3.org/1999/xlink" viewBox="0 0 509 192"><defs><style>.ak{letter-spacing:.02em;}.al{letter-spacing:-.02em;}.am{clip-path:url(#ac);}.an{fill:#fff;}.ao{clip-path:url(#l);}.ap{letter-spacing:0em;}.aq{clip-path:url(#h);}.ar{letter-spacing:-.02em;}.as{letter-spacing:0em;}.at{stroke:#d9d9d9;stroke-width:.75px;}.at,.au,.av,.aw,.ax,.ay{fill:none;}.at,.ax,.ay{stroke-linejoin:round;}.b`{letter-spacing:0em;}.ba{clip-path:url(#ah);}.bb{clip-path:url(#ag);}.bc{letter-spacing:.01em;}.bd{clip-path:url(#x);}.be{letter-spacing:-.01em;}.bf{letter-spacing:0em;}.bg{clip-path:url(#aa);}.bh{clip-path:url(#aj);}.bi{clip-path:url(#n);}.bj{clip-path:url(#a`);}.bk{font-family:Lato-Bold, Lato;font-size:8px;}.bl,.bm{font-size:7px;}.bl,.bm,.bn,.bo,.bp{font-family:Calibri, Calibri;}.bl,.bn,.bp{fill:#595959;}.bq{letter-spacing:0em;}.br{clip-path:url(#ab);}.bs{clip-path:url(#u);}.bt{clip-path:url(#o);}.bu{clip-path:url(#m);}.bv{letter-spacing:-.02em;}.bw{clip-path:url(#b);}.bx{clip-path:url(#ae);}.by{letter-spacing:0em;}.c`{clip-path:url(#c);}.ca{clip-path:url(#t);}.cb{clip-path:url(#e);}.cc{clip-path:url(#w);}.cd{clip-path:url(#ai);}.ce{clip-path:url(#af);}.bm,.cf,.cg{fill:#016669;}.ch{clip-path:url(#d);}.ci{clip-path:url(#v);}.au,.cj{fill-rule:evenodd;}.ck{clip-path:url(#p);}.cf{opacity:.7;}.cl{letter-spacing:0em;}.cm{letter-spacing:0em;}.cn{clip-path:url(#f);}.co{letter-spacing:0em;}.cp{clip-path:url(#j);}.cq{letter-spacing:.02em;}.cr{clip-path:url(#q);}.cs{clip-path:url(#y);}.ct{letter-spacing:0em;}.aw{stroke:#016669;stroke-miterlimit:10;}.bn{font-size:7.86px;}.bo{font-size:9.26px;}.cj{fill:#d4d4d4;}.cu{clip-path:url(#s);}.bp{font-size:7.88px;}.ax{stroke:#4472c4;}.ax,.ay{stroke-linecap:round;stroke-width:2.25px;}.cv{clip-path:url(#r);}.cw{letter-spacing:-.02em;}.cx{letter-spacing:0em;}.ay{stroke:#ed7d31;}.cy{clip-path:url(#i);}.d`{clip-path:url(#k);}.da{fill:#666;}.db{letter-spacing:0em;}.dc{clip-path:url(#g);}.dd{letter-spacing:0em;}.de{clip-path:url(#ad);}</style><clipPath id="b"><rect class="av" x="4.79" y="-7" width="329.88" height="190.71"/></clipPath><clipPath id="c"><rect class="av" x="4.79" y="-7" width="329.88" height="190.71"/></clipPath><clipPath id="d"><rect class="av" x="4.79" y="-7" width="329.88" height="190.71"/></clipPath><clipPath id="e"><rect class="av" x="4.79" y="-7" width="329.88" height="190.71"/></clipPath><clipPath id="f"><rect class="av" x="4.79" y="-7" width="329.88" height="190.71"/></clipPath><clipPath id="g"><rect class="av" x="4.79" y="-7" width="329.88" height="190.71"/></clipPath><clipPath id="h"><rect class="av" x="4.79" y="-7" width="329.88" height="190.71"/></clipPath><clipPath id="i"><rect class="av" x="4.79" y="-7" width="329.88" height="190.71"/></clipPath><clipPath id="j"><rect class="av" x="4.79" y="-7" width="329.88" height="190.71"/></clipPath><clipPath id="k"><rect class="av" x="4.79" y="-7" width="329.88" height="190.71"/></clipPath><clipPath id="l"><rect class="av" x="4.79" y="-7" width="329.88" height="190.71"/></clipPath><clipPath id="m"><rect class="av" x="4.79" y="-7" width="329.88" height="190.71"/></clipPath><clipPath id="n"><rect class="av" x="4.79" y="-7" width="329.88" height="190.71"/></clipPath><clipPath id="o"><rect class="av" x="4.79" y="-7" width="329.88" height="190.71"/></clipPath><clipPath id="p"><rect class="av" x="4.79" y="-7" width="329.88" height="190.71"/></clipPath><clipPath id="q"><rect class="av" x="4.79" y="-7" width="329.88" height="190.71"/></clipPath><clipPath id="r"><rect class="av" x="4.79" y="-7" width="329.88" height="190.71"/></clipPath><clipPath id="s"><rect class="av" x="4.79" y="-7" width="329.88" height="190.71"/></clipPath><clipPath id="t"><rect class="av" x="4.79" y="-7" width="329.88" height="190.71"/></clipPath><clipPath id="u"><rect class="av" x="4.79" y="-7" width="329.88" height="190.71"/></clipPath><clipPath id="v"><rect class="av" x="4.79" y="-7" width="329.88" height="190.71"/></clipPath><clipPath id="w"><rect class="av" x="4.79" y="-7" width="329.88" height="190.71"/></clipPath><clipPath id="x"><rect class="av" x="4.79" y="-7" width="329.88" height="190.71"/></clipPath><clipPath id="y"><rect class="av" x="4.79" y="-7" width="329.88" height="190.71"/></clipPath><clipPath id="a`"><rect class="av" x="4.79" y="-7" width="329.88" height="190.71"/></clipPath><clipPath id="aa"><rect class="av" x="4.79" y="-7" width="329.88" height="190.71"/></clipPath><clipPath id="ab"><rect class="av" x="4.79" y="-7" width="329.88" height="190.71"/></clipPath><clipPath id="ac"><rect class="av" x="4.79" y="-7" width="329.88" height="190.71"/></clipPath><clipPath id="ad"><rect class="av" x="4.79" y="-7" width="329.88" height="190.71"/></clipPath><clipPath id="ae"><rect class="av" x="4.79" y="-7" width="329.88" height="190.71"/></clipPath><clipPath id="af"><rect class="av" x="4.79" y="-7" width="329.88" height="190.71"/></clipPath><clipPath id="ag"><rect class="av" x="4.79" y="-7" width="329.88" height="190.71"/></clipPath><clipPath id="ah"><rect class="av" x="4.79" y="-7" width="329.88" height="190.71"/></clipPath><clipPath id="ai"><rect class="av" x="4.79" y="-7" width="329.88" height="190.71"/></clipPath><clipPath id="aj"><rect class="av" x="4.79" y="-7" width="329.88" height="190.71"/></clipPath></defs><rect class="an" x="337" y="12" width="122" height="160"/><rect class="cf" x="459" y="12" width="34" height="160"/><rect class="an" x="4.79" y="6" width="329.88" height="177.71"/><path class="at" d="M30.56,27.79H324.36M30.56,40.68H324.36M30.56,53.56H324.36M30.56,66.45H324.36M30.56,81.91H324.36M30.56,94.8H324.36M30.56,107.68H324.36M30.56,123.15H324.36"/><line class="at" x1="30.56" y1="136.03" x2="324.36" y2="136.03"/><polyline class="ax" points="35.29 79.99 46.64 68.43 57.96 122.35 69.18 97.08 80.5 102.53 91.83 115.53 103.15 86.81 114.47 83.45 125.79 91.63 137.12 113.44 148.44 122.98 159.76 115.53 171.09 122.35 182.3 69.09 193.63 91.63 204.95 101.17 216.27 132.57 227.59 125.7 238.92 74.54 250.24 85.44 261.56 80.73 272.89 110.71 284.21 102.53 295.53 71.19 306.75 77.27 318.12 122.98"/><polyline class="ay" points="35.29 92.06 46.64 43.95 57.96 52.23 69.18 60.61 80.5 62.58 91.83 62.58 103.15 58.74 114.47 81.81 125.79 70.27 137.12 48.39 148.44 52.23 159.76 67.71 171.09 86.93 182.3 42.65 193.63 68.3 204.95 88.21 216.27 81.81 227.59 47.11 238.92 84.37 250.24 57.46 261.56 91.37 272.89 65.15 284.21 44.54 295.53 44.54 306.75 77.27 318.12 70.86"/><g class="bw"><text class="bn" transform="translate(18.35 138.26)"><tspan x="0" y="0">0</tspan></text></g><g class="c`"><text class="bn" transform="translate(14.37 124.61)"><tspan class="co" x="0" y="0">2</tspan><tspan x="4" y="0">0</tspan></text></g><g class="ch"><text class="bn" transform="translate(14.37 110.96)"><tspan class="co" x="0" y="0">4</tspan><tspan x="4" y="0">0</tspan></text></g><g class="cb"><text class="bn" transform="translate(14.37 97.31)"><tspan class="co" x="0" y="0">6</tspan><tspan x="4" y="0">0</tspan></text></g><g class="cn"><text class="bn" transform="translate(14.37 83.66)"><tspan class="co" x="0" y="0">8</tspan><tspan x="4" y="0">0</tspan></text></g><g class="dc"><text class="bn" transform="translate(10.39 70.01)"><tspan x="0" y="0">100</tspan></text></g><g class="aq"><text class="bn" transform="translate(10.39 56.36)"><tspan x="0" y="0">120</tspan></text></g><g class="cy"><text class="bn" transform="translate(10.39 42.71)"><tspan x="0" y="0">140</tspan></text></g><g class="cp"><text class="bn" transform="translate(10.39 29.06)"><tspan x="0" y="0">160</tspan></text></g><g class="d`"><text class="bp" transform="translate(37.94 159.09) rotate(-90)"><tspan class="by" x="0" y="0">08:0</tspan><tspan class="b`" x="14.07" y="0">0</tspan></text></g><g class="ao"><text class="bn" transform="translate(49.26 159.08) rotate(-90)"><tspan x="0" y="0">08:10</tspan></text></g><g class="bu"><text class="bn" transform="translate(60.59 159.08) rotate(-90)"><tspan x="0" y="0">08:20</tspan></text></g><g class="bi"><text class="bn" transform="translate(71.89 159.08) rotate(-90)"><tspan x="0" y="0">08:30</tspan></text></g><g class="bt"><text class="bn" transform="translate(83.21 159.08) rotate(-90)"><tspan x="0" y="0">08:40</tspan></text></g><g class="ck"><text class="bn" transform="translate(94.54 159.09) rotate(-90)"><tspan x="0" y="0">08:50</tspan></text></g><g class="cr"><text class="bn" transform="translate(105.83 159.09) rotate(-90)"><tspan x="0" y="0">09:00</tspan></text></g><g class="cv"><text class="bn" transform="translate(117.15 159.08) rotate(-90)"><tspan x="0" y="0">09:10</tspan></text></g><g class="cu"><text class="bn" transform="translate(128.48 159.08) rotate(-90)"><tspan x="0" y="0">09:20</tspan></text></g><g class="ca"><text class="bn" transform="translate(139.78 159.08) rotate(-90)"><tspan x="0" y="0">09:30</tspan></text></g><g class="bs"><text class="bn" transform="translate(151.1 159.08) rotate(-90)"><tspan x="0" y="0">09:40</tspan></text></g><g class="ci"><text class="bp" transform="translate(162.4 159.09) rotate(-90)"><tspan class="by" x="0" y="0">09:5</tspan><tspan class="b`" x="14.07" y="0">0</tspan></text></g><g class="cc"><text class="bn" transform="translate(173.72 159.09) rotate(-90)"><tspan x="0" y="0">10:00</tspan></text></g><g class="bd"><text class="bn" transform="translate(185.05 159.09) rotate(-90)"><tspan x="0" y="0">10:10</tspan></text></g><g class="cs"><text class="bn" transform="translate(196.35 159.08) rotate(-90)"><tspan x="0" y="0">10:20</tspan></text></g><g class="bj"><text class="bn" transform="translate(207.67 159.08) rotate(-90)"><tspan x="0" y="0">10:30</tspan></text></g><g class="bg"><text class="bn" transform="translate(219 159.08) rotate(-90)"><tspan x="0" y="0">10:40</tspan></text></g><g class="br"><text class="bn" transform="translate(230.3 159.08) rotate(-90)"><tspan x="0" y="0">10:50</tspan></text></g><g class="am"><text class="bn" transform="translate(241.63 159.09) rotate(-90)"><tspan x="0" y="0">11:00</tspan></text></g><g class="de"><text class="bn" transform="translate(252.95 159.09) rotate(-90)"><tspan x="0" y="0">11:10</tspan></text></g><g class="bx"><text class="bn" transform="translate(264.25 159.08) rotate(-90)"><tspan x="0" y="0">11:20</tspan></text></g><g class="ce"><text class="bn" transform="translate(275.57 159.08) rotate(-90)"><tspan x="0" y="0">11:30</tspan></text></g><g class="bb"><text class="bp" transform="translate(286.87 159.08) rotate(-90)"><tspan class="by" x="0" y="0">11:4</tspan><tspan class="b`" x="14.07" y="0">0</tspan></text></g><g class="ba"><text class="bn" transform="translate(298.19 159.08) rotate(-90)"><tspan x="0" y="0">11:50</tspan></text></g><g class="cd"><text class="bn" transform="translate(309.52 159.08) rotate(-90)"><tspan x="0" y="0">12:00</tspan></text></g><g class="bh"><text class="bn" transform="translate(320.81 159.09) rotate(-90)"><tspan x="0" y="0">12:10</tspan></text></g><line class="ax" x1="118.18" y1="170.83" x2="133.65" y2="170.83"/><line class="ay" x1="174.88" y1="170.83" x2="192.92" y2="170.83"/><rect class="at" x="3.5" y="6" width="329.88" height="179"/><text class="bk" transform="translate(338.89 21.67) scale(.99 1)"><tspan class="bc" x="0" y="0">T</tspan><tspan class="as" x="4.9" y="0">i</tspan><tspan class="cw" x="6.87" y="0">m</tspan><tspan x="13.4" y="0">e</tspan></text><text class="bk" transform="translate(379.53 21.67) scale(.99 1)"><tspan class="al" x="0" y="0">F</tspan><tspan class="ct" x="4.41" y="0">e</tspan><tspan class="cq" x="8.7" y="0">a</tspan><tspan class="ap" x="12.92" y="0">t</tspan><tspan class="bv" x="15.88" y="0">u</tspan><tspan class="be" x="20.2" y="0">r</tspan><tspan class="ct" x="23.06" y="0">e</tspan><tspan class="cx" x="27.35" y="0"> </tspan><tspan x="29.27" y="0">1</tspan></text><text class="bk" transform="translate(420.15 21.67) scale(.99 1)"><tspan class="ar" x="0" y="0">F</tspan><tspan class="dd" x="4.41" y="0">e</tspan><tspan class="ak" x="8.7" y="0">a</tspan><tspan class="bf" x="12.92" y="0">t</tspan><tspan class="bv" x="15.88" y="0">u</tspan><tspan class="be" x="20.2" y="0">r</tspan><tspan class="ct" x="23.06" y="0">e</tspan><tspan class="cx" x="27.35" y="0"> </tspan><tspan x="29.27" y="0">2</tspan></text><text class="bk" transform="translate(462.15 21.67) scale(.99 1)"><tspan x="0" y="0">Label</tspan></text><text class="bo" transform="translate(355.15 34.02) scale(.99 1)"><tspan class="db" x="0" y="0">08</tspan><tspan class="cm" x="9.27" y="0">:</tspan><tspan class="db" x="11.84" y="0">0</tspan><tspan x="16.48" y="0">0</tspan></text><text class="bo" transform="translate(407.46 34.02) scale(.99 1)"><tspan class="bq" x="0" y="0">8</tspan><tspan x="4.64" y="0">2</tspan></text><text class="bo" transform="translate(448.09 34.02) scale(.99 1)"><tspan class="bq" x="0" y="0">5</tspan><tspan x="4.64" y="0">9</tspan></text><text class="bo" transform="translate(463.09 34.02) scale(.99 1)"><tspan x="0" y="0">event 1</tspan></text><text class="bo" transform="translate(463.09 46.02) scale(.99 1)"><tspan x="0" y="0">event 1</tspan></text><text class="bo" transform="translate(463.09 59.02) scale(.99 1)"><tspan x="0" y="0">event 1</tspan></text><text class="bo" transform="translate(463.09 71.02) scale(.99 1)"><tspan x="0" y="0">event 1</tspan></text><text class="bo" transform="translate(463.09 83.02) scale(.99 1)"><tspan x="0" y="0">event 1</tspan></text><text class="bo" transform="translate(463.09 96.02) scale(.99 1)"><tspan x="0" y="0">event 2</tspan></text><text class="bo" transform="translate(463.09 108.02) scale(.99 1)"><tspan x="0" y="0">event 2</tspan></text><text class="bo" transform="translate(463.09 120.02) scale(.99 1)"><tspan x="0" y="0">event 2</tspan></text><text class="bo" transform="translate(463.09 133.02) scale(.99 1)"><tspan x="0" y="0">event 2</tspan></text><text class="bo" transform="translate(463.09 145.02) scale(.99 1)"><tspan x="0" y="0">event 2</tspan></text><text class="bo" transform="translate(463.09 157.02) scale(.99 1)"><tspan x="0" y="0">event 2</tspan></text><text class="bo" transform="translate(463.09 170.02) scale(.99 1)"><tspan x="0" y="0">event 2</tspan></text><text class="bo" transform="translate(355.15 46.36) scale(.99 1)"><tspan class="db" x="0" y="0">08</tspan><tspan class="cm" x="9.27" y="0">:</tspan><tspan class="db" x="11.84" y="0">1</tspan><tspan x="16.48" y="0">0</tspan></text><text class="bo" transform="translate(407.46 46.36) scale(.99 1)"><tspan class="bq" x="0" y="0">9</tspan><tspan x="4.64" y="0">9</tspan></text><text class="bo" transform="translate(443.52 46.36) scale(.99 1)"><tspan class="bq" x="0" y="0">13</tspan><tspan class="cl" x="9.27" y="0">4</tspan></text><text class="bo" transform="translate(355.15 58.71) scale(.99 1)"><tspan class="db" x="0" y="0">08</tspan><tspan class="cm" x="9.27" y="0">:</tspan><tspan class="db" x="11.84" y="0">2</tspan><tspan x="16.48" y="0">0</tspan></text><text class="bo" transform="translate(407.46 58.71) scale(.99 1)"><tspan class="bq" x="0" y="0">2</tspan><tspan x="4.64" y="0">0</tspan></text><text class="bo" transform="translate(443.52 58.71) scale(.99 1)"><tspan class="bq" x="0" y="0">12</tspan><tspan class="cl" x="9.27" y="0">1</tspan></text><text class="bo" transform="translate(355.15 71.03) scale(.99 1)"><tspan class="db" x="0" y="0">08</tspan><tspan class="cm" x="9.27" y="0">:</tspan><tspan class="db" x="11.84" y="0">3</tspan><tspan x="16.48" y="0">0</tspan></text><text class="bo" transform="translate(407.46 71.03) scale(.99 1)"><tspan class="bq" x="0" y="0">5</tspan><tspan x="4.64" y="0">7</tspan></text><text class="bo" transform="translate(443.52 71.03) scale(.99 1)"><tspan class="bq" x="0" y="0">10</tspan><tspan class="cl" x="9.27" y="0">8</tspan></text><text class="bo" transform="translate(355.15 83.38) scale(.99 1)"><tspan class="db" x="0" y="0">08</tspan><tspan class="cm" x="9.27" y="0">:</tspan><tspan class="db" x="11.84" y="0">4</tspan><tspan x="16.48" y="0">0</tspan></text><text class="bo" transform="translate(407.46 83.38) scale(.99 1)"><tspan class="bq" x="0" y="0">4</tspan><tspan x="4.64" y="0">9</tspan></text><text class="bo" transform="translate(443.52 83.38) scale(.99 1)"><tspan class="bq" x="0" y="0">10</tspan><tspan class="cl" x="9.27" y="0">5</tspan></text><text class="bo" transform="translate(355.15 95.72) scale(.99 1)"><tspan class="db" x="0" y="0">08</tspan><tspan class="cm" x="9.27" y="0">:</tspan><tspan class="db" x="11.84" y="0">5</tspan><tspan x="16.48" y="0">0</tspan></text><text class="bo" transform="translate(407.46 95.72) scale(.99 1)"><tspan class="bq" x="0" y="0">3</tspan><tspan x="4.64" y="0">0</tspan></text><text class="bo" transform="translate(443.52 95.72) scale(.99 1)"><tspan class="bq" x="0" y="0">10</tspan><tspan class="cl" x="9.27" y="0">5</tspan></text><text class="bo" transform="translate(355.15 108.07) scale(.99 1)"><tspan class="db" x="0" y="0">09</tspan><tspan class="cm" x="9.27" y="0">:</tspan><tspan class="db" x="11.84" y="0">0</tspan><tspan x="16.48" y="0">0</tspan></text><text class="bo" transform="translate(407.46 108.07) scale(.99 1)"><tspan class="bq" x="0" y="0">7</tspan><tspan x="4.64" y="0">2</tspan></text><text class="bo" transform="translate(443.52 108.07) scale(.99 1)"><tspan class="bq" x="0" y="0">11</tspan><tspan class="cl" x="9.27" y="0">1</tspan></text><text class="bo" transform="translate(355.15 120.41) scale(.99 1)"><tspan class="db" x="0" y="0">09</tspan><tspan class="cm" x="9.27" y="0">:</tspan><tspan class="db" x="11.84" y="0">1</tspan><tspan x="16.48" y="0">0</tspan></text><text class="bo" transform="translate(407.46 120.41) scale(.99 1)"><tspan class="bq" x="0" y="0">7</tspan><tspan x="4.64" y="0">7</tspan></text><text class="bo" transform="translate(448.09 120.41) scale(.99 1)"><tspan class="bq" x="0" y="0">7</tspan><tspan x="4.64" y="0">5</tspan></text><text class="bo" transform="translate(355.15 132.75) scale(.99 1)"><tspan class="db" x="0" y="0">09</tspan><tspan class="cm" x="9.27" y="0">:</tspan><tspan class="db" x="11.84" y="0">2</tspan><tspan x="16.48" y="0">0</tspan></text><text class="bo" transform="translate(407.46 132.75) scale(.99 1)"><tspan class="bq" x="0" y="0">6</tspan><tspan x="4.64" y="0">5</tspan></text><text class="bo" transform="translate(448.09 132.75) scale(.99 1)"><tspan class="bq" x="0" y="0">9</tspan><tspan x="4.64" y="0">3</tspan></text><text class="bo" transform="translate(355.15 145.1) scale(.99 1)"><tspan class="db" x="0" y="0">09</tspan><tspan class="cm" x="9.27" y="0">:</tspan><tspan class="db" x="11.84" y="0">3</tspan><tspan x="16.48" y="0">0</tspan></text><text class="bo" transform="translate(407.46 145.1) scale(.99 1)"><tspan class="bq" x="0" y="0">3</tspan><tspan x="4.64" y="0">3</tspan></text><text class="bo" transform="translate(443.52 145.1) scale(.99 1)"><tspan class="bq" x="0" y="0">12</tspan><tspan class="cl" x="9.27" y="0">7</tspan></text><text class="bo" transform="translate(355.15 157.44) scale(.99 1)"><tspan class="db" x="0" y="0">09</tspan><tspan class="cm" x="9.27" y="0">:</tspan><tspan class="db" x="11.84" y="0">4</tspan><tspan x="16.48" y="0">0</tspan></text><text class="bo" transform="translate(407.46 157.44) scale(.99 1)"><tspan class="bq" x="0" y="0">1</tspan><tspan x="4.64" y="0">9</tspan></text><text class="bo" transform="translate(443.52 157.44) scale(.99 1)"><tspan class="bq" x="0" y="0">12</tspan><tspan class="cl" x="9.27" y="0">1</tspan></text><text class="bo" transform="translate(355.15 169.78) scale(.99 1)"><tspan class="db" x="0" y="0">09</tspan><tspan class="cm" x="9.27" y="0">:</tspan><tspan class="db" x="11.84" y="0">5</tspan><tspan x="16.48" y="0">0</tspan></text><text class="bo" transform="translate(407.46 169.78) scale(.99 1)"><tspan class="bq" x="0" y="0">3</tspan><tspan x="4.64" y="0">0</tspan></text><text class="bo" transform="translate(448.09 169.78) scale(.99 1)"><tspan class="bq" x="0" y="0">9</tspan><tspan x="4.64" y="0">7</tspan></text><polygon class="au" points="337.37 12.41 459.26 12.41 459.26 172.87 337.37 172.87 337.37 12.41 337.37 12.41"/><polyline class="cj" points="336.87 11.9 336.87 12.41 493 12.41 493 11.9 336.87 11.9"/><polyline class="cj" points="336.87 24.24 336.87 24.76 493 24.76 493 24.24 336.87 24.24"/><polyline class="cj" points="336.87 36.58 336.87 37.1 493 37.1 493 36.58 336.87 36.58"/><polyline class="cj" points="336.87 48.93 336.87 49.44 493 49.44 493 48.93 336.87 48.93"/><polyline class="cj" points="336.87 61.27 336.87 61.78 493 61.78 493 61.27 336.87 61.27"/><polyline class="cj" points="336.87 73.61 336.87 74.13 493 74.13 493 73.61 336.87 73.61"/><polyline class="cj" points="336.87 85.96 336.87 86.47 493 86.47 493 85.96 336.87 85.96"/><polyline class="cj" points="336.87 98.3 336.87 98.81 493 98.81 493 98.3 336.87 98.3"/><polyline class="cj" points="336.87 110.64 336.87 111.16 493 111.16 493 110.64 336.87 110.64"/><polyline class="cj" points="336.87 122.98 336.87 123.5 493 123.5 493 122.98 336.87 122.98"/><polyline class="cj" points="336.87 135.33 336.87 135.84 493 135.84 493 135.33 336.87 135.33"/><polyline class="cj" points="336.87 147.67 336.87 148.18 493 148.18 493 147.67 336.87 147.67"/><polyline class="cj" points="336.87 160.01 336.87 160.53 493 160.53 493 160.01 336.87 160.01"/><polyline class="cj" points="336.87 172.28 336.87 172.94 493 172.94 493 172.28 336.87 172.28"/><polyline class="cj" points="336.87 11.9 336.87 172.87 337.37 172.87 337.37 11.9 336.87 11.9"/><polyline class="cj" points="377.5 11.9 377.5 172.87 378 172.87 378 11.9 377.5 11.9"/><polyline class="cj" points="418.13 11.9 418.13 172.87 418.63 172.87 418.63 11.9 418.13 11.9"/><polyline class="cj" points="458.76 11.9 458.76 172.87 459.26 172.87 459.26 11.9 458.76 11.9"/><polyline class="cj" points="492.76 11.9 492.76 173 493.26 173 493.26 11.9 492.76 11.9"/><polygon class="au" points="336.87 11.9 459.26 11.9 459.26 172.87 336.87 172.87 336.87 11.9 336.87 11.9"/><polygon class="au" points="337.37 12.41 498 12.41 498 172.87 337.37 172.87 337.37 12.41 337.37 12.41"/><text class="bl" transform="translate(136.4 172.81)"><tspan x="0" y="0">feature 1</tspan></text><text class="bm" transform="translate(46.4 33.31)"><tspan x="0" y="0">event 1</tspan></text><text class="bl" transform="translate(196.4 172.81)"><tspan x="0" y="0">feature 2</tspan></text><g><line class="aw" x1="35.18" y1="34.75" x2="77.42" y2="34.75"/><polygon class="cg" points="37.14 37.34 36.04 34.75 37.14 32.16 31 34.75 37.14 37.34"/><polygon class="cg" points="75.73 36.97 76.68 34.75 75.73 32.53 81 34.75 75.73 36.97"/></g><text class="bm" transform="translate(127.4 33.31)"><tspan x="0" y="0">event 2</tspan></text><g><line class="da" x1="83" y1="34.75" x2="183.5" y2="34.5"/><g><line class="aw" x1="87.18" y1="34.74" x2="179.92" y2="34.51"/><polygon class="cg" points="89.15 37.33 88.04 34.74 89.14 32.14 83 34.75 89.15 37.33"/><polygon class="cg" points="178.24 36.74 179.18 34.51 178.23 32.29 183.5 34.5 178.24 36.74"/></g></g><text class="bm" transform="translate(228.4 33.31)"><tspan x="0" y="0">event 1</tspan></text><g><line class="da" x1="184" y1="34.75" x2="316.5" y2="34.75"/><g><line class="aw" x1="188.18" y1="34.75" x2="312.92" y2="34.75"/><polygon class="cg" points="190.14 37.34 189.04 34.75 190.14 32.16 184 34.75 190.14 37.34"/><polygon class="cg" points="311.23 36.97 312.18 34.75 311.23 32.53 316.5 34.75 311.23 36.97"/></g></g></svg>