<?xml version="1.0" encoding="UTF-8"?><svg id="a" xmlns="http://www.w3.org/2000/svg" viewBox="0 0 302 185"><defs><style>.b{fill:#fff;stroke:gray;stroke-miterlimit:10;}.c{font-family:Lato-Regular, Lato;font-size:16px;}</style></defs><rect class="b" x="6.5" y="31.5" width="55" height="26"/><rect class="b" x="37.5" y="85.5" width="55" height="26"/><rect class="b" x="41.5" y="133.5" width="55" height="26"/><rect class="b" x="154.5" y="146.5" width="76" height="26"/><rect class="b" x="78.5" y="7.5" width="55" height="26"/><rect class="b" x="117.5" y="102.5" width="55" height="26"/><rect class="b" x="211.5" y="102.5" width="65" height="26"/><rect class="b" x="117.5" y="51.5" width="44" height="26"/><rect class="b" x="211.5" y="12.5" width="38" height="26"/><rect class="b" x="185.5" y="60.5" width="38" height="26"/><text class="c" transform="translate(12 49.71)"><tspan x="0" y="0">Apple</tspan></text><text class="c" transform="translate(122 68.71)"><tspan x="0" y="0">Pear</tspan></text><text class="c" transform="translate(215.4 29.6)"><tspan x="0" y="0">Pen</tspan></text><text class="c" transform="translate(44.13 151.79)"><tspan x="0" y="0">Laptop</tspan></text><text class="c" transform="translate(189.45 77.92)"><tspan x="0" y="0">Red</tspan></text><text class="c" transform="translate(41.47 102.04)"><tspan x="0" y="0">Sketch</tspan></text><text class="c" transform="translate(215.4 119.81)"><tspan x="0" y="0">Sweater</tspan></text><text class="c" transform="translate(157.13 164.79)"><tspan x="0" y="0">Keyboard</tspan></text><text class="c" transform="translate(81.13 25.79)"><tspan x="0" y="0">Green</tspan></text><text class="c" transform="translate(122.26 121.13)"><tspan x="0" y="0">Jeans</tspan></text></svg>