<?xml version="1.0" encoding="utf-8"?>
<!-- Generator: Adobe Illustrator 26.2.1, SVG Export Plug-In . SVG Version: 6.00 Build 0)  -->
<svg version="1.1" id="a" xmlns="http://www.w3.org/2000/svg" xmlns:xlink="http://www.w3.org/1999/xlink" x="0px" y="0px"
	 width="497px" height="199px" viewBox="0 0 497 199" style="enable-background:new 0 0 497 199;" xml:space="preserve">
<style type="text/css">
	.st0{fill:#FFFFFF;}
	.st1{stroke:#D9D9D9;stroke-width:0.75;stroke-linejoin:round;}
	.st2{fill:none;stroke:#D9D9D9;stroke-width:0.75;stroke-linejoin:round;}
	.st3{fill:none;stroke:#4472C4;stroke-width:2.25;stroke-linecap:round;stroke-linejoin:round;}
	.st4{fill:none;stroke:#ED7D31;stroke-width:2.25;stroke-linecap:round;stroke-linejoin:round;}
	.st5{clip-path:url(#SVGID_00000076598549367676935560000005661083797396260276_);}
	.st6{fill:#595959;}
	.st7{font-family:'Calibri';}
	.st8{font-size:7.86px;}
	.st9{clip-path:url(#SVGID_00000076578093353576896210000006103810632781179313_);}
	.st10{clip-path:url(#SVGID_00000013904317847286445060000014105594134984020132_);}
	.st11{clip-path:url(#SVGID_00000059297803836719471760000006814960584301273522_);}
	.st12{clip-path:url(#SVGID_00000080884884699580565540000006889851129594199980_);}
	.st13{clip-path:url(#SVGID_00000103977825303801468870000001642400314122145161_);}
	.st14{clip-path:url(#SVGID_00000065770507034302076490000001502921928910817188_);}
	.st15{clip-path:url(#SVGID_00000022553927952077133070000010544673514147899520_);}
	.st16{clip-path:url(#SVGID_00000082337968299835864100000001114639421248527551_);}
	.st17{font-size:7.88px;}
	.st18{clip-path:url(#SVGID_00000116231758725726497720000006196379910610527934_);}
	.st19{clip-path:url(#SVGID_00000157991884861563426540000017914301536528151681_);}
	.st20{clip-path:url(#SVGID_00000071556250422528432180000006317319880799185548_);}
	.st21{clip-path:url(#SVGID_00000103954555933335200310000015789589199649000611_);}
	.st22{clip-path:url(#SVGID_00000132076965292365990650000004891466712407069848_);}
	.st23{clip-path:url(#SVGID_00000164491939405753652850000004491313553749437590_);}
	.st24{clip-path:url(#SVGID_00000135650585051973588040000009676898853702101682_);}
	.st25{clip-path:url(#SVGID_00000009578501504298928850000004023239324250385077_);}
	.st26{clip-path:url(#SVGID_00000140000218160827780510000009370301687579462529_);}
	.st27{clip-path:url(#SVGID_00000067194412694114904870000017993989615082276258_);}
	.st28{clip-path:url(#SVGID_00000157996710519594210760000000913112594402178464_);}
	.st29{clip-path:url(#SVGID_00000013173558063973586030000014331150071473369258_);}
	.st30{clip-path:url(#SVGID_00000145034772207340408830000015598714012072438199_);}
	.st31{clip-path:url(#SVGID_00000120517969842150425580000000969834476553904812_);}
	.st32{clip-path:url(#SVGID_00000085230183341567079630000005728915990324181166_);}
	.st33{clip-path:url(#SVGID_00000147926043131231245250000012769669688717545861_);}
	.st34{clip-path:url(#SVGID_00000021833174421203332790000003742740927882455688_);}
	.st35{clip-path:url(#SVGID_00000082350337333995235810000010720681205916887682_);}
	.st36{clip-path:url(#SVGID_00000132796737961726769510000015121935112491952269_);}
	.st37{clip-path:url(#SVGID_00000077300661894562169300000000187233515719932556_);}
	.st38{clip-path:url(#SVGID_00000058579473725660279190000010062795348730004618_);}
	.st39{clip-path:url(#SVGID_00000111905108627305362760000016192004934089526202_);}
	.st40{clip-path:url(#SVGID_00000026136973002222036400000012946892681006641070_);}
	.st41{clip-path:url(#SVGID_00000016757326020399083790000014217982029481638321_);}
	.st42{clip-path:url(#SVGID_00000103240616940827574190000008601560097780915851_);}
	.st43{font-family:'Lato-Bold';}
	.st44{font-size:8px;}
	.st45{font-size:9.26px;}
	.st46{clip-path:url(#SVGID_00000038376013841982112800000001900130539494523040_);}
	.st47{fill-rule:evenodd;clip-rule:evenodd;fill:#D4D4D4;}
	.st48{font-size:11px;}
</style>
<rect x="4.8" y="3" class="st0" width="329.9" height="177.7"/>
<path class="st1" d="M30.6,24.8h293.8 M30.6,37.7h293.8 M30.6,50.6h293.8 M30.6,63.5h293.8 M30.6,78.9h293.8 M30.6,91.8h293.8
	 M30.6,104.7h293.8 M30.6,120.2h293.8"/>
<line class="st2" x1="30.6" y1="133" x2="324.4" y2="133"/>
<polyline class="st3" points="35.3,77 46.6,65.4 58,119.3 69.2,94.1 80.5,99.5 91.8,112.5 103.2,83.8 114.5,80.4 125.8,88.6 
	137.1,110.4 148.4,120 159.8,112.5 171.1,119.3 182.3,66.1 193.6,88.6 204.9,98.2 216.3,129.6 227.6,122.7 238.9,71.5 250.2,82.4 
	261.6,77.7 272.9,107.7 284.2,99.5 295.5,68.2 306.8,74.3 318.1,120 "/>
<polyline class="st4" points="35.3,89.1 46.6,41 58,49.2 69.2,57.6 80.5,59.6 91.8,59.6 103.2,55.7 114.5,78.8 125.8,67.3 
	137.1,45.4 148.4,49.2 159.8,64.7 171.1,83.9 182.3,39.7 193.6,65.3 204.9,85.2 216.3,78.8 227.6,44.1 238.9,81.4 250.2,54.5 
	261.6,88.4 272.9,62.2 284.2,41.5 295.5,41.5 306.8,74.3 318.1,67.9 "/>
<g>
	<defs>
		<rect id="SVGID_1_" x="4.8" y="-10" width="329.9" height="190.7"/>
	</defs>
	<clipPath id="SVGID_00000147185674807727316550000006664767962654928824_">
		<use xlink:href="#SVGID_1_"  style="overflow:visible;"/>
	</clipPath>
	<g style="clip-path:url(#SVGID_00000147185674807727316550000006664767962654928824_);">
		<text transform="matrix(1 0 0 1 18.35 135.26)" class="st6 st7 st8">0</text>
	</g>
</g>
<g>
	<defs>
		<rect id="SVGID_00000037688450614885875450000015180004813684432815_" x="4.8" y="-10" width="329.9" height="190.7"/>
	</defs>
	<clipPath id="SVGID_00000013155076518887355960000001549999483437819828_">
		<use xlink:href="#SVGID_00000037688450614885875450000015180004813684432815_"  style="overflow:visible;"/>
	</clipPath>
	<g style="clip-path:url(#SVGID_00000013155076518887355960000001549999483437819828_);">
		<text transform="matrix(1 0 0 1 14.37 121.61)" class="st6 st7 st8">2</text>
		<text transform="matrix(1 0 0 1 18.37 121.61)" class="st6 st7 st8">0</text>
	</g>
</g>
<g>
	<defs>
		<rect id="SVGID_00000065055615398750910260000010252923462647314874_" x="4.8" y="-10" width="329.9" height="190.7"/>
	</defs>
	<clipPath id="SVGID_00000146468498965064083930000006797735517620316814_">
		<use xlink:href="#SVGID_00000065055615398750910260000010252923462647314874_"  style="overflow:visible;"/>
	</clipPath>
	<g style="clip-path:url(#SVGID_00000146468498965064083930000006797735517620316814_);">
		<text transform="matrix(1 0 0 1 14.37 107.96)" class="st6 st7 st8">4</text>
		<text transform="matrix(1 0 0 1 18.37 107.96)" class="st6 st7 st8">0</text>
	</g>
</g>
<g>
	<defs>
		<rect id="SVGID_00000092428328667192409680000002285481442305252538_" x="4.8" y="-10" width="329.9" height="190.7"/>
	</defs>
	<clipPath id="SVGID_00000137835083991505604610000001575835640006443443_">
		<use xlink:href="#SVGID_00000092428328667192409680000002285481442305252538_"  style="overflow:visible;"/>
	</clipPath>
	<g style="clip-path:url(#SVGID_00000137835083991505604610000001575835640006443443_);">
		<text transform="matrix(1 0 0 1 14.37 94.31)" class="st6 st7 st8">6</text>
		<text transform="matrix(1 0 0 1 18.37 94.31)" class="st6 st7 st8">0</text>
	</g>
</g>
<g>
	<defs>
		<rect id="SVGID_00000114772616415560784830000012515408656225230507_" x="4.8" y="-10" width="329.9" height="190.7"/>
	</defs>
	<clipPath id="SVGID_00000098942068111070230110000009373869936338178750_">
		<use xlink:href="#SVGID_00000114772616415560784830000012515408656225230507_"  style="overflow:visible;"/>
	</clipPath>
	<g style="clip-path:url(#SVGID_00000098942068111070230110000009373869936338178750_);">
		<text transform="matrix(1 0 0 1 14.37 80.66)" class="st6 st7 st8">8</text>
		<text transform="matrix(1 0 0 1 18.37 80.66)" class="st6 st7 st8">0</text>
	</g>
</g>
<g>
	<defs>
		<rect id="SVGID_00000069381593709004455730000009227407623359337357_" x="4.8" y="-10" width="329.9" height="190.7"/>
	</defs>
	<clipPath id="SVGID_00000045579833409140176690000017034682802713256871_">
		<use xlink:href="#SVGID_00000069381593709004455730000009227407623359337357_"  style="overflow:visible;"/>
	</clipPath>
	<g style="clip-path:url(#SVGID_00000045579833409140176690000017034682802713256871_);">
		<text transform="matrix(1 0 0 1 10.39 67.01)" class="st6 st7 st8">100</text>
	</g>
</g>
<g>
	<defs>
		<rect id="SVGID_00000029044924729943267460000001005479085703498166_" x="4.8" y="-10" width="329.9" height="190.7"/>
	</defs>
	<clipPath id="SVGID_00000038411875715135671770000003355275881118240958_">
		<use xlink:href="#SVGID_00000029044924729943267460000001005479085703498166_"  style="overflow:visible;"/>
	</clipPath>
	<g style="clip-path:url(#SVGID_00000038411875715135671770000003355275881118240958_);">
		<text transform="matrix(1 0 0 1 10.39 53.36)" class="st6 st7 st8">120</text>
	</g>
</g>
<g>
	<defs>
		<rect id="SVGID_00000109731443721582947130000008277927305646274710_" x="4.8" y="-10" width="329.9" height="190.7"/>
	</defs>
	<clipPath id="SVGID_00000072253977906703209310000011764843095271915703_">
		<use xlink:href="#SVGID_00000109731443721582947130000008277927305646274710_"  style="overflow:visible;"/>
	</clipPath>
	<g style="clip-path:url(#SVGID_00000072253977906703209310000011764843095271915703_);">
		<text transform="matrix(1 0 0 1 10.39 39.71)" class="st6 st7 st8">140</text>
	</g>
</g>
<g>
	<defs>
		<rect id="SVGID_00000005259113736608251250000012300192672240588435_" x="4.8" y="-10" width="329.9" height="190.7"/>
	</defs>
	<clipPath id="SVGID_00000072962172627658551000000013456538869298851224_">
		<use xlink:href="#SVGID_00000005259113736608251250000012300192672240588435_"  style="overflow:visible;"/>
	</clipPath>
	<g style="clip-path:url(#SVGID_00000072962172627658551000000013456538869298851224_);">
		<text transform="matrix(1 0 0 1 10.39 26.06)" class="st6 st7 st8">160</text>
	</g>
</g>
<g>
	<text transform="matrix(6.123234e-17 -1 1 6.123234e-17 37.9399 156.0898)" class="st6 st7 st17">08:0</text>
	<text transform="matrix(6.123234e-17 -1 1 6.123234e-17 37.9399 142.0195)" class="st6 st7 st17">0</text>
</g>
<g>
	<defs>
		<rect id="SVGID_00000054229853141885054980000011472442771241106099_" x="4.8" y="-10" width="329.9" height="190.7"/>
	</defs>
	<clipPath id="SVGID_00000128442759130910788310000011899795718261940629_">
		<use xlink:href="#SVGID_00000054229853141885054980000011472442771241106099_"  style="overflow:visible;"/>
	</clipPath>
	<g style="clip-path:url(#SVGID_00000128442759130910788310000011899795718261940629_);">
		<text transform="matrix(6.123234e-17 -1 1 6.123234e-17 49.26 156.0801)" class="st6 st7 st8">08:10</text>
	</g>
</g>
<g>
	<defs>
		<rect id="SVGID_00000041988035826361312380000002164448627235470732_" x="4.8" y="-10" width="329.9" height="190.7"/>
	</defs>
	<clipPath id="SVGID_00000042700510002127474620000015421508111994229637_">
		<use xlink:href="#SVGID_00000041988035826361312380000002164448627235470732_"  style="overflow:visible;"/>
	</clipPath>
	<g style="clip-path:url(#SVGID_00000042700510002127474620000015421508111994229637_);">
		<text transform="matrix(6.123234e-17 -1 1 6.123234e-17 60.59 156.0801)" class="st6 st7 st8">08:20</text>
	</g>
</g>
<g>
	<defs>
		<rect id="SVGID_00000009571425157772034350000010306014314040885915_" x="4.8" y="-10" width="329.9" height="190.7"/>
	</defs>
	<clipPath id="SVGID_00000127019444727083275240000000482072960867460782_">
		<use xlink:href="#SVGID_00000009571425157772034350000010306014314040885915_"  style="overflow:visible;"/>
	</clipPath>
	<g style="clip-path:url(#SVGID_00000127019444727083275240000000482072960867460782_);">
		<text transform="matrix(6.123234e-17 -1 1 6.123234e-17 71.89 156.0801)" class="st6 st7 st8">08:30</text>
	</g>
</g>
<g>
	<defs>
		<rect id="SVGID_00000093167772041299525540000003508375590590883458_" x="4.8" y="-10" width="329.9" height="190.7"/>
	</defs>
	<clipPath id="SVGID_00000062880113364926468590000016141194478357058227_">
		<use xlink:href="#SVGID_00000093167772041299525540000003508375590590883458_"  style="overflow:visible;"/>
	</clipPath>
	<g style="clip-path:url(#SVGID_00000062880113364926468590000016141194478357058227_);">
		<text transform="matrix(6.123234e-17 -1 1 6.123234e-17 83.21 156.0801)" class="st6 st7 st8">08:40</text>
	</g>
</g>
<g>
	<defs>
		<rect id="SVGID_00000074438037851532148180000002333327419227777154_" x="4.8" y="-10" width="329.9" height="190.7"/>
	</defs>
	<clipPath id="SVGID_00000018929050325521953930000010128991947117251242_">
		<use xlink:href="#SVGID_00000074438037851532148180000002333327419227777154_"  style="overflow:visible;"/>
	</clipPath>
	<g style="clip-path:url(#SVGID_00000018929050325521953930000010128991947117251242_);">
		<text transform="matrix(6.123234e-17 -1 1 6.123234e-17 94.54 156.0898)" class="st6 st7 st8">08:50</text>
	</g>
</g>
<g>
	<defs>
		<rect id="SVGID_00000128457510652842030160000011426291670643041210_" x="4.8" y="-10" width="329.9" height="190.7"/>
	</defs>
	<clipPath id="SVGID_00000070827272743217411590000016555222457752033165_">
		<use xlink:href="#SVGID_00000128457510652842030160000011426291670643041210_"  style="overflow:visible;"/>
	</clipPath>
	<g style="clip-path:url(#SVGID_00000070827272743217411590000016555222457752033165_);">
		<text transform="matrix(6.123234e-17 -1 1 6.123234e-17 105.83 156.0898)" class="st6 st7 st8">09:00</text>
	</g>
</g>
<g>
	<defs>
		<rect id="SVGID_00000157270839955483305690000013565001043770642362_" x="4.8" y="-10" width="329.9" height="190.7"/>
	</defs>
	<clipPath id="SVGID_00000004544070739055245110000016504771522556126091_">
		<use xlink:href="#SVGID_00000157270839955483305690000013565001043770642362_"  style="overflow:visible;"/>
	</clipPath>
	<g style="clip-path:url(#SVGID_00000004544070739055245110000016504771522556126091_);">
		<text transform="matrix(6.123234e-17 -1 1 6.123234e-17 117.15 156.0801)" class="st6 st7 st8">09:10</text>
	</g>
</g>
<g>
	<defs>
		<rect id="SVGID_00000031922264935684841990000000231968572012505766_" x="4.8" y="-10" width="329.9" height="190.7"/>
	</defs>
	<clipPath id="SVGID_00000031176917173691654620000017343838127146099598_">
		<use xlink:href="#SVGID_00000031922264935684841990000000231968572012505766_"  style="overflow:visible;"/>
	</clipPath>
	<g style="clip-path:url(#SVGID_00000031176917173691654620000017343838127146099598_);">
		<text transform="matrix(6.123234e-17 -1 1 6.123234e-17 128.48 156.0801)" class="st6 st7 st8">09:20</text>
	</g>
</g>
<g>
	<defs>
		<rect id="SVGID_00000014628804694422457300000001604377939650403201_" x="4.8" y="-10" width="329.9" height="190.7"/>
	</defs>
	<clipPath id="SVGID_00000010989062403683006970000010965898890272050876_">
		<use xlink:href="#SVGID_00000014628804694422457300000001604377939650403201_"  style="overflow:visible;"/>
	</clipPath>
	<g style="clip-path:url(#SVGID_00000010989062403683006970000010965898890272050876_);">
		<text transform="matrix(6.123234e-17 -1 1 6.123234e-17 139.78 156.0801)" class="st6 st7 st8">09:30</text>
	</g>
</g>
<g>
	<defs>
		<rect id="SVGID_00000154403119786260553410000000195808961198118018_" x="4.8" y="-10" width="329.9" height="190.7"/>
	</defs>
	<clipPath id="SVGID_00000082355056037054295540000011886943599742137731_">
		<use xlink:href="#SVGID_00000154403119786260553410000000195808961198118018_"  style="overflow:visible;"/>
	</clipPath>
	<g style="clip-path:url(#SVGID_00000082355056037054295540000011886943599742137731_);">
		<text transform="matrix(6.123234e-17 -1 1 6.123234e-17 151.1 156.0801)" class="st6 st7 st8">09:40</text>
	</g>
</g>
<g>
	<defs>
		<rect id="SVGID_00000082349194750146647030000010204537224976507786_" x="4.8" y="-10" width="329.9" height="190.7"/>
	</defs>
	<clipPath id="SVGID_00000003084569231995379200000000197054555376255106_">
		<use xlink:href="#SVGID_00000082349194750146647030000010204537224976507786_"  style="overflow:visible;"/>
	</clipPath>
	<g style="clip-path:url(#SVGID_00000003084569231995379200000000197054555376255106_);">
		<text transform="matrix(6.123234e-17 -1 1 6.123234e-17 162.4 156.0898)" class="st6 st7 st17">09:5</text>
		<text transform="matrix(6.123234e-17 -1 1 6.123234e-17 162.4 142.0195)" class="st6 st7 st17">0</text>
	</g>
</g>
<g>
	<defs>
		<rect id="SVGID_00000024716065253894116840000001507374859956773036_" x="4.8" y="-10" width="329.9" height="190.7"/>
	</defs>
	<clipPath id="SVGID_00000078024070531264670130000006332601814399218322_">
		<use xlink:href="#SVGID_00000024716065253894116840000001507374859956773036_"  style="overflow:visible;"/>
	</clipPath>
	<g style="clip-path:url(#SVGID_00000078024070531264670130000006332601814399218322_);">
		<text transform="matrix(6.123234e-17 -1 1 6.123234e-17 173.72 156.0898)" class="st6 st7 st8">10:00</text>
	</g>
</g>
<g>
	<defs>
		<rect id="SVGID_00000029017827341849936890000011349774445266256014_" x="4.8" y="-10" width="329.9" height="190.7"/>
	</defs>
	<clipPath id="SVGID_00000173122959181232044230000004157853617091105976_">
		<use xlink:href="#SVGID_00000029017827341849936890000011349774445266256014_"  style="overflow:visible;"/>
	</clipPath>
	<g style="clip-path:url(#SVGID_00000173122959181232044230000004157853617091105976_);">
		<text transform="matrix(6.123234e-17 -1 1 6.123234e-17 185.05 156.0898)" class="st6 st7 st8">10:10</text>
	</g>
</g>
<g>
	<defs>
		<rect id="SVGID_00000077291592962258143160000000299992737958552234_" x="4.8" y="-10" width="329.9" height="190.7"/>
	</defs>
	<clipPath id="SVGID_00000039814200225754185690000000536054024855878818_">
		<use xlink:href="#SVGID_00000077291592962258143160000000299992737958552234_"  style="overflow:visible;"/>
	</clipPath>
	<g style="clip-path:url(#SVGID_00000039814200225754185690000000536054024855878818_);">
		<text transform="matrix(6.123234e-17 -1 1 6.123234e-17 196.35 156.0801)" class="st6 st7 st8">10:20</text>
	</g>
</g>
<g>
	<defs>
		<rect id="SVGID_00000072260888112414978720000008788656152029849757_" x="4.8" y="-10" width="329.9" height="190.7"/>
	</defs>
	<clipPath id="SVGID_00000167386960876731215330000000352477122340967095_">
		<use xlink:href="#SVGID_00000072260888112414978720000008788656152029849757_"  style="overflow:visible;"/>
	</clipPath>
	<g style="clip-path:url(#SVGID_00000167386960876731215330000000352477122340967095_);">
		<text transform="matrix(6.123234e-17 -1 1 6.123234e-17 207.67 156.0801)" class="st6 st7 st8">10:30</text>
	</g>
</g>
<g>
	<defs>
		<rect id="SVGID_00000176721296407738154790000004550284219154903987_" x="4.8" y="-10" width="329.9" height="190.7"/>
	</defs>
	<clipPath id="SVGID_00000023254936695874507710000002135125491404924849_">
		<use xlink:href="#SVGID_00000176721296407738154790000004550284219154903987_"  style="overflow:visible;"/>
	</clipPath>
	<g style="clip-path:url(#SVGID_00000023254936695874507710000002135125491404924849_);">
		<text transform="matrix(6.123234e-17 -1 1 6.123234e-17 219 156.0801)" class="st6 st7 st8">10:40</text>
	</g>
</g>
<g>
	<defs>
		<rect id="SVGID_00000163789816246236274990000014385982220546228925_" x="4.8" y="-10" width="329.9" height="190.7"/>
	</defs>
	<clipPath id="SVGID_00000143614021467943199650000013283915680774771085_">
		<use xlink:href="#SVGID_00000163789816246236274990000014385982220546228925_"  style="overflow:visible;"/>
	</clipPath>
	<g style="clip-path:url(#SVGID_00000143614021467943199650000013283915680774771085_);">
		<text transform="matrix(6.123234e-17 -1 1 6.123234e-17 230.3 156.0801)" class="st6 st7 st8">10:50</text>
	</g>
</g>
<g>
	<defs>
		<rect id="SVGID_00000104672104959205766630000002978744916753361549_" x="4.8" y="-10" width="329.9" height="190.7"/>
	</defs>
	<clipPath id="SVGID_00000026155182895543604120000015151774860430969241_">
		<use xlink:href="#SVGID_00000104672104959205766630000002978744916753361549_"  style="overflow:visible;"/>
	</clipPath>
	<g style="clip-path:url(#SVGID_00000026155182895543604120000015151774860430969241_);">
		<text transform="matrix(6.123234e-17 -1 1 6.123234e-17 241.63 156.0898)" class="st6 st7 st8">11:00</text>
	</g>
</g>
<g>
	<defs>
		<rect id="SVGID_00000171689363587399365720000001600257548454690745_" x="4.8" y="-10" width="329.9" height="190.7"/>
	</defs>
	<clipPath id="SVGID_00000146465712681343514440000008817939622611113615_">
		<use xlink:href="#SVGID_00000171689363587399365720000001600257548454690745_"  style="overflow:visible;"/>
	</clipPath>
	<g style="clip-path:url(#SVGID_00000146465712681343514440000008817939622611113615_);">
		<text transform="matrix(6.123234e-17 -1 1 6.123234e-17 252.95 156.0898)" class="st6 st7 st8">11:10</text>
	</g>
</g>
<g>
	<text transform="matrix(6.123234e-17 -1 1 6.123234e-17 264.25 156.0801)" class="st6 st7 st8">11:20</text>
</g>
<g>
	<defs>
		<rect id="SVGID_00000161603710568011663530000009814001767778935963_" x="4.8" y="-10" width="329.9" height="190.7"/>
	</defs>
	<clipPath id="SVGID_00000128455436672720280310000000016301216253278864_">
		<use xlink:href="#SVGID_00000161603710568011663530000009814001767778935963_"  style="overflow:visible;"/>
	</clipPath>
	<g style="clip-path:url(#SVGID_00000128455436672720280310000000016301216253278864_);">
		<text transform="matrix(6.123234e-17 -1 1 6.123234e-17 275.57 156.0801)" class="st6 st7 st8">11:30</text>
	</g>
</g>
<g>
	<defs>
		<rect id="SVGID_00000171679369868228505930000009503718861515244984_" x="4.8" y="-10" width="329.9" height="190.7"/>
	</defs>
	<clipPath id="SVGID_00000120518303724972323260000015324892929124376743_">
		<use xlink:href="#SVGID_00000171679369868228505930000009503718861515244984_"  style="overflow:visible;"/>
	</clipPath>
	<g style="clip-path:url(#SVGID_00000120518303724972323260000015324892929124376743_);">
		<text transform="matrix(6.123234e-17 -1 1 6.123234e-17 286.87 156.0801)" class="st6 st7 st17">11:4</text>
		<text transform="matrix(6.123234e-17 -1 1 6.123234e-17 286.87 142.0098)" class="st6 st7 st17">0</text>
	</g>
</g>
<g>
	<defs>
		<rect id="SVGID_00000047036326209671403160000013437835477295333021_" x="4.8" y="-10" width="329.9" height="190.7"/>
	</defs>
	<clipPath id="SVGID_00000147215032003163388730000008460953767093915583_">
		<use xlink:href="#SVGID_00000047036326209671403160000013437835477295333021_"  style="overflow:visible;"/>
	</clipPath>
	<g style="clip-path:url(#SVGID_00000147215032003163388730000008460953767093915583_);">
		<text transform="matrix(6.123234e-17 -1 1 6.123234e-17 298.19 156.0801)" class="st6 st7 st8">11:50</text>
	</g>
</g>
<g>
	<defs>
		<rect id="SVGID_00000105428962966893764300000003986834505849944209_" x="4.8" y="-10" width="329.9" height="190.7"/>
	</defs>
	<clipPath id="SVGID_00000098186357414314852390000018346242370552565436_">
		<use xlink:href="#SVGID_00000105428962966893764300000003986834505849944209_"  style="overflow:visible;"/>
	</clipPath>
	<g style="clip-path:url(#SVGID_00000098186357414314852390000018346242370552565436_);">
		<text transform="matrix(6.123234e-17 -1 1 6.123234e-17 309.52 156.0801)" class="st6 st7 st8">12:00</text>
	</g>
</g>
<g>
	<defs>
		<rect id="SVGID_00000137816472410447881510000014731855016983752366_" x="4.8" y="-10" width="329.9" height="190.7"/>
	</defs>
	<clipPath id="SVGID_00000119119441703268089700000000370532780140039559_">
		<use xlink:href="#SVGID_00000137816472410447881510000014731855016983752366_"  style="overflow:visible;"/>
	</clipPath>
	<g style="clip-path:url(#SVGID_00000119119441703268089700000000370532780140039559_);">
		<text transform="matrix(6.123234e-17 -1 1 6.123234e-17 320.81 156.0898)" class="st6 st7 st8">12:10</text>
	</g>
</g>
<line class="st3" x1="118.2" y1="167.8" x2="133.6" y2="167.8"/>
<line class="st4" x1="187.9" y1="167.8" x2="205.9" y2="167.8"/>
<g>
	<rect x="339" y="7" class="st0" width="122" height="160"/>
	<g>
		<defs>
			<polygon id="SVGID_00000022522456909965098780000001546318646849816967_" points="339.4,7.4 461.3,7.4 461.3,167.9 339.4,167.9 
				339.4,7.4 			"/>
		</defs>
		<clipPath id="SVGID_00000070805524395460705510000000466003012370863744_">
			<use xlink:href="#SVGID_00000022522456909965098780000001546318646849816967_"  style="overflow:visible;"/>
		</clipPath>
		<g style="clip-path:url(#SVGID_00000070805524395460705510000000466003012370863744_);">
			<text transform="matrix(0.99 0 0 1 340.8901 16.6699)" class="st43 st44">T</text>
			<text transform="matrix(0.99 0 0 1 345.7412 16.6699)" class="st43 st44">i</text>
			<text transform="matrix(0.99 0 0 1 347.6914 16.6699)" class="st43 st44">m</text>
			<text transform="matrix(0.99 0 0 1 354.1562 16.6699)" class="st43 st44">e</text>
			<text transform="matrix(0.99 0 0 1 381.5303 16.6699)" class="st43 st44">F</text>
			<text transform="matrix(0.99 0 0 1 385.896 16.6699)" class="st43 st44">e</text>
			<text transform="matrix(0.99 0 0 1 390.1431 16.6699)" class="st43 st44">a</text>
			<text transform="matrix(0.99 0 0 1 394.3208 16.6699)" class="st43 st44">t</text>
			<text transform="matrix(0.99 0 0 1 397.2515 16.6699)" class="st43 st44">u</text>
			<text transform="matrix(0.99 0 0 1 401.5283 16.6699)" class="st43 st44">r</text>
			<text transform="matrix(0.99 0 0 1 404.3594 16.6699)" class="st43 st44">e</text>
			<text transform="matrix(0.99 0 0 1 408.6064 16.6699)" class="st43 st44"> </text>
			<text transform="matrix(0.99 0 0 1 410.5073 16.6699)" class="st43 st44">1</text>
			<text transform="matrix(0.99 0 0 1 422.1499 16.6699)" class="st43 st44">F</text>
			<text transform="matrix(0.99 0 0 1 426.5161 16.6699)" class="st43 st44">e</text>
			<text transform="matrix(0.99 0 0 1 430.7632 16.6699)" class="st43 st44">a</text>
			<text transform="matrix(0.99 0 0 1 434.9409 16.6699)" class="st43 st44">t</text>
			<text transform="matrix(0.99 0 0 1 437.8711 16.6699)" class="st43 st44">u</text>
			<text transform="matrix(0.99 0 0 1 442.1479 16.6699)" class="st43 st44">r</text>
			<text transform="matrix(0.99 0 0 1 444.9795 16.6699)" class="st43 st44">e</text>
			<text transform="matrix(0.99 0 0 1 449.2266 16.6699)" class="st43 st44"> </text>
			<text transform="matrix(0.99 0 0 1 451.1274 16.6699)" class="st43 st44">2</text>
			<text transform="matrix(0.99 0 0 1 357.1499 29.02)" class="st7 st45">08</text>
			<text transform="matrix(0.99 0 0 1 366.3271 29.02)" class="st7 st45">:</text>
			<text transform="matrix(0.99 0 0 1 368.8716 29.02)" class="st7 st45">0</text>
			<text transform="matrix(0.99 0 0 1 373.4653 29.02)" class="st7 st45">0</text>
			<text transform="matrix(0.99 0 0 1 409.46 29.02)" class="st7 st45">8</text>
			<text transform="matrix(0.99 0 0 1 414.0537 29.02)" class="st7 st45">2</text>
			<text transform="matrix(0.99 0 0 1 450.0898 29.02)" class="st7 st45">5</text>
			<text transform="matrix(0.99 0 0 1 454.6836 29.02)" class="st7 st45">9</text>
			<text transform="matrix(0.99 0 0 1 357.1499 41.3599)" class="st7 st45">08</text>
			<text transform="matrix(0.99 0 0 1 366.3271 41.3599)" class="st7 st45">:</text>
			<text transform="matrix(0.99 0 0 1 368.8716 41.3599)" class="st7 st45">1</text>
			<text transform="matrix(0.99 0 0 1 373.4653 41.3599)" class="st7 st45">0</text>
			<text transform="matrix(0.99 0 0 1 409.46 41.3599)" class="st7 st45">9</text>
			<text transform="matrix(0.99 0 0 1 414.0537 41.3599)" class="st7 st45">9</text>
			<text transform="matrix(0.99 0 0 1 445.52 41.3599)" class="st7 st45">13</text>
			<text transform="matrix(0.99 0 0 1 454.6973 41.3599)" class="st7 st45">4</text>
			<text transform="matrix(0.99 0 0 1 357.1499 53.71)" class="st7 st45">08</text>
			<text transform="matrix(0.99 0 0 1 366.3271 53.71)" class="st7 st45">:</text>
			<text transform="matrix(0.99 0 0 1 368.8716 53.71)" class="st7 st45">2</text>
			<text transform="matrix(0.99 0 0 1 373.4653 53.71)" class="st7 st45">0</text>
			<text transform="matrix(0.99 0 0 1 409.46 53.71)" class="st7 st45">2</text>
			<text transform="matrix(0.99 0 0 1 414.0537 53.71)" class="st7 st45">0</text>
			<text transform="matrix(0.99 0 0 1 445.52 53.71)" class="st7 st45">12</text>
			<text transform="matrix(0.99 0 0 1 454.6973 53.71)" class="st7 st45">1</text>
			<text transform="matrix(0.99 0 0 1 357.1499 66.0303)" class="st7 st45">08</text>
			<text transform="matrix(0.99 0 0 1 366.3271 66.0303)" class="st7 st45">:</text>
			<text transform="matrix(0.99 0 0 1 368.8716 66.0303)" class="st7 st45">3</text>
			<text transform="matrix(0.99 0 0 1 373.4653 66.0303)" class="st7 st45">0</text>
			<text transform="matrix(0.99 0 0 1 409.46 66.0303)" class="st7 st45">5</text>
			<text transform="matrix(0.99 0 0 1 414.0537 66.0303)" class="st7 st45">7</text>
			<text transform="matrix(0.99 0 0 1 445.52 66.0303)" class="st7 st45">10</text>
			<text transform="matrix(0.99 0 0 1 454.6973 66.0303)" class="st7 st45">8</text>
			<text transform="matrix(0.99 0 0 1 357.1499 78.3799)" class="st7 st45">08</text>
			<text transform="matrix(0.99 0 0 1 366.3271 78.3799)" class="st7 st45">:</text>
			<text transform="matrix(0.99 0 0 1 368.8716 78.3799)" class="st7 st45">4</text>
			<text transform="matrix(0.99 0 0 1 373.4653 78.3799)" class="st7 st45">0</text>
			<text transform="matrix(0.99 0 0 1 409.46 78.3799)" class="st7 st45">4</text>
			<text transform="matrix(0.99 0 0 1 414.0537 78.3799)" class="st7 st45">9</text>
			<text transform="matrix(0.99 0 0 1 445.52 78.3799)" class="st7 st45">10</text>
			<text transform="matrix(0.99 0 0 1 454.6973 78.3799)" class="st7 st45">5</text>
			<text transform="matrix(0.99 0 0 1 357.1499 90.7197)" class="st7 st45">08</text>
			<text transform="matrix(0.99 0 0 1 366.3271 90.7197)" class="st7 st45">:</text>
			<text transform="matrix(0.99 0 0 1 368.8716 90.7197)" class="st7 st45">5</text>
			<text transform="matrix(0.99 0 0 1 373.4653 90.7197)" class="st7 st45">0</text>
			<text transform="matrix(0.99 0 0 1 409.46 90.7197)" class="st7 st45">3</text>
			<text transform="matrix(0.99 0 0 1 414.0537 90.7197)" class="st7 st45">0</text>
			<text transform="matrix(0.99 0 0 1 445.52 90.7197)" class="st7 st45">10</text>
			<text transform="matrix(0.99 0 0 1 454.6973 90.7197)" class="st7 st45">5</text>
			<text transform="matrix(0.99 0 0 1 357.1499 103.0698)" class="st7 st45">09</text>
			<text transform="matrix(0.99 0 0 1 366.3271 103.0698)" class="st7 st45">:</text>
			<text transform="matrix(0.99 0 0 1 368.8716 103.0698)" class="st7 st45">0</text>
			<text transform="matrix(0.99 0 0 1 373.4653 103.0698)" class="st7 st45">0</text>
			<text transform="matrix(0.99 0 0 1 409.46 103.0698)" class="st7 st45">7</text>
			<text transform="matrix(0.99 0 0 1 414.0537 103.0698)" class="st7 st45">2</text>
			<text transform="matrix(0.99 0 0 1 445.52 103.0698)" class="st7 st45">11</text>
			<text transform="matrix(0.99 0 0 1 454.6973 103.0698)" class="st7 st45">1</text>
			<text transform="matrix(0.99 0 0 1 357.1499 115.4102)" class="st7 st45">09</text>
			<text transform="matrix(0.99 0 0 1 366.3271 115.4102)" class="st7 st45">:</text>
			<text transform="matrix(0.99 0 0 1 368.8716 115.4102)" class="st7 st45">1</text>
			<text transform="matrix(0.99 0 0 1 373.4653 115.4102)" class="st7 st45">0</text>
			<text transform="matrix(0.99 0 0 1 409.46 115.4102)" class="st7 st45">7</text>
			<text transform="matrix(0.99 0 0 1 414.0537 115.4102)" class="st7 st45">7</text>
			<text transform="matrix(0.99 0 0 1 450.0898 115.4102)" class="st7 st45">7</text>
			<text transform="matrix(0.99 0 0 1 454.6836 115.4102)" class="st7 st45">5</text>
			<text transform="matrix(0.99 0 0 1 357.1499 127.75)" class="st7 st45">09</text>
			<text transform="matrix(0.99 0 0 1 366.3271 127.75)" class="st7 st45">:</text>
			<text transform="matrix(0.99 0 0 1 368.8716 127.75)" class="st7 st45">2</text>
			<text transform="matrix(0.99 0 0 1 373.4653 127.75)" class="st7 st45">0</text>
			<text transform="matrix(0.99 0 0 1 409.46 127.75)" class="st7 st45">6</text>
			<text transform="matrix(0.99 0 0 1 414.0537 127.75)" class="st7 st45">5</text>
			<text transform="matrix(0.99 0 0 1 450.0898 127.75)" class="st7 st45">9</text>
			<text transform="matrix(0.99 0 0 1 454.6836 127.75)" class="st7 st45">3</text>
			<text transform="matrix(0.99 0 0 1 357.1499 140.1001)" class="st7 st45">09</text>
			<text transform="matrix(0.99 0 0 1 366.3271 140.1001)" class="st7 st45">:</text>
			<text transform="matrix(0.99 0 0 1 368.8716 140.1001)" class="st7 st45">3</text>
			<text transform="matrix(0.99 0 0 1 373.4653 140.1001)" class="st7 st45">0</text>
			<text transform="matrix(0.99 0 0 1 409.46 140.1001)" class="st7 st45">3</text>
			<text transform="matrix(0.99 0 0 1 414.0537 140.1001)" class="st7 st45">3</text>
			<text transform="matrix(0.99 0 0 1 445.52 140.1001)" class="st7 st45">12</text>
			<text transform="matrix(0.99 0 0 1 454.6973 140.1001)" class="st7 st45">7</text>
			<text transform="matrix(0.99 0 0 1 357.1499 152.4399)" class="st7 st45">09</text>
			<text transform="matrix(0.99 0 0 1 366.3271 152.4399)" class="st7 st45">:</text>
			<text transform="matrix(0.99 0 0 1 368.8716 152.4399)" class="st7 st45">4</text>
			<text transform="matrix(0.99 0 0 1 373.4653 152.4399)" class="st7 st45">0</text>
			<text transform="matrix(0.99 0 0 1 409.46 152.4399)" class="st7 st45">1</text>
			<text transform="matrix(0.99 0 0 1 414.0537 152.4399)" class="st7 st45">9</text>
			<text transform="matrix(0.99 0 0 1 445.52 152.4399)" class="st7 st45">12</text>
			<text transform="matrix(0.99 0 0 1 454.6973 152.4399)" class="st7 st45">1</text>
			<text transform="matrix(0.99 0 0 1 357.1499 164.7803)" class="st7 st45">09</text>
			<text transform="matrix(0.99 0 0 1 366.3271 164.7803)" class="st7 st45">:</text>
			<text transform="matrix(0.99 0 0 1 368.8716 164.7803)" class="st7 st45">5</text>
			<text transform="matrix(0.99 0 0 1 373.4653 164.7803)" class="st7 st45">0</text>
			<text transform="matrix(0.99 0 0 1 409.46 164.7803)" class="st7 st45">3</text>
			<text transform="matrix(0.99 0 0 1 414.0537 164.7803)" class="st7 st45">0</text>
			<text transform="matrix(0.99 0 0 1 450.0898 164.7803)" class="st7 st45">9</text>
			<text transform="matrix(0.99 0 0 1 454.6836 164.7803)" class="st7 st45">7</text>
		</g>
	</g>
	<g>
		<defs>
			<polygon id="SVGID_00000110448765120563726990000017488711601225686434_" points="338.9,6.9 461.3,6.9 461.3,167.9 338.9,167.9 
				338.9,6.9 			"/>
		</defs>
		<clipPath id="SVGID_00000144324171229146016450000004290023844355015866_">
			<use xlink:href="#SVGID_00000110448765120563726990000017488711601225686434_"  style="overflow:visible;"/>
		</clipPath>
		<g style="clip-path:url(#SVGID_00000144324171229146016450000004290023844355015866_);">
			<polyline class="st47" points="338.9,6.9 338.9,7.4 460.8,7.4 460.8,6.9 338.9,6.9 			"/>
			<polyline class="st47" points="338.9,19.2 338.9,19.8 460.8,19.8 460.8,19.2 338.9,19.2 			"/>
			<polyline class="st47" points="338.9,31.6 338.9,32.1 460.8,32.1 460.8,31.6 338.9,31.6 			"/>
			<polyline class="st47" points="338.9,43.9 338.9,44.4 460.8,44.4 460.8,43.9 338.9,43.9 			"/>
			<polyline class="st47" points="338.9,56.3 338.9,56.8 460.8,56.8 460.8,56.3 338.9,56.3 			"/>
			<polyline class="st47" points="338.9,68.6 338.9,69.1 460.8,69.1 460.8,68.6 338.9,68.6 			"/>
			<polyline class="st47" points="338.9,81 338.9,81.5 460.8,81.5 460.8,81 338.9,81 			"/>
			<polyline class="st47" points="338.9,93.3 338.9,93.8 460.8,93.8 460.8,93.3 338.9,93.3 			"/>
			<polyline class="st47" points="338.9,105.6 338.9,106.2 460.8,106.2 460.8,105.6 338.9,105.6 			"/>
			<polyline class="st47" points="338.9,118 338.9,118.5 460.8,118.5 460.8,118 338.9,118 			"/>
			<polyline class="st47" points="338.9,130.3 338.9,130.8 460.8,130.8 460.8,130.3 338.9,130.3 			"/>
			<polyline class="st47" points="338.9,142.7 338.9,143.2 460.8,143.2 460.8,142.7 338.9,142.7 			"/>
			<polyline class="st47" points="338.9,155 338.9,155.5 460.8,155.5 460.8,155 338.9,155 			"/>
			<polyline class="st47" points="338.9,167.4 338.9,167.9 460.8,167.9 460.8,167.4 338.9,167.4 			"/>
			<polyline class="st47" points="338.9,6.9 338.9,167.9 339.4,167.9 339.4,6.9 338.9,6.9 			"/>
			<polyline class="st47" points="379.5,6.9 379.5,167.9 380,167.9 380,6.9 379.5,6.9 			"/>
			<polyline class="st47" points="420.1,6.9 420.1,167.9 420.6,167.9 420.6,6.9 420.1,6.9 			"/>
			<polyline class="st47" points="460.8,6.9 460.8,167.9 461.3,167.9 461.3,6.9 460.8,6.9 			"/>
		</g>
	</g>
</g>
<text transform="matrix(1 0 0 1 136.4 170.52)" class="st6 st7 st48">feature 1</text>
<text transform="matrix(1 0 0 1 208.56 170.52)" class="st6 st7 st48">feature 2</text>
</svg>
