<?xml version="1.0" encoding="UTF-8"?><svg id="a" xmlns="http://www.w3.org/2000/svg" viewBox="0 0 288 191"><defs><style>.b{font-size:8px;}.b,.c{fill:#fff;}.b,.d{font-family:Lato-Regular, Lato;}.c{stroke:gray;stroke-miterlimit:10;}.d{font-size:16px;}.e{fill:#016669;}</style></defs><rect class="c" x="6.5" y="31.5" width="55" height="26"/><rect class="c" x="37.5" y="85.5" width="55" height="26"/><rect class="c" x="41.5" y="133.5" width="55" height="26"/><rect class="c" x="154.5" y="146.5" width="76" height="26"/><rect class="c" x="78.5" y="7.5" width="55" height="26"/><rect class="c" x="117.5" y="102.5" width="55" height="26"/><rect class="c" x="211.5" y="102.5" width="65" height="26"/><rect class="c" x="117.5" y="51.5" width="44" height="26"/><rect class="c" x="211.5" y="12.5" width="38" height="26"/><rect class="c" x="185.5" y="60.5" width="38" height="26"/><text class="d" transform="translate(12 49.71)"><tspan x="0" y="0">Apple</tspan></text><text class="d" transform="translate(122 68.71)"><tspan x="0" y="0">Pear</tspan></text><text class="d" transform="translate(215.4 29.6)"><tspan x="0" y="0">Pen</tspan></text><text class="d" transform="translate(44.13 151.79)"><tspan x="0" y="0">Laptop</tspan></text><text class="d" transform="translate(189.45 77.92)"><tspan x="0" y="0">Red</tspan></text><text class="d" transform="translate(41.47 102.04)"><tspan x="0" y="0">Sketch</tspan></text><text class="d" transform="translate(215.4 119.81)"><tspan x="0" y="0">Sweater</tspan></text><text class="d" transform="translate(157.13 164.79)"><tspan x="0" y="0">Keyboard</tspan></text><text class="d" transform="translate(81.13 25.79)"><tspan x="0" y="0">Green</tspan></text><text class="d" transform="translate(122.26 121.13)"><tspan x="0" y="0">Jeans</tspan></text><rect class="e" x="6" y="57" width="56" height="12"/><text class="b" transform="translate(26.52 65.16)"><tspan x="0" y="0">fruit</tspan></text><rect class="e" x="37" y="112" width="56" height="12"/><text class="b" transform="translate(50.9 120.16)"><tspan x="0" y="0">drawing</tspan></text><rect class="e" x="117" y="78" width="45" height="12"/><text class="b" transform="translate(132.02 86.16)"><tspan x="0" y="0">fruit</tspan></text><rect class="e" x="78" y="33" width="56" height="12"/><text class="b" transform="translate(97.15 41.16)"><tspan x="0" y="0">color</tspan></text><rect class="e" x="185" y="87" width="39" height="12"/><text class="b" transform="translate(195.65 95.16)"><tspan x="0" y="0">color</tspan></text><rect class="e" x="211" y="39" width="39" height="12"/><text class="b" transform="translate(216.4 47.16)"><tspan x="0" y="0">drawing</tspan></text><rect class="e" x="117" y="129" width="56" height="12"/><text class="b" transform="translate(132.37 137.15)"><tspan x="0" y="0">clothes</tspan></text><rect class="e" x="41" y="159" width="56" height="12"/><text class="b" transform="translate(52.06 167.15)"><tspan x="0" y="0">computer</tspan></text><rect class="e" x="211.5" y="129" width="65.5" height="12"/><text class="b" transform="translate(231.62 137.15)"><tspan x="0" y="0">clothes</tspan></text><rect class="e" x="154.5" y="173" width="76.5" height="12"/><text class="b" transform="translate(175.81 181.15)"><tspan x="0" y="0">computer</tspan></text></svg>